<svg width="138" height="23" viewBox="0 0 138 23" fill="none" xmlns="http://www.w3.org/2000/svg">
<g id="Avanos">
<path id="Path" d="M89.0387 0.566077V21.7717C87.9892 21.7717 86.9628 21.8269 85.9501 21.7349C85.6509 21.7072 85.3426 21.2838 85.1124 20.9846C81.9134 16.7637 78.7282 12.529 75.5429 8.29897C75.3634 8.05962 75.1701 7.82948 74.7973 7.36919V21.7165H70.894V0.49243C71.9389 0.49243 72.9147 0.441798 73.8767 0.520048C74.1667 0.543062 74.4935 0.869869 74.696 1.13684C78.0239 5.52802 81.338 9.93301 84.6567 14.3334C84.7396 14.4438 84.8408 14.5451 85.094 14.8351V0.566077H89.0387Z" fill="black"/>
<path id="Shape" fill-rule="evenodd" clip-rule="evenodd" d="M95.7222 11.1851C95.7176 5.05862 100.767 0.00923093 106.894 2.51013e-05C113.14 -0.00918073 118.203 5.04021 118.184 11.2587C118.166 17.2425 113.029 22.2551 106.907 22.2597C100.827 22.2689 95.7268 17.2149 95.7222 11.1851ZM99.7314 10.9181C99.6439 15.0009 102.829 18.4393 106.788 18.5313C110.696 18.628 114.06 15.3461 114.175 11.3278C114.29 7.28644 111.059 3.82504 107.091 3.74219C103.119 3.65934 99.8188 6.87678 99.7314 10.9181Z" fill="black"/>
<path id="Shape_2" fill-rule="evenodd" clip-rule="evenodd" d="M57.4491 3.35083C59.7275 9.12749 61.9968 14.9041 64.266 20.6808C64.346 20.8839 64.4178 21.091 64.5019 21.3339C64.5437 21.4544 64.5885 21.5837 64.6389 21.7257H43.958C44.1831 21.1448 44.4036 20.5727 44.6217 20.0067C45.0948 18.7789 45.5567 17.5804 46.0293 16.3863C46.727 14.6194 47.4281 12.8536 48.1292 11.0878C49.4263 7.8211 50.7234 4.55418 51.9992 1.27952C52.2432 0.66273 52.5562 0.427982 53.2006 0.469408C53.5438 0.492489 53.9131 0.46979 54.2804 0.447222C55.0117 0.402281 55.7345 0.357863 56.2247 0.676539C56.7207 1.00168 56.9448 1.75094 57.1662 2.4913C57.2551 2.78859 57.3436 3.08445 57.4491 3.35083ZM54.158 6.11718C52.6391 10.0435 51.1201 13.9697 49.5505 18.0157H59.0555C58.5885 16.8238 58.1247 15.6398 57.6632 14.4616C56.5598 11.6451 55.4694 8.86159 54.379 6.08036C54.3056 6.08953 54.2323 6.10326 54.1589 6.11702L54.158 6.11718Z" fill="black"/>
<path id="Shape_3" fill-rule="evenodd" clip-rule="evenodd" d="M13.5234 3.46138C15.7788 9.18281 18.025 14.9088 20.2712 20.6349C20.3732 20.8915 20.4644 21.1481 20.5695 21.4437C20.602 21.5351 20.6358 21.6303 20.6717 21.7304H0C0.282128 21.007 0.556467 20.2985 0.827182 19.5994C1.21456 18.5989 1.59451 17.6176 1.97925 16.6395C2.52512 15.2587 3.072 13.8782 3.61888 12.4977C5.10105 8.75635 6.5833 5.01475 8.0459 1.26579C8.26684 0.699632 8.5246 0.423458 9.1598 0.47409C9.51338 0.500338 9.89441 0.478938 10.2732 0.457665C11.0236 0.415519 11.7651 0.373872 12.2668 0.704235C12.7769 1.04326 13.007 1.81535 13.2347 2.57955C13.3255 2.88405 13.4158 3.18728 13.5234 3.46138ZM8.64884 10.1054C7.63744 12.7274 6.62264 15.3581 5.60175 18.0112H15.0976C14.2153 15.7592 13.343 13.5372 12.4759 11.3286C11.7869 9.57358 11.1012 7.827 10.4164 6.08044C10.3773 6.08964 10.3381 6.0977 10.299 6.10575C10.2599 6.11381 10.2208 6.12186 10.1816 6.13107C9.67132 7.45476 9.16051 8.77896 8.64884 10.1054Z" fill="black"/>
<path id="Path_2" d="M42.784 0.487838C41.8496 2.97802 40.9613 5.33471 40.0775 7.6914C38.425 12.1056 36.7588 16.5152 35.134 20.9386C34.8992 21.583 34.5908 21.8499 33.8866 21.7993C32.9752 21.7349 32.0546 21.7533 31.1432 21.7947C30.5264 21.8223 30.2365 21.606 30.0201 21.0122C27.8614 15.1619 25.6658 9.32544 23.484 3.48434C23.1342 2.54995 22.7889 1.61555 22.3701 0.487838C23.7049 0.487838 24.8925 0.446412 26.0708 0.515456C26.3148 0.529264 26.6462 0.9021 26.7567 1.17828C28.5748 5.7904 30.3607 10.4163 32.1559 15.0376C32.2525 15.2908 32.3676 15.5347 32.5655 15.9996C32.7635 15.5439 32.8923 15.2678 33.0074 14.9778C34.7703 10.4439 36.5425 5.91007 38.2778 1.367C38.5309 0.694969 38.8577 0.414191 39.5988 0.469426C40.616 0.53847 41.6471 0.487838 42.784 0.487838Z" fill="black"/>
<path id="Path_3" d="M137.917 16.7361C137.586 19.0882 136.15 20.644 134.028 21.5415C130.327 23.1019 127.004 22.0479 123.878 19.9075C123.533 19.6682 123.22 19.3828 122.764 19.0191C123.786 18.094 124.702 17.2608 125.632 16.4185C126.309 16.8512 127.109 17.4588 127.989 17.9052C129.241 18.5358 130.585 18.7936 131.966 18.3011C132.992 17.9375 133.664 17.2286 133.816 16.1285C133.963 15.0376 133.452 14.1953 132.559 13.6752C131.593 13.1136 130.539 12.6993 129.521 12.2252C128.61 11.8018 127.662 11.4473 126.792 10.9548C124.849 9.85476 123.703 8.21612 123.8 5.90546C123.892 3.58559 125.107 1.97917 127.128 0.929713C130.189 -0.658292 134.709 -0.151972 137.254 2.13107C136.568 3.09768 135.878 4.0781 135.229 4.99408C134.285 4.59823 133.448 4.04588 132.555 3.92621C131.542 3.78812 130.451 3.92621 129.439 4.14715C128.633 4.32666 128.113 4.99869 128.016 5.87324C127.924 6.74779 128.412 7.35538 129.107 7.73282C130.069 8.24834 131.096 8.64419 132.081 9.11369C133.204 9.65223 134.378 10.1217 135.418 10.7891C137.581 12.1746 138.258 14.2827 137.917 16.7361Z" fill="black"/>
</g>
</svg>
