<svg width="140" height="29" viewBox="0 0 140 29" fill="none" xmlns="http://www.w3.org/2000/svg">
<g id="Corpuls">
<path id="Path" d="M22.9812 21.4185C23.0292 25.0942 20.0554 27.9387 16.8674 28.1825C16.4536 28.2157 16.0399 28.2527 15.6262 28.2564C13.14 28.2564 10.6539 28.2564 8.16771 28.2564H7.60251C7.58773 28.1234 7.56557 28.0384 7.56926 27.9498C7.57296 26.2652 7.58404 24.5844 7.57665 22.8999C7.57296 22.5268 7.66531 22.4233 8.07167 22.427C9.91134 22.4529 11.7547 22.4344 13.5944 22.4123C14.3369 22.4049 14.9427 22.1241 15.253 21.4001C15.4636 20.9014 15.4008 20.8016 14.8652 20.8016C12.6709 20.8016 10.4765 20.8127 8.28223 20.8164C7.10011 20.8164 5.9143 20.8681 4.77281 20.4765C2.45659 19.686 0.912449 18.1714 0.284448 15.7776C0.203177 15.471 0.0960473 15.1644 0 14.8615V13.2989C0.121906 12.9368 0.258589 12.5822 0.354636 12.2165C0.738825 10.7204 1.64389 9.59733 2.87772 8.71813C4.16328 7.80568 5.60768 7.45104 7.17769 7.4769C9.08016 7.50276 10.9826 7.48799 12.8851 7.49537C13.6646 7.49537 13.6498 7.50276 13.6498 8.25636C13.6461 9.81528 13.6387 11.3779 13.672 12.9368C13.6793 13.3136 13.4799 13.2841 13.2434 13.2841C11.4333 13.2915 9.6232 13.2915 7.80938 13.3062C7.38086 13.3099 6.93757 13.3173 6.76764 13.853C6.6051 14.3775 6.84891 14.8319 7.38456 14.9206C7.63945 14.9612 7.90543 14.9575 8.16402 14.9575H22.3495C22.9922 14.9575 22.9885 14.9575 22.9885 15.5855C22.9812 17.5286 22.959 19.4717 22.9812 21.4149V21.4185Z" fill="#DC0C2C"/>
<path id="Path_2" d="M33.7015 20.4285C32.9812 20.6502 32.2017 20.761 31.4444 20.7795C29.4348 20.8275 27.4215 20.7979 25.4119 20.7979C24.7876 20.7979 24.7913 20.7942 24.7913 20.1552C24.7913 18.5925 24.806 17.0336 24.7839 15.471C24.7765 15.0757 24.8799 14.9464 25.2937 14.9538C27.0595 14.976 28.8216 14.9612 30.5874 14.9612C30.6649 14.9612 30.7425 14.9649 30.8201 14.9612C31.4296 14.9427 31.7658 14.6731 31.7769 14.1965C31.7879 13.6867 31.4739 13.3617 30.8681 13.3173C30.3953 13.2841 29.915 13.2989 29.4422 13.2989C25.0055 13.2989 20.5689 13.2989 16.1359 13.2989C15.9401 13.2989 15.7444 13.2841 15.5744 13.2767C15.5744 10.724 15.4045 8.23421 15.6151 5.77392C15.8958 2.50462 18.9028 0.00369413 22.1869 0C24.8873 0 27.5877 0 30.2881 0H30.8238V5.8478H30.2992C28.5186 5.84411 26.7418 5.83672 24.9612 5.84041C24.1559 5.84041 23.5353 6.15072 23.2028 6.92649C23.0181 7.36609 23.0809 7.4843 23.5537 7.48799C25.3491 7.49169 27.1444 7.47691 28.9398 7.49538C30.2586 7.50646 31.5995 7.41411 32.8888 7.61729C35.9586 8.09753 38.2822 10.724 38.4632 13.7163C38.6442 16.6938 36.6605 19.5235 33.7015 20.4285Z" fill="#DC0C2C"/>
<path id="Shape" fill-rule="evenodd" clip-rule="evenodd" d="M91.5848 7.23682C94.6176 6.90066 96.4573 8.57779 97.1814 11.2264C97.7946 13.4651 97.8131 15.7333 96.9191 17.935C96.4721 19.0248 95.785 19.9224 94.7211 20.495C92.7817 21.5368 90.5763 21.1563 89.1171 19.5198C89.0614 19.4562 89.0019 19.3944 88.9127 19.3017C88.8776 19.2653 88.8379 19.2242 88.792 19.1762V26.0251H82.9073V25.5375C82.9073 24.566 82.9074 23.5944 82.9075 22.6229C82.9081 17.7651 82.9086 12.9073 82.8962 8.04953C82.8962 7.61362 83.0366 7.50649 83.4429 7.51019C84.9464 7.52866 86.4499 7.52866 87.9534 7.52127C88.2785 7.51758 88.3746 7.6284 88.3598 7.94979C88.3418 8.36332 88.3453 8.77685 88.3491 9.22888C88.3507 9.42697 88.3524 9.63245 88.3524 9.84857C88.4519 9.68922 88.5433 9.53993 88.6303 9.39771C88.7794 9.15416 88.9157 8.93137 89.058 8.71447C89.6527 7.80202 90.5209 7.35504 91.5848 7.23682ZM88.6479 13.5722C88.6258 13.8678 88.611 14.167 88.6147 14.4625C88.6147 14.5253 88.6147 14.5918 88.6184 14.6583C88.6369 15.2346 88.7255 15.8109 88.9619 16.3687C89.1577 16.8341 89.5493 17.0336 90.0148 17.0521C90.4728 17.0706 90.9531 16.9671 91.1045 16.4647C91.2596 15.9677 91.372 15.4552 91.4713 15.0028C91.5093 14.8298 91.5454 14.6655 91.5811 14.5142C91.5477 14.2757 91.52 14.0552 91.494 13.8475C91.4365 13.3892 91.3868 12.9933 91.3003 12.6044C91.1562 11.9431 90.7721 11.5922 90.2216 11.5331C90.1847 11.5294 90.1477 11.5257 90.1108 11.5257C90.0369 11.522 89.9667 11.5257 89.9002 11.5331C89.8781 11.5331 89.8559 11.5368 89.8337 11.5405C89.8042 11.5441 89.7746 11.5478 89.7451 11.5552C89.3055 11.6254 89.0469 11.9062 88.8511 12.4972C88.7403 12.8408 88.6775 13.2102 88.6479 13.5722Z" fill="black"/>
<path id="Path_3" d="M112.83 20.1071C112.83 20.7388 112.83 20.7462 112.216 20.7462C110.728 20.7536 109.239 20.7499 107.75 20.7462C107.628 20.7462 107.51 20.7314 107.311 20.7167V18.7735C107.266 18.7625 107.226 18.7551 107.181 18.744C107.056 18.9546 106.945 19.1762 106.801 19.3683C105.087 21.6217 101.954 21.3705 100.406 20.1367C99.5308 19.4422 99.1577 18.4448 99.1429 17.3809C99.0949 14.1226 99.1245 10.8644 99.1245 7.51017H101.555C102.508 7.51386 103.461 7.53972 104.411 7.51386C104.832 7.50278 104.928 7.65054 104.924 8.04212C104.913 10.2586 104.913 12.4788 104.935 14.6989C104.939 15.2309 105.02 15.7628 105.105 16.2874C105.179 16.727 105.523 16.8674 105.922 16.8822C106.339 16.9043 106.709 16.7898 106.808 16.3317C106.897 15.9143 106.963 15.4858 106.967 15.0646C106.982 12.7078 106.989 10.3509 106.971 7.9941C106.967 7.60252 107.074 7.49908 107.455 7.50278C109.084 7.52494 110.709 7.52494 112.335 7.51017C112.7 7.51017 112.841 7.58405 112.837 7.98671C112.822 12.0281 112.83 16.0658 112.83 20.1071Z" fill="black"/>
<path id="Shape_2" fill-rule="evenodd" clip-rule="evenodd" d="M65.4969 7.61363C68.0126 8.32291 69.3831 10.0517 69.7414 12.597C69.9187 13.8641 69.8855 15.1311 69.5013 16.3687C68.6516 19.1245 66.5238 20.761 63.4762 21.0048C63.1939 21.0266 62.9115 21.0383 62.6571 21.0489C62.5653 21.0527 62.4771 21.0563 62.3938 21.0602C60.9642 21.0528 59.638 20.8681 58.3967 20.2623C56.3724 19.2759 55.3011 17.5877 55.0277 15.4341C54.8836 14.3147 54.9169 13.1363 55.0905 12.0207C55.4304 9.78209 56.8378 8.35246 58.9656 7.68013C61.123 6.99671 63.321 6.99671 65.4969 7.61363ZM60.5578 14.2372C60.5578 16.0731 61.3853 17.5619 62.4049 17.5619C63.4244 17.5619 64.2519 16.0731 64.2519 14.2372C64.2519 12.4012 63.4244 10.9124 62.4049 10.9124C61.3853 10.9124 60.5578 12.4012 60.5578 14.2372Z" fill="black"/>
<path id="Path_4" d="M134.248 17.5397C133.768 18.9693 132.719 19.819 131.378 20.3879C129.76 21.075 128.064 21.171 126.358 20.9789C125.22 20.8496 124.097 20.58 122.97 20.3583C122.867 20.3399 122.715 20.1995 122.711 20.1145C122.697 18.9583 122.7 17.802 122.7 16.6753C123.572 16.9487 124.403 17.2479 125.257 17.4695C126.247 17.7281 127.259 17.7355 128.267 17.5249C128.4 17.4954 128.57 17.4843 128.655 17.3993C128.818 17.2331 129.01 17.0336 129.04 16.8267C129.058 16.6753 128.87 16.3982 128.714 16.3391C128.186 16.1433 127.632 16.0177 127.089 15.8737C126.395 15.6853 125.682 15.5523 125.002 15.3158C123.288 14.7174 122.397 13.491 122.338 11.7399C122.287 10.1515 123.24 8.65907 124.74 7.97197C126.007 7.39568 127.355 7.24053 128.733 7.20728C130.214 7.17034 131.673 7.34396 133.11 7.68382C133.24 7.71338 133.443 7.85745 133.443 7.9498C133.469 9.05065 133.461 10.1478 133.461 11.1932C132.335 10.9863 131.274 10.7351 130.203 10.6132C129.594 10.543 128.955 10.6612 128.334 10.7388C127.965 10.7832 127.728 11.0381 127.721 11.4296C127.713 11.836 128.046 11.932 128.341 11.9948C129.076 12.1463 129.826 12.2239 130.554 12.4012C131.223 12.5637 131.906 12.7373 132.516 13.0403C134.171 13.8641 134.854 15.7222 134.248 17.5397Z" fill="black"/>
<path id="Path_5" d="M53.8308 16.7786C53.8308 17.8499 53.8308 18.9175 53.8049 19.9888C53.8049 20.144 53.6719 20.3989 53.5463 20.4395C50.8496 21.2596 48.1529 21.4258 45.5153 20.2252C43.635 19.3719 42.6708 17.7797 42.2238 15.844C41.9246 14.5289 41.9246 13.1953 42.2497 11.8839C42.8555 9.41624 44.481 7.95706 46.9339 7.45466C49.0617 7.01505 51.2006 7.1111 53.3173 7.62459C53.635 7.69847 53.7384 7.88317 53.7384 8.17501V11.544C53.0107 11.3815 52.294 11.1451 51.5589 11.0712C50.543 10.9678 49.5715 11.1155 48.8585 11.9947C47.5545 13.6054 48.3228 16.5385 50.2327 17.0889C51.341 17.4066 52.4196 17.1702 53.454 16.701C53.55 16.6567 53.6424 16.6087 53.7606 16.5496C53.7902 16.6382 53.8308 16.7084 53.8308 16.7786Z" fill="black"/>
<path id="Path_6" d="M120.816 1.7251H114.998V20.7276H120.816V1.7251Z" fill="black"/>
<path id="Path_7" d="M81.5072 7.58029C81.5035 9.18723 81.5072 10.7941 81.5035 12.4011C81.5035 12.4454 81.4777 12.4897 81.4518 12.5636C81.2154 12.5341 80.979 12.5045 80.7425 12.4713C78.6073 12.1794 77.3328 14.0634 77.2774 15.4783C77.2183 17.0815 77.2183 18.6885 77.2146 20.2954C77.2109 20.6168 77.1518 20.7535 76.7824 20.7498C75.1422 20.7313 73.4983 20.735 71.8582 20.7572C71.474 20.7609 71.4075 20.6353 71.4075 20.2807C71.4333 16.3169 71.4481 12.3531 71.4518 8.3893C71.4518 7.52487 71.4333 7.52118 72.3051 7.52118C73.672 7.52118 75.0388 7.53226 76.4056 7.51379C76.7455 7.5101 76.8674 7.61353 76.86 7.95709C76.8415 8.7033 76.8526 9.44951 76.8526 10.1994C76.8859 10.2068 76.9191 10.2179 76.9524 10.2289C77.1666 9.84848 77.3587 9.45321 77.5951 9.08749C78.4115 7.8241 79.5124 7.08527 81.0861 7.23304C81.3262 7.2552 81.5072 7.28106 81.5072 7.58029Z" fill="black"/>
<path id="Shape_3" fill-rule="evenodd" clip-rule="evenodd" d="M134.37 6.68626C134.389 5.0867 135.567 3.9563 137.211 3.9563C138.714 3.9563 140.011 5.19014 140 6.61238C139.989 8.19716 138.748 9.4273 137.159 9.4273C135.593 9.42361 134.352 8.20454 134.37 6.68626ZM135.02 6.58652C135.006 7.88685 135.903 8.8621 137.13 8.88057C138.389 8.89904 139.339 7.96443 139.342 6.69734C139.35 5.48567 138.386 4.47348 137.204 4.45501C136.036 4.43284 135.035 5.41179 135.02 6.58652Z" fill="black"/>
<path id="Path_8" d="M90.1479 11.5256C90.1737 11.5256 90.1996 11.5293 90.2217 11.533C90.1848 11.5293 90.1479 11.5256 90.1109 11.5256H90.1479Z" fill="white"/>
<path id="Path_9" d="M91.655 14.5882C91.6254 15.4822 91.607 16.0769 91.1674 16.5904C91.0676 16.7086 90.6539 17.2147 90.0517 17.1926C89.5715 17.1741 89.1688 16.9709 88.9693 16.4907C88.7181 15.8922 88.6295 15.279 88.6184 14.6584C88.6369 15.2347 88.7255 15.811 88.962 16.3688C89.1578 16.8342 89.5493 17.0337 90.0148 17.0522C90.4729 17.0707 90.9531 16.9672 91.1046 16.4648C91.3188 15.7777 91.4518 15.0611 91.5811 14.5143C91.474 13.7496 91.4259 13.1697 91.3003 12.6045C91.1563 11.9432 90.7721 11.5923 90.2217 11.5332C90.4618 11.5516 90.6686 11.6181 90.8386 11.7437C91.1009 11.9247 91.2338 12.1907 91.3705 12.634C91.6771 13.6499 91.6587 14.5032 91.655 14.5882Z" fill="white"/>
<path id="Shape_4" fill-rule="evenodd" clip-rule="evenodd" d="M136.775 6.93018C136.775 6.93018 136.76 6.96712 136.753 6.98559H136.908C136.86 6.96712 136.816 6.94865 136.775 6.93018ZM137.222 7.15922C137.174 7.09641 137.089 7.05578 137 7.01884L137.484 7.63206L137.458 7.57682L137.458 7.57682C137.39 7.43156 137.32 7.28375 137.222 7.15922ZM136.627 8.10491H136.468C136.531 8.04211 136.59 7.97931 136.627 7.90912V8.10491Z" fill="white"/>
<path id="Path_10" d="M137.883 5.97718C137.909 6.32073 137.676 6.37984 137.466 6.39831C137.506 6.32812 137.525 6.24315 137.525 6.14711C137.525 5.91068 137.337 5.70012 136.997 5.70012H136.716C136.76 5.61146 136.845 5.55974 137.034 5.58191C137.362 5.61885 137.85 5.5228 137.883 5.97718Z" fill="white"/>
<path id="Shape_5" fill-rule="evenodd" clip-rule="evenodd" d="M137.928 6.13228C137.928 6.52016 137.713 6.78983 137.377 6.90066L138.134 7.82788V8.10494H137.861L137.817 8.04953L137.488 7.63209H137.484L137 7.01887L136.975 6.98562H136.627V8.10494H136.225V5.34912H137C137.569 5.34912 137.928 5.65943 137.928 6.13228ZM136.627 6.65315H136.997C137.222 6.65315 137.388 6.5571 137.466 6.39826C137.506 6.32807 137.525 6.2431 137.525 6.14706C137.525 5.91063 137.337 5.70007 136.997 5.70007H136.627V6.65315Z" fill="black"/>
</g>
</svg>
