<svg width="141" height="42" viewBox="0 0 141 42" fill="none" xmlns="http://www.w3.org/2000/svg">
<g id="Expert college">
<path id="Path" d="M33.5272 4.52923L20.6331 17.4277L7.73462 4.52923C11.2664 1.69563 15.7457 0 20.6286 0C25.5115 0 29.9954 1.69563 33.5272 4.52923Z" fill="#519ACD"/>
<path id="Path_2" d="M17.4278 20.6332L4.52923 33.5272C1.69563 29.9954 0 25.5115 0 20.6287C0 15.7458 1.69563 11.2665 4.52923 7.73462L17.4278 20.6332Z" fill="#3481B9"/>
<path id="Path_3" d="M33.5226 36.7281C29.9908 39.5617 25.5115 41.2573 20.6286 41.2573C15.7458 41.2573 11.2664 39.5662 7.73914 36.7281L20.6332 23.8386L33.5226 36.7281Z" fill="#2577AF"/>
<path id="Path_4" d="M141 20.6288C141 25.5116 139.304 29.991 136.471 33.5228L123.581 20.6333L136.471 7.73926C139.309 11.2666 141 15.7504 141 20.6288Z" fill="#3481B9"/>
<path id="Path_5" d="M28.3813 24.8812V15.3513H35.4495V16.9653H30.3082V19.078H35.0913V20.683H30.3082V23.2763H35.6308V24.8812H28.3813Z" fill="black"/>
<path id="Path_6" d="M36.5965 24.8814L39.0855 21.327L36.7008 17.981H38.9314L40.1555 19.8807L41.4431 17.981H43.5876L41.2482 21.2499L43.8007 24.886H41.5565L40.151 22.746L38.7319 24.886H36.592L36.5965 24.8814Z" fill="black"/>
<path id="Shape" fill-rule="evenodd" clip-rule="evenodd" d="M46.7612 17.9764H45.0565L45.052 17.981V27.5109H46.8791V24.0335C47.2237 24.4008 47.5501 24.6637 47.8584 24.8133C48.1712 24.9629 48.5158 25.04 48.8966 25.04C49.6991 25.04 50.3837 24.7181 50.9459 24.0789C51.5126 23.4396 51.7937 22.5102 51.7937 21.3903C51.7937 20.2705 51.5126 19.3955 50.955 18.7653C50.3973 18.1351 49.7172 17.8223 48.9148 17.8223C48.4523 17.8223 48.0352 17.9311 47.6589 18.1487C47.2826 18.3618 46.9834 18.6429 46.7612 18.992V17.9764ZM47.3279 23.0316C47.0197 22.6598 46.8655 22.0885 46.8655 21.3133C46.8655 20.6377 47.0151 20.1254 47.3098 19.7809C47.6045 19.4363 47.9899 19.264 48.4206 19.264C48.8513 19.264 49.2095 19.4408 49.4996 19.7899C49.7898 20.1436 49.9349 20.6785 49.9349 21.4039C49.9349 22.1792 49.7943 22.7369 49.5132 23.0769C49.2321 23.4215 48.8921 23.5892 48.4523 23.5892C48.0125 23.5892 47.6362 23.4033 47.3279 23.0316Z" fill="black"/>
<path id="Shape_2" fill-rule="evenodd" clip-rule="evenodd" d="M59.2834 22.9908L57.4653 22.687C57.3611 23.0316 57.216 23.2809 57.021 23.4396C56.8261 23.5983 56.5858 23.6754 56.3002 23.6754C55.8831 23.6754 55.5294 23.5257 55.2483 23.222C54.9627 22.9182 54.8176 22.5011 54.804 21.9571H59.3786C59.4058 20.5561 59.1202 19.5179 58.5262 18.8378C57.9323 18.1623 57.1253 17.8223 56.0961 17.8223C55.1849 17.8223 54.4277 18.1442 53.8293 18.7925C53.2308 19.4408 52.9316 20.3385 52.9316 21.481C52.9316 22.4376 53.1628 23.231 53.6162 23.8612C54.192 24.6456 55.0806 25.0355 56.282 25.0355C57.0392 25.0355 57.6739 24.8632 58.1771 24.5141C58.6804 24.165 59.0476 23.6572 59.2834 22.9908ZM57.1616 19.6358C57.42 19.9123 57.556 20.3113 57.5696 20.8418H54.8403C54.8403 20.343 54.9672 19.9486 55.2257 19.6584C55.4841 19.3683 55.815 19.2232 56.214 19.2232C56.5858 19.2232 56.9031 19.3592 57.1616 19.6358Z" fill="black"/>
<path id="Path_7" d="M62.847 24.8812H61.0199V17.9763H62.7155V18.9556C63.0057 18.4932 63.2686 18.1849 63.4999 18.0398C63.7311 17.8947 63.994 17.8176 64.2887 17.8176C64.7058 17.8176 65.1048 17.931 65.4902 18.1622L64.9235 19.7536C64.6152 19.5541 64.3295 19.4543 64.0666 19.4543C63.8036 19.4543 63.5951 19.5269 63.4183 19.6674C63.2414 19.808 63.1009 20.0619 63.0012 20.4336C62.9014 20.8009 62.847 21.5716 62.847 22.7458V24.8767V24.8812Z" fill="black"/>
<path id="Path_8" d="M69.6702 17.9765V19.4319H68.4234V22.2156C68.4234 22.7778 68.437 23.1087 68.4597 23.1994C68.4824 23.2946 68.5368 23.3717 68.6229 23.4306C68.7091 23.4896 68.8088 23.5213 68.9312 23.5213C69.099 23.5213 69.3438 23.4624 69.6657 23.3445L69.8198 24.7636C69.3937 24.9449 68.9131 25.0356 68.3781 25.0356C68.0471 25.0356 67.7525 24.9812 67.485 24.8678C67.222 24.759 67.027 24.6139 66.9046 24.4371C66.7822 24.2603 66.6961 24.0246 66.6462 23.7253C66.6099 23.5122 66.5873 23.0815 66.5873 22.4377V19.4273H65.7485V17.972H66.5873V16.6028L68.4189 15.5374V17.9765H69.6657H69.6702Z" fill="black"/>
<path id="Path_9" d="M77.2779 21.3766L79.1413 21.9706C78.8556 23.0088 78.3796 23.7841 77.7131 24.2873C77.0467 24.7906 76.2034 25.0444 75.1788 25.0444C73.9138 25.0444 72.8711 24.6137 72.0595 23.7478C71.2434 22.8818 70.8354 21.6985 70.8354 20.2024C70.8354 18.6156 71.2434 17.3824 72.0641 16.5074C72.8847 15.6278 73.9592 15.1926 75.2966 15.1926C76.4618 15.1926 77.4094 15.5371 78.1393 16.2263C78.5745 16.6343 78.8964 17.2192 79.1141 17.9808L77.2099 18.4342C77.0965 17.94 76.8608 17.5501 76.5026 17.2645C76.1444 16.9789 75.7092 16.8338 75.2014 16.8338C74.4942 16.8338 73.9229 17.0877 73.4831 17.5955C73.0434 18.1033 72.8212 18.9239 72.8212 20.0573C72.8212 21.2633 73.0388 22.1202 73.4695 22.6325C73.9002 23.1448 74.467 23.3987 75.1606 23.3987C75.6729 23.3987 76.1127 23.2355 76.4799 22.909C76.8472 22.5826 77.1147 22.0748 77.2734 21.3766H77.2779Z" fill="black"/>
<path id="Shape_3" fill-rule="evenodd" clip-rule="evenodd" d="M81.0319 19.5677C80.7327 20.1389 80.5831 20.7238 80.5831 21.3313V21.3268C80.5831 22.1202 80.7327 22.7912 81.0319 23.3443C81.3312 23.8929 81.7709 24.3145 82.3422 24.6001C82.9134 24.8858 83.5164 25.0309 84.1512 25.0309C85.1713 25.0309 86.0191 24.6908 86.6946 24.0017C87.3701 23.3126 87.7056 22.4375 87.7056 21.4038C87.7056 20.3701 87.3701 19.5133 86.7037 18.8332C86.0372 18.1577 85.1803 17.8176 84.1376 17.8176C83.462 17.8176 82.85 17.9673 82.3014 18.2665C81.7528 18.5657 81.3312 19.001 81.0319 19.5677ZM82.9407 22.9997C82.6188 22.637 82.4555 22.1111 82.4555 21.4265C82.4555 20.7419 82.6142 20.216 82.9407 19.8533C83.2626 19.4906 83.6615 19.3092 84.1421 19.3092C84.6227 19.3092 85.0217 19.4906 85.3435 19.8533C85.6654 20.216 85.8287 20.7192 85.8287 21.4129C85.8287 22.1066 85.67 22.637 85.3435 22.9997C85.0171 23.3624 84.6181 23.5438 84.1421 23.5438C83.6661 23.5438 83.2671 23.3624 82.9407 22.9997Z" fill="black"/>
<path id="Path_10" d="M89.365 24.8812V15.3513H91.1921V24.8812H89.365Z" fill="black"/>
<path id="Path_11" d="M93.2913 24.8812V15.3513H95.1184V24.8812H93.2913Z" fill="black"/>
<path id="Shape_4" fill-rule="evenodd" clip-rule="evenodd" d="M103.034 22.9908L101.216 22.687C101.112 23.0316 100.967 23.2809 100.772 23.4396C100.577 23.5983 100.337 23.6754 100.051 23.6754C99.634 23.6754 99.2803 23.5257 98.9992 23.222C98.7136 22.9182 98.5685 22.5011 98.5549 21.9571H103.13C103.157 20.5561 102.871 19.5179 102.277 18.8378C101.683 18.1623 100.876 17.8223 99.8471 17.8223C98.9358 17.8223 98.1786 18.1442 97.5802 18.7925C96.9817 19.4408 96.6825 20.3385 96.6825 21.481C96.6825 22.4376 96.9137 23.231 97.3671 23.8612C97.9429 24.6456 98.8315 25.0355 100.033 25.0355C100.79 25.0355 101.425 24.8632 101.928 24.5141C102.431 24.165 102.799 23.6572 103.034 22.9908ZM100.912 19.6358C101.171 19.9123 101.307 20.3113 101.321 20.8418H98.5912C98.5912 20.343 98.7182 19.9486 98.9766 19.6584C99.235 19.3683 99.566 19.2232 99.9649 19.2232C100.337 19.2232 100.654 19.3592 100.912 19.6358Z" fill="black"/>
<path id="Shape_5" fill-rule="evenodd" clip-rule="evenodd" d="M106.766 25.5931L104.68 25.3392L104.676 25.3438C104.671 25.4299 104.671 25.507 104.671 25.5659C104.671 26.178 104.916 26.6903 105.405 27.0893C105.895 27.4928 106.725 27.6923 107.894 27.6923C108.516 27.6923 109.028 27.6288 109.431 27.4973C109.835 27.3658 110.157 27.1845 110.402 26.9578C110.646 26.7311 110.832 26.4137 110.968 26.0102C111.104 25.6067 111.172 24.9992 111.172 24.1831V17.9855H109.463V18.9557C108.91 18.2076 108.176 17.8313 107.35 17.8313C106.525 17.8313 105.832 18.1351 105.274 18.7472C104.716 19.3592 104.44 20.2433 104.44 21.3994C104.44 22.3198 104.653 23.0905 105.079 23.7116C105.619 24.496 106.353 24.8859 107.282 24.8859C108.112 24.8859 108.806 24.5096 109.35 23.766V24.7725C109.35 25.1806 109.318 25.4617 109.264 25.6113C109.182 25.8244 109.06 25.9785 108.901 26.0737C108.661 26.2143 108.303 26.2868 107.826 26.2868C107.45 26.2868 107.178 26.2233 107.006 26.0918C106.879 26.0012 106.802 25.838 106.766 25.5931ZM106.738 22.9001C106.453 22.56 106.312 22.0251 106.312 21.2906L106.308 21.2951C106.308 20.6015 106.448 20.0801 106.734 19.74C107.019 19.4 107.364 19.2277 107.817 19.2277C108.271 19.2277 108.643 19.4045 108.937 19.7491C109.236 20.0937 109.382 20.6559 109.382 21.3405C109.382 22.0251 109.227 22.5419 108.919 22.891C108.615 23.2401 108.235 23.4124 107.79 23.4124C107.373 23.4124 107.024 23.2401 106.738 22.9001Z" fill="black"/>
<path id="Shape_6" fill-rule="evenodd" clip-rule="evenodd" d="M119.025 22.9908L117.207 22.687C117.103 23.0316 116.957 23.2809 116.763 23.4396C116.568 23.5983 116.327 23.6754 116.042 23.6754C115.625 23.6754 115.271 23.5257 114.99 23.222C114.704 22.9182 114.559 22.5011 114.546 21.9571H119.12C119.147 20.5561 118.862 19.5179 118.268 18.8378C117.674 18.1623 116.867 17.8223 115.838 17.8223C114.926 17.8223 114.169 18.1442 113.571 18.7925C112.972 19.4408 112.673 20.3385 112.673 21.481C112.673 22.4376 112.904 23.231 113.358 23.8612C113.933 24.6456 114.822 25.0355 116.024 25.0355C116.781 25.0355 117.415 24.8632 117.919 24.5141C118.422 24.165 118.789 23.6572 119.025 22.9908ZM116.903 19.6358C117.161 19.9123 117.298 20.3113 117.311 20.8418H114.582C114.582 20.343 114.709 19.9486 114.967 19.6584C115.226 19.3683 115.557 19.2232 115.956 19.2232C116.327 19.2232 116.645 19.3592 116.903 19.6358Z" fill="black"/>
</g>
</svg>
