<svg width="154" height="24" viewBox="0 0 154 24" fill="none" xmlns="http://www.w3.org/2000/svg">
<g id="Getinge">
<path id="Path" d="M101.937 15.0138C101.733 16.8139 100.178 18.1125 98.3588 18.138C95.3893 18.1771 92.4163 18.1822 89.4468 18.1363C87.4342 18.1057 85.8806 16.5606 85.8024 14.5022C85.731 12.5814 85.7327 10.6555 85.799 8.73473C85.8738 6.57769 87.5039 5.05637 89.6643 5.04787C93.0877 5.03427 96.5111 5.04277 99.9345 5.04447C100.125 5.04447 100.315 5.06656 100.621 5.08526C100.281 5.72269 100.023 6.31762 99.6558 6.83605C99.5232 7.02303 99.1305 7.09782 98.8552 7.09952C96.195 7.11822 93.5365 7.10972 90.8763 7.11142C89.1969 7.11142 88.5544 7.74545 88.551 9.39935C88.5476 10.9258 88.5408 12.4522 88.5544 13.9786C88.5646 15.2756 89.2275 15.998 90.5244 16.0167C92.7869 16.0524 95.051 16.0507 97.3134 16.0184C98.6597 15.9997 99.3192 15.279 99.3379 13.9361C99.343 13.5707 99.3379 13.2052 99.3379 12.7038H94.2776V10.7116H101.969C101.969 12.1547 102.098 13.5996 101.937 15.0138Z" fill="#050038"/>
<path id="Path_2" d="M16.1599 14.8643C15.9627 16.7953 14.4057 18.1211 12.4509 18.1432C9.5647 18.1755 6.68014 18.1789 3.79559 18.1449C1.54335 18.1177 0.00843495 16.4978 0.00503536 14.2337C0.00163576 12.4251 -0.00516343 10.6165 0.00673515 8.80799C0.0203336 6.76484 1.59605 5.08034 3.61541 5.05824C7.20708 5.01744 10.8004 5.04464 14.3921 5.04634C14.4975 5.04634 14.6029 5.07694 14.8119 5.10753C14.4788 5.72796 14.2187 6.32289 13.8499 6.83793C13.7139 7.02661 13.3178 7.098 13.039 7.0997C10.3517 7.1184 7.66433 7.1082 4.97695 7.1133C3.39613 7.115 2.72471 7.79491 2.71961 9.39612C2.71281 10.8375 2.71281 12.2789 2.71961 13.7204C2.72641 15.3352 3.41653 16.0202 5.06363 16.0287C7.09999 16.0372 9.13635 16.0355 11.1727 16.0287C12.9099 16.0219 13.5524 15.3556 13.5456 13.5929V12.6988H8.48023V10.7083H16.1854C16.1854 12.1141 16.2976 13.5011 16.1599 14.8643Z" fill="#050038"/>
<path id="Path_3" d="M119.963 15.9862V18.0786H106.89V5.11255H119.926C119.569 5.73807 119.266 6.3585 118.87 6.90924C118.753 7.07242 118.367 7.09111 118.104 7.09281C115.613 7.10641 113.125 7.10131 110.635 7.10131H109.671V10.2936H118.304V12.2772H109.678V15.9862H119.963Z" fill="#050038"/>
<path id="Path_4" d="M34.1642 16.0015V18.099H21.0945V5.11255H34.1523C33.8056 5.73128 33.5557 6.30411 33.1834 6.78175C33.022 6.98913 32.6106 7.08431 32.3132 7.08771C29.738 7.10981 27.1628 7.11831 24.5876 7.08771C23.9654 7.08092 23.7224 7.2475 23.7649 7.89682C23.8176 8.67533 23.7785 9.46063 23.7785 10.314H32.4882V12.2755H23.8499V16.0015H34.1642Z" fill="#050038"/>
<path id="Path_5" d="M81.1467 18.0785H78.4338V17.1742C78.4338 14.5192 78.4372 11.8624 78.4321 9.2056C78.4287 7.82197 77.7284 7.10975 76.3532 7.10635C74.0347 7.10125 71.7162 7.13695 69.3976 7.09446C68.6684 7.08256 68.4254 7.26274 68.4373 8.03104C68.4815 11.0261 68.456 14.0211 68.456 17.0162V18.087H65.7499V5.0547C69.8124 5.0547 73.7984 5.0088 77.781 5.0768C79.5012 5.10569 81.0787 6.64741 81.1229 8.35231C81.2044 11.5683 81.1467 14.7877 81.1467 18.0785Z" fill="#050038"/>
<path id="Path_6" d="M144.105 6.39762C144.01 9.72922 140.522 11.7826 137.578 10.2324C135.856 9.32637 134.202 8.29119 132.504 7.33761C132.028 7.06904 132.051 6.78857 132.297 6.37892C132.809 5.53412 133.315 4.68592 133.774 3.81223C134.048 3.29039 134.318 3.2071 134.831 3.51986C136.157 4.32727 137.512 5.08538 138.857 5.86048C139.094 5.99647 139.343 6.11545 139.773 6.34153C139.773 4.43945 139.807 2.72266 139.757 1.00586C139.734 0.229049 139.97 -0.0531177 140.764 0.00807527C141.634 0.0743673 142.514 0.0403713 143.39 0.0165743C143.907 0.00297627 144.085 0.223949 144.085 0.72369C144.083 2.61557 144.16 4.50744 144.105 6.39762Z" fill="#050038"/>
<path id="Path_7" d="M154 14.7028C153.334 15.857 152.723 16.9568 152.057 18.0225C151.974 18.1551 151.537 18.218 151.367 18.1262C149.611 17.1641 147.821 16.2463 146.145 15.1567C143.565 13.4773 143.502 9.60851 146.048 7.88322C147.865 6.65426 149.825 5.63608 151.877 4.43433C152.587 5.67178 153.283 6.84634 153.915 8.0532C153.968 8.15518 153.638 8.55124 153.412 8.68722C152.01 9.52862 150.583 10.3361 149.167 11.1571C149.006 11.2505 148.855 11.3593 148.576 11.5395C150.42 12.6138 152.159 13.6286 154 14.7028Z" fill="#050038"/>
<path id="Path_8" d="M144.129 22.2738C144.138 22.8263 143.952 23.032 143.397 23.015C142.407 22.9844 141.415 22.981 140.425 23.015C139.864 23.0354 139.678 22.828 139.686 22.2806C139.708 20.7542 139.693 19.2278 139.693 17.6997V16.5574C138.039 17.5127 136.55 18.3167 135.125 19.221C134.381 19.6936 134.015 19.5712 133.643 18.8063C133.189 17.8731 132.625 16.9926 132.1 16.0713C132.28 15.92 132.394 15.7925 132.533 15.7109C134.134 14.7556 135.72 13.7698 137.35 12.8638C140.522 11.0994 144.09 13.2088 144.117 16.843C144.131 18.6533 144.104 20.4636 144.129 22.2721V22.2738Z" fill="#050038"/>
<path id="Path_9" d="M53.3057 5.11768C52.9963 5.66501 52.7838 6.16985 52.4524 6.5761C52.2433 6.83107 51.8591 7.07074 51.543 7.08774C50.4143 7.14553 49.2805 7.10474 48.1485 7.10134C47.8459 7.09964 47.545 7.10134 47.1643 7.10134V18.0939H44.3868V7.11494H38.2488V5.11768H53.3057Z" fill="#050038"/>
<path id="Path_10" d="M60.302 5.09888H57.6198V18.1091H60.302V5.09888Z" fill="#050038"/>
</g>
</svg>
