<svg width="102" height="52" viewBox="0 0 102 52" fill="none" xmlns="http://www.w3.org/2000/svg">
<g id="Greiner">
<path id="Shape" fill-rule="evenodd" clip-rule="evenodd" d="M17.3379 26.7472C17.3382 26.9542 17.3386 27.1612 17.3386 27.3682C17.3386 28.5333 17.338 29.6982 17.3374 30.8631C17.3358 33.7746 17.3343 36.6857 17.3423 39.5977C17.346 40.8602 17.0973 42.0596 16.557 43.1977C16.0501 44.2671 15.2852 45.1211 14.2919 45.7561C13.4583 46.2889 12.5523 46.6844 11.585 46.9146C10.4691 47.1783 9.33841 47.2562 8.19288 47.1578C7.54864 47.1021 6.90439 47.0335 6.28057 46.8756C5.33926 46.638 4.46479 46.2444 3.67944 45.654C2.93123 45.0877 2.31112 44.4156 1.8154 43.6228C1.66501 43.3815 1.67058 43.3109 1.93794 43.1791C2.25786 43.0205 2.56491 42.8402 2.87211 42.6597C2.98564 42.593 3.0992 42.5263 3.21343 42.4606C3.5699 42.2564 3.92823 42.0503 4.28099 41.8386C4.53163 41.6901 4.6486 41.7124 4.80084 41.9556C5.43023 42.9637 6.30284 43.66 7.4688 43.918C8.19659 44.0777 8.94853 44.1056 9.70046 44.0666C10.575 44.022 11.4012 43.8011 12.1512 43.3555C12.9403 42.8876 13.4267 42.1803 13.7201 41.3114C13.902 40.7711 13.9707 40.2234 13.9837 39.6645C13.9914 39.2693 13.9894 38.8732 13.9874 38.4799C13.9865 38.3023 13.9856 38.1252 13.9856 37.949C13.8767 37.9186 13.8439 37.9754 13.8144 38.0265C13.8061 38.0408 13.7981 38.0547 13.7888 38.066C13.1185 38.8922 12.3109 39.5457 11.3343 39.9727C10.2797 40.4369 9.16761 40.5966 8.02207 40.539C7.16988 40.4963 6.34183 40.3385 5.54906 40.0191C4.86025 39.7425 4.23272 39.3638 3.64231 38.9126C3.22272 38.5933 2.85882 38.2182 2.49864 37.8432C2.08647 37.4125 1.77827 36.8963 1.4775 36.3857C1.17672 35.8733 0.953929 35.3219 0.801686 34.7445C0.734848 34.4939 0.675436 34.2414 0.627164 33.9889C0.619738 33.9424 0.612311 33.896 0.604885 33.8515L0.588175 33.7401C0.573322 33.6342 0.562183 33.5266 0.552899 33.417C0.564039 33.2889 0.558469 33.1645 0.443359 33.0754V31.6551C0.510198 31.4991 0.571466 31.3413 0.586319 31.1705C0.64573 30.4279 0.866668 29.7279 1.15259 29.0428C1.43294 28.3763 1.83025 27.784 2.26099 27.2085C2.82911 26.4491 3.54391 25.8569 4.34226 25.3574C4.95123 24.9768 5.59919 24.6891 6.28985 24.4941C7.38897 24.1841 8.51036 24.1135 9.63176 24.2992C10.7792 24.4923 11.8653 24.8803 12.7676 25.6508C13.1241 25.9553 13.4731 26.2802 13.7553 26.6626L13.7572 26.6653C13.8102 26.7384 13.8552 26.8005 13.9874 26.839C13.9874 26.6306 13.9869 26.4257 13.9865 26.2232C13.9857 25.8252 13.9849 25.4363 13.9874 25.0474C13.9892 24.8014 13.9736 24.696 14.0183 24.6518C14.0621 24.6087 14.1637 24.6241 14.3959 24.6241C14.7939 24.6216 15.192 24.6221 15.5899 24.6226C16.0865 24.6231 16.5829 24.6237 17.0787 24.6185C17.2848 24.6166 17.3442 24.6779 17.3442 24.884C17.3358 25.5051 17.3368 26.1261 17.3379 26.7472ZM8.72944 37.3345C10.1683 37.3865 11.4049 36.9483 12.4223 36.02C13.5121 35.0267 14.0004 33.7289 13.9651 32.2659C13.9354 30.9737 13.5028 29.8133 12.5745 28.8832C12.2311 28.5415 11.8616 28.2185 11.3974 28.018C10.8906 27.8007 10.3725 27.6559 9.83599 27.5204C9.02279 27.3162 8.23373 27.3886 7.47994 27.5965C6.15617 27.9604 5.12946 28.7755 4.47036 30.0101C3.92452 31.035 3.84097 32.1211 3.99321 33.2499C4.19187 34.7241 5.00507 35.8176 6.19887 36.6067C6.95637 37.108 7.82898 37.4013 8.72944 37.3345Z" fill="black"/>
<path id="Path" d="M101.443 24.3159V28.0254C100.682 28.0105 99.9301 28.083 99.2078 28.3392C98.3742 28.6325 97.7374 29.1765 97.2602 29.9117C97.0523 30.2329 96.8759 30.5764 96.7905 30.9551C96.681 31.4379 96.6346 31.9299 96.6346 32.4256C96.6346 34.9617 96.6346 37.4979 96.6346 40.034C96.6346 40.4889 96.7014 40.4647 96.2224 40.4647C95.3145 40.4647 94.4085 40.4647 93.5024 40.4647C93.2221 40.4647 93.2221 40.4573 93.2147 40.1844C93.2128 40.0916 93.2147 40.0006 93.2147 39.9078V25.519C93.2147 25.3352 93.2147 25.1514 93.2147 24.9676C93.2147 24.6018 93.185 24.6278 93.5544 24.6278C94.4883 24.6278 95.4203 24.6278 96.3542 24.6278C96.6327 24.6278 96.6364 24.6334 96.6364 24.9026C96.6383 25.6248 96.6364 26.347 96.6364 27.1119C96.8035 26.9987 96.8184 26.8353 96.8945 26.7109C97.509 25.7083 98.3649 24.9991 99.4882 24.6334C100.121 24.4273 100.78 24.353 101.445 24.3196L101.443 24.3159Z" fill="black"/>
<path id="Path_2" d="M0.552796 33.417C0.53423 33.4244 0.515664 33.4337 0.498955 33.443C0.480388 33.4523 0.461822 33.4597 0.443256 33.469V33.0754C0.558366 33.1645 0.563936 33.2889 0.552796 33.4189V33.417Z" fill="#1E9BD8"/>
<path id="Shape_2" fill-rule="evenodd" clip-rule="evenodd" d="M45.6276 27.7895C45.9154 28.2518 46.1623 28.7308 46.3535 29.2395C46.8827 30.658 47.1296 32.1117 46.9161 33.6249C46.9149 33.634 46.9137 33.6429 46.9125 33.6516C46.8644 34 46.8641 34.0018 46.4891 34.0018C44.5359 34.0027 42.5832 34.0027 40.6306 34.0027C38.6779 34.0027 36.7252 34.0027 34.772 34.0036C34.7353 34.0036 34.6982 34.0018 34.661 34C34.5421 33.9943 34.4215 33.9884 34.3041 34.0407C34.3709 34.7685 34.707 35.3794 35.147 35.9215C35.7838 36.705 36.5766 37.2787 37.5829 37.5163C39.109 37.8728 40.5924 37.8115 41.9868 37.0355C42.4509 36.7793 42.8835 36.4562 43.201 36.0125C43.3514 35.8045 43.4368 35.7655 43.6447 35.9029C43.9064 36.0769 44.181 36.2283 44.4562 36.3799C44.5422 36.4274 44.6284 36.4748 44.7141 36.523C44.906 36.6302 45.0949 36.7431 45.2841 36.8562C45.4685 36.9664 45.6533 37.0767 45.8411 37.1821C46.2106 37.3882 46.2291 37.4458 45.9562 37.793C45.4642 38.4205 44.8979 38.9738 44.2426 39.4305C43.6002 39.8779 42.8947 40.227 42.1557 40.4554C41.0195 40.8044 39.8405 40.9325 38.643 40.8471C37.9672 40.7988 37.2858 40.7431 36.6379 40.5556C36.0215 40.3755 35.3976 40.1824 34.8388 39.826C34.7278 39.7547 34.6155 39.6854 34.5031 39.6161C34.2209 39.4422 33.9387 39.2682 33.6784 39.061C33.1344 38.6284 32.6443 38.1402 32.2414 37.5776C31.8088 36.9742 31.4208 36.3429 31.1831 35.6263C30.9622 34.9635 30.8211 34.2914 30.7375 33.5989C30.6224 32.6371 30.68 31.6791 30.8378 30.7323C30.99 29.8244 31.3186 28.974 31.7977 28.1775C32.0539 27.7542 32.3249 27.3402 32.6443 26.9707C33.01 26.5493 33.4129 26.1483 33.8696 25.8215C34.5492 25.3332 35.2788 24.9099 36.0734 24.6574C36.9553 24.3789 37.8706 24.2378 38.8045 24.2044C39.8201 24.1691 40.7985 24.3566 41.7398 24.6722C42.683 24.9879 43.55 25.478 44.2723 26.1965C44.768 26.6923 45.2544 27.1861 45.6276 27.7895ZM43.3031 31.1983C43.4294 31.2113 43.4442 31.1351 43.4572 31.033V31.0349C43.4799 30.8589 43.4184 30.7049 43.3571 30.5516C43.333 30.4915 43.309 30.4314 43.2901 30.3702C42.8241 28.8348 41.7658 27.8991 40.2508 27.4813C39.4265 27.2548 38.5929 27.2919 37.7444 27.4627C36.4689 27.7171 35.5536 28.4375 34.8722 29.4902C34.5492 29.9915 34.2799 30.5336 34.2781 31.1648C34.373 31.2072 34.4667 31.2037 34.5583 31.2002C34.5833 31.1993 34.6081 31.1983 34.6327 31.1983H43.1063C43.1279 31.1983 43.1497 31.1977 43.1716 31.1971C43.2155 31.1959 43.2597 31.1946 43.3031 31.1983Z" fill="black"/>
<path id="Shape_3" fill-rule="evenodd" clip-rule="evenodd" d="M89.6499 28.7104C89.9989 29.5403 90.3015 30.3776 90.4352 31.2651C90.5633 32.1099 90.567 32.9546 90.4055 33.8012C90.3721 33.985 90.3015 34.011 90.1567 34.0036C90.0961 34.0012 90.0347 34.002 89.9731 34.0028C89.9421 34.0032 89.9111 34.0036 89.8801 34.0036C88.5924 34.0036 87.3043 34.0034 86.0163 34.0032C83.4399 34.0028 80.8633 34.0024 78.2874 34.0036C78.2538 34.0036 78.22 34.0018 78.186 33.9999C78.0758 33.9939 77.9638 33.9877 77.8473 34.0445C77.8258 34.4579 78.013 34.8187 78.1923 35.1644C78.1974 35.1742 78.2025 35.184 78.2075 35.1937C78.395 35.5576 78.6494 35.8955 78.913 36.213C79.16 36.5138 79.4886 36.7366 79.8172 36.9426C80.9702 37.663 82.242 37.8022 83.5639 37.6741C84.4086 37.5906 85.1828 37.2898 85.8754 36.8127C86.1891 36.5954 86.5066 36.3597 86.722 36.0143C86.8909 35.7433 86.9466 35.7637 87.2195 35.9271C87.5277 36.1122 87.8389 36.2917 88.1504 36.4714C88.3794 36.6035 88.6086 36.7357 88.8367 36.8702C88.9336 36.9272 89.0284 36.9885 89.1231 37.0498C89.2662 37.1425 89.4092 37.235 89.5589 37.3121C89.7315 37.3994 89.7204 37.4829 89.6257 37.611C89.2804 38.0696 88.9239 38.5226 88.4746 38.8865C88.0959 39.1929 87.693 39.4676 87.2808 39.7331C86.8399 40.0179 86.3561 40.2 85.8796 40.3794C85.8124 40.4047 85.7453 40.43 85.6785 40.4554C85.1773 40.6466 84.6258 40.732 84.08 40.7988C83.0273 40.9269 81.9746 40.8879 80.9386 40.7171C79.6223 40.4999 78.421 39.9819 77.3516 39.165C76.2451 38.3184 75.4207 37.2508 74.8582 35.9846C74.4293 35.0192 74.2826 33.985 74.2288 32.9379C74.1935 32.2417 74.2622 31.5529 74.3643 30.8622C74.4831 30.075 74.7171 29.3305 75.0791 28.6287C75.5377 27.732 76.143 26.9447 76.8912 26.2671C77.6765 25.556 78.564 25.0213 79.5666 24.6797C80.8588 24.2397 82.1918 24.1171 83.5397 24.2638C84.2712 24.3436 84.9749 24.5757 85.6693 24.8282C86.3989 25.0937 87.0376 25.5114 87.6076 26.0053C88.4709 26.7554 89.195 27.6261 89.6499 28.7104ZM86.7455 31.1989C86.8359 31.2029 86.9273 31.207 87.0153 31.1686V31.1667C87.0655 31.0347 87.0209 30.9365 86.9789 30.8441C86.9619 30.8065 86.9452 30.7698 86.9355 30.7322C86.8111 30.2625 86.657 29.7984 86.4063 29.3806C85.8568 28.4635 85.0436 27.8768 84.0373 27.5537C83.1628 27.2734 82.2772 27.2548 81.3749 27.433C80.6378 27.5779 79.9639 27.8693 79.3995 28.3428C78.6475 28.9722 78.1258 29.7779 77.8603 30.736C77.7959 30.971 77.7625 31.0861 77.8056 31.1424C77.847 31.1964 77.9589 31.1964 78.1815 31.1964H86.6626C86.6901 31.1964 86.7177 31.1977 86.7455 31.1989Z" fill="black"/>
<path id="Path_3" d="M68.2803 0.0499224C66.9825 0.243011 65.6829 0.426816 64.3888 0.634757C63.5088 0.77586 62.6306 0.922532 61.7543 1.09705C61.2066 1.20474 60.6552 1.32171 60.0926 1.37555C59.7566 1.40711 59.4224 1.54079 59.0808 1.60948C57.9556 1.8397 56.8324 2.09034 55.7166 2.36698C54.5228 2.66218 53.3327 2.97595 52.1574 3.33614C50.2581 3.91726 48.3904 4.5875 46.621 5.50281C45.9415 5.85371 45.2898 6.24731 44.6994 6.7356C44.2074 7.1422 43.7674 7.59336 43.5409 8.20419C43.3868 8.61821 43.3775 9.03781 43.5594 9.45555C43.8788 10.1889 44.4599 10.6753 45.1097 11.0893C46.1141 11.7299 47.2263 12.1309 48.3495 12.5115C49.1441 12.7807 49.9629 12.9589 50.7724 13.165C51.3238 13.3061 51.8789 13.4974 52.4415 13.5364C53.2417 13.5902 54.0178 13.7796 54.8124 13.8483C55.2134 13.8835 55.6107 13.9559 56.0099 14.0116C56.0099 14.0376 56.0081 14.0655 56.0062 14.0933C55.2858 14.0933 54.5636 14.0971 53.8432 14.0933C52.1463 14.0841 50.4531 14.0302 48.7598 13.917C46.8698 13.7889 44.9872 13.6125 43.1139 13.3284C41.4113 13.0703 39.7218 12.7473 38.062 12.2831C36.8385 11.9415 35.641 11.5238 34.5251 10.9074C33.853 10.5361 33.2255 10.1053 32.7948 9.44626C32.4736 8.95612 32.39 8.43441 32.611 7.88113C32.7892 7.42998 33.1011 7.07722 33.4613 6.76159C34.3562 5.98367 35.4052 5.46939 36.482 5.00895C38.2124 4.26816 40.0114 3.72603 41.8291 3.24702C43.3886 2.83671 44.963 2.48395 46.5467 2.18132C48.0376 1.89726 49.5303 1.61134 51.0342 1.40154C52.2224 1.2363 53.4088 1.06178 54.5989 0.918819C55.8001 0.774003 57.0032 0.658893 58.2082 0.541926C60.5642 0.313562 62.924 0.15575 65.2893 0.0629187C66.1173 0.0294996 66.9454 0.0165033 67.7716 0.00165033C67.9424 -0.00206291 68.1114 0.00165033 68.2822 0.00165033C68.2822 0.0183599 68.2822 0.0350695 68.2822 0.051779L68.2803 0.0499224Z" fill="#1E9BD8"/>
<path id="Path_4" d="M71.4069 40.4629C70.4081 40.4592 69.4074 40.4592 68.4085 40.4629C68.2433 40.4629 68.1634 40.409 68.1783 40.2345C68.1857 40.1435 68.1783 40.0507 68.1783 39.9579C68.1783 37.0523 68.1727 34.1448 68.182 31.2392C68.1839 30.4353 68.0558 29.6574 67.6603 28.9611C67.328 28.3763 66.8397 27.94 66.175 27.7024C65.4342 27.4369 64.6916 27.3607 63.9136 27.4628C62.8145 27.6077 61.953 28.1257 61.3367 29.041C60.9133 29.6704 60.7128 30.3796 60.6664 31.1315C60.5903 32.3792 60.6386 33.6305 60.633 34.8782C60.6256 36.5881 60.6311 38.2981 60.6311 40.0062C60.6311 40.0841 60.6237 40.164 60.6311 40.2419C60.6497 40.4239 60.555 40.4759 60.3953 40.461C60.3823 40.461 60.3694 40.461 60.3564 40.461C59.3965 40.461 58.4366 40.461 57.4767 40.461C57.2001 40.461 57.1945 40.4536 57.1927 40.1733C57.1908 39.2394 57.1927 38.3055 57.1927 37.3716C57.1927 33.2685 57.1927 29.1654 57.1927 25.0622C57.1927 24.5739 57.1203 24.6241 57.6327 24.6222C58.5016 24.6204 59.3686 24.6222 60.2357 24.6222C60.6887 24.6222 60.6256 24.6018 60.6274 25.0325C60.6293 25.454 60.6274 25.8736 60.6274 26.295C60.6274 26.3563 60.6367 26.4157 60.6441 26.5011C60.9301 26.2616 61.086 25.959 61.3311 25.7288C62.148 24.9564 63.093 24.4663 64.2126 24.3085C64.6563 24.2472 65.1 24.2212 65.5475 24.2101C66.4423 24.1896 67.2853 24.4106 68.1096 24.7318C69.2031 25.1588 70.0275 25.8996 70.616 26.904C70.9911 27.5445 71.2194 28.2333 71.3958 28.9611C71.5778 29.7131 71.6019 30.4631 71.6037 31.2206C71.6093 34.1392 71.6056 37.0597 71.6056 39.9783C71.6056 40.0711 71.6 40.1621 71.6056 40.2549C71.6167 40.4072 71.5499 40.4629 71.3977 40.4629H71.4069Z" fill="black"/>
<path id="Path_5" d="M29.3007 27.7042C29.3007 28.0273 29.297 28.031 28.9832 28.0273C28.3278 28.0217 27.691 28.1145 27.0691 28.3299C25.7657 28.7811 24.9525 29.6815 24.5942 31.0016C24.4642 31.4824 24.4308 31.9781 24.4308 32.4757C24.4308 34.9729 24.4308 37.47 24.4308 39.9672C24.4308 40.0451 24.4215 40.1268 24.4308 40.203C24.4605 40.4202 24.351 40.4647 24.1579 40.4629C23.198 40.4555 22.24 40.461 21.2801 40.4573C21.0146 40.4573 21.0091 40.4499 21.0072 40.1658C21.0053 38.7604 21.0072 37.3531 21.0072 35.9476V25.1848C21.0072 25.079 21.0146 24.9731 21.0072 24.8692C20.9905 24.6928 21.0332 24.6129 21.2411 24.6167C22.227 24.6278 23.2129 24.6278 24.1987 24.6167C24.3992 24.6148 24.4382 24.6891 24.4364 24.8692C24.4271 25.5134 24.4327 26.1576 24.4345 26.8019V27.099C24.5793 27.0061 24.6035 26.8873 24.6573 26.7908C25.0658 26.0685 25.6283 25.5078 26.332 25.0622C27.1396 24.5517 28.0345 24.4143 28.9517 24.3363C29.297 24.3066 29.3007 24.3215 29.3007 24.6705C29.3007 25.6824 29.3007 26.6942 29.3007 27.7061V27.7042Z" fill="black"/>
<path id="Path_6" d="M53.405 24.8394C53.3975 24.9044 53.405 24.9713 53.405 25.0362C53.405 30.0287 53.405 35.023 53.405 40.0154C53.405 40.1083 53.405 40.1992 53.405 40.2921C53.405 40.4035 53.3604 40.461 53.2416 40.461C52.1666 40.461 51.0935 40.461 50.0315 40.461C49.9609 40.3032 49.9888 40.1695 49.9888 40.0396C49.9888 35.0341 49.9888 30.0268 49.9888 25.0214C49.9888 24.9564 49.9944 24.8896 49.9888 24.8246C49.9739 24.6724 50.0371 24.6167 50.1912 24.6204C50.5458 24.6278 50.9004 24.6222 51.255 24.6222C51.8992 24.6222 52.5435 24.6278 53.1859 24.6185C53.3548 24.6167 53.431 24.6649 53.4087 24.8394H53.405Z" fill="black"/>
<path id="Path_7" d="M69.2737 10.7012C68.9841 11.0335 68.6164 11.2656 68.2396 11.4828C67.3707 11.9786 66.4516 12.3666 65.5159 12.7175C64.2441 13.1928 62.9519 13.6068 61.6523 14.006C60.0166 14.5073 58.3791 14.9918 56.723 15.4152C56.6468 15.4337 56.5707 15.4449 56.4927 15.4504C57.4322 15.1181 58.3772 14.7969 59.2981 14.4182C60.4232 13.954 61.4945 13.3859 62.4618 12.6377C62.7848 12.387 63.0837 12.1085 63.3214 11.7743C63.7707 11.1412 63.728 10.6344 63.1896 10.0811C62.8832 9.7655 62.5212 9.526 62.1313 9.33291C61.1881 8.86318 60.2115 8.49743 59.17 8.28578C58.496 8.15024 57.8388 7.92374 57.1537 7.82905C56.4797 7.73622 55.8132 7.59697 55.1411 7.53941C56.1901 7.47815 57.2261 7.50228 58.2639 7.54499C59.8142 7.60811 61.3608 7.72879 62.9018 7.92188C64.0102 8.06112 65.1149 8.23008 66.2028 8.49C66.7803 8.62739 67.3521 8.7982 67.9184 8.97829C68.3825 9.12682 68.8337 9.31806 69.2069 9.64296C69.5912 9.97715 69.6079 10.3169 69.27 10.7031L69.2737 10.7012Z" fill="#1E9BD8"/>
<path id="Shape_4" fill-rule="evenodd" clip-rule="evenodd" d="M37.9377 49.7461C37.8473 49.4785 37.6618 49.3394 37.467 49.1934L37.4513 49.1817C37.4561 49.1692 37.4594 49.1573 37.4624 49.1465L37.4624 49.1465C37.4674 49.1282 37.4716 49.113 37.481 49.1037C37.8801 48.7342 37.96 48.2998 37.7576 47.8022C37.5645 47.3325 37.1653 47.1561 36.7086 47.1264C36.4183 47.1079 36.1274 47.1116 35.8362 47.1153C35.6283 47.118 35.4202 47.1206 35.2122 47.1152C35.0191 47.1097 34.9652 47.1765 34.9671 47.3622C34.9727 48.6228 34.9727 49.8835 34.9671 51.1423C34.9652 51.3353 35.0284 51.3892 35.2159 51.3855C35.5803 51.3775 35.9456 51.379 36.3111 51.3805H36.3112L36.3114 51.3805C36.458 51.3812 36.6046 51.3818 36.7513 51.3818C36.9815 51.3818 37.1913 51.3502 37.4048 51.2202C37.973 50.8805 38.1493 50.3755 37.9377 49.7461ZM35.5464 47.8115C35.5464 47.7224 35.5705 47.6537 35.6745 47.6611C35.8168 47.6717 35.96 47.6657 36.1032 47.6598C36.3856 47.648 36.6677 47.6362 36.9425 47.7521C37.1802 47.8523 37.3287 48.1234 37.2675 48.3666C37.1486 48.84 37.0168 48.9384 36.5044 48.9422H36.1906H36.0588C35.9585 48.9403 35.8601 48.9403 35.7599 48.9459C35.6188 48.9514 35.5389 48.9199 35.5445 48.7546C35.5519 48.5046 35.5498 48.2546 35.5478 48.0046V48.0046C35.5473 47.9408 35.5468 47.877 35.5464 47.8133V47.8115ZM36.8367 50.8378C37.1839 50.8155 37.4197 50.576 37.468 50.2195C37.5032 49.954 37.2972 49.6848 37.015 49.5511C36.836 49.4655 36.6571 49.4741 36.4789 49.4826C36.4018 49.4863 36.3249 49.49 36.2482 49.4861C36.1932 49.4837 36.1344 49.4765 36.0749 49.4692C35.899 49.4477 35.7162 49.4253 35.6039 49.5251C35.4947 49.625 35.5154 49.7976 35.5359 49.9674C35.5439 50.0343 35.5519 50.1006 35.5519 50.162C35.5514 50.2219 35.5435 50.2866 35.5356 50.3518C35.5149 50.5231 35.4937 50.6979 35.6039 50.7988C35.7048 50.891 35.8618 50.8703 36.0024 50.8517C36.0713 50.8427 36.1363 50.8341 36.1888 50.8396C36.2745 50.8396 36.3535 50.8408 36.428 50.842C36.5764 50.8444 36.707 50.8464 36.8367 50.8378Z" fill="black"/>
<path id="Shape_5" fill-rule="evenodd" clip-rule="evenodd" d="M42.403 49.2818C42.325 48.0156 43.3888 47.0112 44.5603 47.0427C45.8971 47.078 46.8013 47.9413 46.8013 49.254C46.7994 50.5276 45.951 51.3779 44.6272 51.4578C43.4148 51.532 42.3361 50.4626 42.403 49.2818ZM42.9692 49.2428C42.8968 50.2528 43.801 50.8989 44.5938 50.9026C45.4831 50.9064 46.2276 50.1897 46.2276 49.2707C46.2276 48.2755 45.5963 47.6777 44.6142 47.6016C43.7137 47.5329 42.9135 48.2941 42.9692 49.2428Z" fill="black"/>
<path id="Shape_6" fill-rule="evenodd" clip-rule="evenodd" d="M52.8185 49.1722C52.8575 48.0006 53.8768 46.9628 55.0947 47.0426C56.3888 47.1262 57.2484 48.0062 57.2428 49.291C57.2391 50.5275 56.2347 51.4948 54.9425 51.4595C53.9529 51.5654 52.7758 50.444 52.8185 49.1722ZM53.3922 49.239C53.3829 50.0726 54.1088 50.9601 54.9759 50.8988C55.9543 50.9248 56.6747 50.1952 56.6635 49.2724C56.6543 48.2736 56.0676 47.672 55.0539 47.5996C54.1293 47.5346 53.4052 48.3534 53.3922 49.239Z" fill="black"/>
<path id="Path_8" d="M62.367 51.1106C62.367 51.2053 62.4171 51.3594 62.2686 51.3649C62.1182 51.3705 61.9455 51.4726 61.8118 51.274C61.4906 50.7912 61.1472 50.3252 60.8186 49.8462C60.4899 49.3672 60.1687 48.8845 59.8457 48.4018C59.8234 48.3684 59.7974 48.3424 59.7102 48.3554V48.6803C59.7102 49.4823 59.7102 50.2844 59.7083 51.0864C59.7083 51.183 59.7621 51.3297 59.634 51.3631C59.4985 51.3984 59.3407 51.3946 59.2052 51.3612C59.1049 51.3352 59.1439 51.2016 59.1439 51.1143C59.142 50.2473 59.1439 49.3784 59.1439 48.5113V47.1486C59.4094 47.0929 59.595 47.0891 59.7714 47.3602C60.3061 48.1808 60.878 48.9773 61.4387 49.7831C61.5259 49.9075 61.6225 50.0263 61.7209 50.1563C61.8304 50.0319 61.7914 49.9112 61.7914 49.7998C61.7951 48.9977 61.7914 48.1957 61.7951 47.3936C61.7951 47.2971 61.7469 47.156 61.888 47.1281C62.0254 47.1021 62.1832 47.0799 62.3131 47.1467C62.4041 47.1931 62.367 47.3138 62.367 47.4029C62.3688 48.257 62.367 49.1129 62.367 49.9669C62.367 50.3475 62.3707 50.73 62.3651 51.1106H62.367Z" fill="black"/>
<path id="Path_9" d="M66.8044 51.3854C66.1081 51.3742 65.4101 51.3742 64.7138 51.3854C64.504 51.3891 64.4817 51.2944 64.4836 51.1254C64.4892 50.4942 64.4855 49.8629 64.4855 49.2335C64.4855 48.6042 64.4929 47.997 64.4818 47.3806C64.478 47.1764 64.5412 47.1114 64.7491 47.1151C65.4193 47.1281 66.0896 47.117 66.7598 47.1207C67.0086 47.1207 67.0123 47.1319 67.0105 47.3974C67.0105 47.6554 67.0105 47.661 66.7487 47.6647C66.2622 47.6684 65.7758 47.6703 65.2894 47.6647C65.1241 47.6628 65.0536 47.7093 65.061 47.8856C65.0722 48.1604 65.074 48.4389 65.061 48.7137C65.0536 48.8975 65.1056 48.9718 65.3024 48.9662C65.722 48.9532 66.1434 48.9588 66.5649 48.9643C66.8527 48.9662 66.8582 48.9773 66.8564 49.2447C66.8564 49.4898 66.8564 49.4953 66.5834 49.499C66.162 49.5028 65.7424 49.5065 65.3209 49.4972C65.1446 49.4935 65.0517 49.5269 65.061 49.733C65.0759 50.0337 65.0703 50.3382 65.061 50.639C65.0573 50.795 65.1167 50.8432 65.2671 50.8414C65.7795 50.8358 66.2938 50.8525 66.8044 50.834C67.0624 50.8247 67.0272 50.9751 67.0383 51.1347C67.0495 51.313 67.0068 51.3946 66.8025 51.3909L66.8044 51.3854Z" fill="black"/>
<path id="Path_10" d="M40.511 49.7925C40.511 50.2362 40.511 50.6818 40.5091 51.1255C40.5091 51.3836 40.4998 51.3762 40.2009 51.3836C40.019 51.3873 39.9113 51.3706 39.9131 51.1367C39.9243 49.876 39.9243 48.6172 39.9131 47.3566C39.9113 47.1097 40.0394 47.1134 40.2102 47.1171C40.368 47.1208 40.5221 47.0893 40.5165 47.3455C40.5035 47.895 40.5091 48.4464 40.511 48.9979C40.511 49.0907 40.511 49.1835 40.511 49.2745C40.511 49.4472 40.511 49.6198 40.511 49.7925Z" fill="black"/>
<path id="Path_11" d="M50.9376 49.5009C50.9302 49.6271 50.9692 49.7738 50.7594 49.772C50.13 49.7682 49.5025 49.772 48.8731 49.7701C48.6521 49.7701 48.7301 49.5974 48.719 49.4823C48.7078 49.3598 48.7134 49.2465 48.8935 49.2521C49.0272 49.2558 49.1627 49.2558 49.2964 49.2558C49.4895 49.2558 49.6826 49.254 49.8756 49.2558C49.9183 49.2558 49.9629 49.2558 50.0056 49.2558C50.221 49.2558 50.4345 49.2614 50.6499 49.2558C50.6796 49.2558 50.7093 49.2558 50.739 49.254C50.9376 49.2465 50.9451 49.3598 50.9376 49.5046V49.5009Z" fill="black"/>
</g>
</svg>
