<svg width="133" height="23" viewBox="0 0 133 23" fill="none" xmlns="http://www.w3.org/2000/svg">
<g id="Ravu">
<path id="Path" d="M128.507 7.75732C128.488 7.83093 128.485 7.86934 128.468 7.90135C128.167 8.45506 127.858 9.00878 127.563 9.5689C127.492 9.70012 127.412 9.75134 127.264 9.75454C126.102 9.78654 124.942 9.82495 123.78 9.86336C123.247 9.88256 122.71 9.90817 122.174 9.93057C121.955 9.94017 121.943 9.94658 121.907 10.161C121.788 10.8812 121.692 11.6077 121.557 12.3247C121.377 13.2945 121.198 14.2675 120.97 15.2277C120.684 16.4215 120.131 17.5034 119.428 18.5116C118.403 19.9775 117.026 20.9857 115.391 21.6802C113.885 22.3172 112.311 22.6468 110.689 22.8037C109.569 22.9093 108.448 22.9221 107.327 22.8965C106.013 22.8709 104.709 22.7364 103.438 22.3876C102.574 22.1507 101.742 21.8307 100.968 21.3666C99.4392 20.4448 98.5014 19.1069 98.1513 17.3625C97.9169 16.2071 97.933 15.0452 98.1128 13.8834C98.2477 13.016 98.3729 12.1454 98.5014 11.2749C98.5303 11.102 98.556 10.9292 98.5913 10.7147C98.4243 10.7115 98.2894 10.7019 98.1546 10.7051C97.7788 10.7211 97.403 10.7499 97.0241 10.7595C96.0927 10.7884 95.1582 10.8044 94.2236 10.8332C93.0835 10.8652 91.9402 10.9036 90.8001 10.9388C89.6889 10.974 88.5777 11.0188 87.4665 11.0444C87.0972 11.054 86.8403 11.15 86.6122 11.4893C85.0161 13.8514 83.391 16.1911 81.7724 18.5404C80.9824 19.6926 80.1891 20.8385 79.4055 21.9939C79.3027 22.1443 79.1839 22.1347 79.049 22.1347H75.1727C75.0025 22.1347 74.8323 22.1379 74.6653 22.1315C74.418 22.1283 74.418 22.1219 74.3281 21.8851C73.9395 20.8288 73.5444 19.7726 73.1526 18.7164C72.7544 17.6314 72.3562 16.5464 71.9547 15.4613C71.5404 14.3315 71.1293 13.1985 70.6958 12.0718C70.4999 11.5629 70.593 11.6141 70.0149 11.6333C69.0129 11.6621 68.0109 11.6941 67.0089 11.7261C66.0744 11.7582 65.143 11.7934 64.2085 11.8254C63.3349 11.8542 62.4614 11.8766 61.5878 11.9022C61.5718 11.9022 61.5557 11.8862 61.5107 11.8574C61.6199 11.6237 61.7259 11.3837 61.8448 11.1468C61.8672 11.1052 61.9379 11.0764 61.9893 11.0604C62.0663 11.0412 62.1466 11.0348 62.2237 11.0316C63.7524 10.9612 65.2811 10.8972 66.8098 10.8268C68.3963 10.7499 69.986 10.6667 71.5725 10.5867C73.1205 10.5099 74.6685 10.4331 76.2164 10.3531C76.8009 10.3243 77.3854 10.2858 77.97 10.2538C78.0085 10.2538 78.0502 10.2602 78.1241 10.2666C78.2526 10.7243 78.381 11.1916 78.5288 11.7165C78.6155 11.6173 78.6669 11.5725 78.6958 11.5213C78.9077 11.15 79.1197 10.782 79.3188 10.4075C79.4023 10.2506 79.4986 10.1802 79.6849 10.1738C80.6901 10.1322 81.6889 10.0714 82.6909 10.0234C83.3076 9.99139 83.9242 9.97218 84.5376 9.94017C86.214 9.86016 87.8904 9.77694 89.5701 9.69692C91.1148 9.62011 92.6628 9.54649 94.2108 9.46648C96.3561 9.35765 98.4982 9.24243 100.64 9.13361C102.118 9.05999 103.598 8.99598 105.076 8.92556C105.474 8.90636 105.869 8.88075 106.267 8.86155C106.363 8.85515 106.46 8.86155 106.595 8.86155C106.591 8.98318 106.595 9.0856 106.579 9.18802C106.395 10.3371 106.203 11.4861 106.026 12.6383C105.911 13.4129 105.882 14.1939 106.1 14.962C106.315 15.7142 106.771 16.2839 107.516 16.5271C109.006 17.0169 110.468 16.9752 111.846 16.1303C112.549 15.7014 112.95 15.0388 113.284 14.3219C113.525 13.8002 113.663 13.2401 113.76 12.6735C113.962 11.4765 114.145 10.2762 114.334 9.07599C114.367 8.88075 114.395 8.68871 114.431 8.47107C114.871 8.44546 115.295 8.42306 115.719 8.40065C117.109 8.32704 118.497 8.25342 119.884 8.18301C121.165 8.11899 122.447 8.05818 123.725 7.99737C125.087 7.93336 126.445 7.86934 127.804 7.80533C128.029 7.79253 128.253 7.77332 128.507 7.75732Z" fill="#050038"/>
<path id="Path_2" d="M66.3988 8.59275C66.2415 8.89682 66.1066 9.15607 65.9556 9.44413C65.5895 9.47934 65.2073 9.52415 64.8252 9.55615C63.9613 9.62337 63.1006 9.68418 62.2399 9.75459C60.7754 9.86982 59.3109 9.99144 57.8465 10.1099C56.4205 10.2283 54.9946 10.3468 53.5719 10.4652C52.8589 10.526 52.146 10.5868 51.433 10.6444C51.327 10.6508 51.221 10.6444 51.1215 10.6444C51.0733 10.2571 51.038 9.89542 50.9898 9.53375C50.8806 8.73998 50.4535 8.11585 49.8818 7.58774C49.0854 6.84839 48.1219 6.50272 47.0364 6.48671C46.3973 6.47711 45.7678 6.51552 45.1512 6.70436C44.0785 7.03083 43.1825 7.61975 42.4278 8.44232C41.7662 9.16247 41.3808 10.0171 41.1368 10.9453C41.1111 11.0413 41.1111 11.1405 41.0982 11.2397C41.0693 11.4734 41.0404 11.4958 40.7995 11.515C40.5426 11.5342 40.2857 11.5534 40.0256 11.5694C38.6703 11.6558 37.3118 11.7422 35.9533 11.8287C34.8325 11.9023 33.7149 11.9791 32.594 12.0495C32.199 12.0751 31.8008 12.0911 31.4058 12.1167C30.6029 12.1679 29.8 12.2256 28.9971 12.28C28.4929 12.312 27.9855 12.3344 27.4812 12.3664C25.8947 12.4656 24.3114 12.5648 22.7249 12.6672C21.2573 12.7633 19.7928 12.8625 18.3251 12.9585C17.0662 13.0385 15.8072 13.1185 14.5483 13.1986C13.3504 13.2754 12.1525 13.349 10.9514 13.4258C9.71172 13.5058 8.47528 13.5858 7.23562 13.6659C6.60294 13.7075 5.96705 13.7555 5.33438 13.7971C5.27657 13.7971 5.22197 13.7907 5.1449 13.7843C5.16738 13.7203 5.17701 13.6723 5.19949 13.6306C5.38255 13.2562 5.57203 12.8881 5.74867 12.5136C5.8129 12.3696 5.8964 12.2864 6.06019 12.2896C6.13727 12.2896 6.21756 12.2768 6.29784 12.2736C7.77516 12.2095 9.25247 12.1487 10.733 12.0847C10.9996 12.0719 11.0028 12.0687 11.0477 11.7967C11.3303 10.0907 11.6162 8.38791 11.8892 6.68195C12.1043 5.34407 12.3002 4.0062 12.509 2.66832C12.6053 2.03458 12.7081 1.40085 12.8141 0.767119C12.8269 0.690303 12.8558 0.619888 12.8815 0.536671H20.5796C20.3933 1.71452 20.2071 2.87316 20.0208 4.035C20.0369 4.0446 20.0529 4.05741 20.069 4.06701C20.1493 3.98699 20.236 3.91658 20.3034 3.82696C21.7229 2.04099 23.5118 0.850336 25.7952 0.447052C26.8775 0.255012 27.9694 0.229407 29.0613 0.229407C29.1191 0.229407 29.1769 0.239009 29.2572 0.248611C28.8686 2.69392 28.48 5.12323 28.0882 7.57494C28.0144 7.54933 27.9662 7.54293 27.9244 7.52053C27.1023 7.06923 26.2095 6.9156 25.2845 6.89C24.2729 6.85799 23.2805 6.96681 22.3331 7.34769C21.0485 7.8662 20.1525 8.7976 19.5198 10.0043C19.25 10.5196 19.0573 11.0701 18.916 11.675C19.0156 11.6878 19.0991 11.707 19.1826 11.7038C20.9971 11.627 22.8149 11.5502 24.6294 11.4734C25.4323 11.4382 26.2384 11.403 27.0413 11.3646C28.8269 11.2846 30.6125 11.2013 32.4013 11.1181C32.8156 11.0989 33.2299 11.0765 33.6506 11.0541C33.6731 11.0029 33.702 10.9613 33.7117 10.9133C34.1324 8.71758 35.0573 6.74277 36.4222 4.9792C37.6715 3.36286 39.2355 2.1178 41.0822 1.21841C42.3443 0.603885 43.6835 0.274216 45.0709 0.0853761C46.7249 -0.141871 48.3178 0.0917775 49.8593 0.699905C50.9063 1.11279 51.7895 1.75293 52.4864 2.63631C52.5217 2.68112 52.5378 2.74193 52.6052 2.77394C52.8075 2.02818 52.9039 1.29843 53.0067 0.584681C53.2186 0.517467 60.2616 0.491861 60.7336 0.552674C60.7304 1.03278 60.5666 1.49367 60.5121 1.97057C60.4575 2.46027 60.3611 2.94357 60.2872 3.43008C60.2102 3.91018 60.1427 4.38707 60.0656 4.86397C59.9886 5.34087 59.9051 5.81777 59.8248 6.29787C59.7445 6.78438 59.6642 7.27088 59.5871 7.75738C59.5068 8.23428 59.433 8.70798 59.3463 9.23289C61.7067 9.01844 64.0319 8.8072 66.3988 8.59275Z" fill="#050038"/>
<path id="Path_3" d="M58.993 11.5501C58.9159 12.059 58.8292 12.5647 58.7457 13.0704C58.5948 13.989 58.4438 14.9044 58.2961 15.8198C58.1933 16.4439 58.0938 17.0649 57.9974 17.689C57.8561 18.6172 57.718 19.5454 57.5703 20.4704C57.4868 21.0081 57.3872 21.5394 57.2877 22.1155H49.5896C49.6667 21.3858 49.8144 20.688 49.8947 19.9743C49.7341 19.9583 49.6827 20.0703 49.6185 20.1471C49.0308 20.8481 48.3274 21.4082 47.5213 21.8339C46.4712 22.3908 45.3536 22.7588 44.1685 22.9125C43.3239 23.0213 42.4792 23.0213 41.641 22.9573C39.9999 22.8325 38.5097 22.2595 37.1705 21.3089C35.539 20.1471 34.5178 18.5628 33.9044 16.6872C33.6507 15.9126 33.5093 15.1189 33.474 14.3027C33.458 13.9218 33.4323 13.5377 33.4098 13.1152C35.9341 12.808 38.4294 12.5007 40.9537 12.2159C40.9826 12.4719 41.0115 12.7024 41.0404 12.936C41.2299 14.4659 42.3379 15.679 43.8538 16.015C45.5912 16.4023 47.2195 16.1527 48.6807 15.1221C49.8818 14.2771 50.6462 13.1312 50.9256 11.6813C50.9256 11.6653 50.9417 11.6493 50.9673 11.5981C53.6233 11.4669 56.2953 11.3357 58.9962 11.2012C58.9962 11.3261 59.0091 11.4413 58.993 11.5501Z" fill="#050038"/>
<path id="Path_4" d="M29.5912 13.5698C29.511 13.8739 29.4371 14.1395 29.3696 14.4052C29.3343 14.5364 29.2315 14.5524 29.1191 14.5684C28.4608 14.6549 27.8024 14.7477 27.144 14.8405C25.7566 15.0389 24.3725 15.2406 22.9883 15.439C21.7615 15.6151 20.5315 15.7911 19.3046 15.9639C18.9803 16.0119 18.6559 16.0567 18.3283 16.0888C18.1774 16.1048 18.1035 16.1656 18.081 16.3224C17.9333 17.2762 17.7792 18.2332 17.6218 19.187C17.4869 19.9936 17.3488 20.8001 17.2107 21.6099C17.1818 21.7731 17.1561 21.9364 17.1304 22.09C16.7996 22.1572 9.65071 22.1476 9.41306 22.0772C9.66356 20.4929 9.91406 18.9085 10.1678 17.2922C10.0425 17.2922 9.92691 17.2794 9.8145 17.2954C8.82213 17.4394 7.83297 17.5899 6.84061 17.7339C6.09231 17.8427 5.34723 17.9387 4.59894 18.0412C3.93094 18.1372 3.26294 18.2332 2.59493 18.3292C1.8081 18.438 1.02127 18.5501 0.237655 18.6589C0.173424 18.6653 0.105981 18.6589 0 18.6589C0.0738657 18.5501 0.118827 18.4797 0.170212 18.4092C0.481733 17.9868 0.796465 17.5675 1.10156 17.1386C1.21076 16.9849 1.34243 16.9017 1.53833 16.8793C3.28542 16.6777 5.02929 16.4632 6.77316 16.2584C7.58247 16.1624 8.39178 16.0824 9.19788 15.9895C10.065 15.8871 10.9321 15.7751 11.7992 15.6727C12.9137 15.5414 14.0281 15.4166 15.1425 15.2854C15.9903 15.183 16.835 15.0709 17.6828 14.9685C18.4921 14.8725 19.3014 14.7861 20.1075 14.6901C21.0357 14.5844 21.9606 14.4756 22.8887 14.3636C23.9614 14.2356 25.0373 14.1075 26.1099 13.9763C26.9867 13.8707 27.8634 13.7619 28.7402 13.6562C29.0067 13.6242 29.2701 13.6018 29.5912 13.5698Z" fill="#050038"/>
<path id="Path_5" d="M77.5429 8.49036C77.3952 8.50957 77.2603 8.52877 77.1222 8.53837C76.0463 8.62479 74.9673 8.70481 73.8882 8.79123C72.5329 8.90325 71.1808 9.02487 69.8256 9.1401C69.6136 9.1593 69.5975 9.1529 69.5205 8.95126C68.9328 7.35733 68.345 5.76339 67.7573 4.16946C67.3173 2.97241 66.8806 1.77856 66.431 0.559106C66.492 0.549504 66.553 0.5271 66.6172 0.5271H74.842C75.0861 0.5271 75.0925 0.533501 75.1664 0.776752C75.6224 2.23946 76.072 3.70216 76.5281 5.16167C76.8556 6.21789 77.1929 7.27091 77.5237 8.32713C77.5365 8.37194 77.5365 8.42315 77.5429 8.49036Z" fill="#050038"/>
<path id="Path_6" d="M112.266 4.11814C112.247 4.21736 112.247 4.27497 112.228 4.32938C112.106 4.70706 111.968 5.07834 111.858 5.45602C111.807 5.63206 111.714 5.68967 111.547 5.70247C110.824 5.76328 110.102 5.8305 109.379 5.89131C108.518 5.96493 107.658 6.03854 106.797 6.10896C105.965 6.17617 105.133 6.23698 104.302 6.3042C103.46 6.36821 102.619 6.44183 101.777 6.50904C100.345 6.62426 98.9094 6.73949 97.4738 6.85151C96.2342 6.95073 94.9977 7.04675 93.7613 7.14597C93.1382 7.19398 92.5152 7.25159 91.8921 7.30281C91.7637 7.31561 91.6384 7.31561 91.4746 7.32201C91.5035 7.24199 91.51 7.21319 91.526 7.18758C91.7572 6.85471 91.9885 6.52504 92.2197 6.18897C92.2904 6.08335 92.3739 6.03214 92.5087 6.01934C94.0214 5.87531 95.534 5.72168 97.0467 5.57444C97.7661 5.50403 98.4887 5.44002 99.2113 5.3728C99.481 5.3472 99.4778 5.344 99.5196 5.07514C99.709 3.86529 99.9017 2.65543 100.091 1.44558C100.139 1.15432 100.181 0.863059 100.223 0.5814C100.464 0.517387 107.317 0.488581 107.963 0.546193C107.857 1.21193 107.751 1.87767 107.645 2.54021C107.542 3.20275 107.439 3.86529 107.33 4.56943C108.191 4.49262 109.01 4.43501 109.822 4.34859C110.628 4.26537 111.434 4.17575 112.266 4.11814Z" fill="#050038"/>
<path id="Path_7" d="M94.1852 0.527068C94.0953 0.667897 94.0535 0.741512 94.0021 0.815128C92.8363 2.49868 91.6673 4.18223 90.4983 5.86578C90.1547 6.36189 89.8143 6.85799 89.477 7.36049C89.3903 7.48532 89.2908 7.54613 89.1366 7.55894C88.4044 7.61015 87.669 7.66456 86.9367 7.72537C85.3342 7.8566 83.7348 7.99743 82.1322 8.12865C81.7147 8.16386 81.2972 8.18627 80.8829 8.21187C80.838 8.21507 80.7898 8.20227 80.7191 8.19267C80.7513 8.12545 80.7673 8.08384 80.793 8.04224C82.3346 5.60013 83.8761 3.15482 85.4112 0.709506C85.5044 0.562275 85.6039 0.517466 85.7709 0.520666C88.4429 0.527068 91.1182 0.523867 93.7902 0.527068H94.1852Z" fill="#050038"/>
<path id="Path_8" d="M123.426 0.546387C123.42 0.629604 123.423 0.716022 123.407 0.799239C123.301 1.42017 123.182 2.0411 123.08 2.66203C122.98 3.27655 122.893 3.89108 122.81 4.50561C122.768 4.79367 122.768 4.79687 122.489 4.82248C121.577 4.89609 120.668 4.97611 119.759 5.04972C118.937 5.11374 118.114 5.16815 117.296 5.23536C116.669 5.28657 116.049 5.34739 115.426 5.3986C115.269 5.4146 115.112 5.4146 114.909 5.4274C115.182 3.77266 115.452 2.16912 115.722 0.546387H123.426Z" fill="#050038"/>
<path id="Path_9" d="M133 2.09546C132.913 2.21068 132.875 2.26509 132.833 2.3163C132.393 2.85081 131.95 3.38532 131.516 3.92624C131.42 4.04146 131.317 4.10227 131.166 4.11188C129.888 4.2079 128.613 4.30712 127.335 4.40954C126.66 4.46395 125.989 4.52476 125.315 4.58237C125.209 4.58878 125.103 4.58237 124.961 4.58237C125.112 3.99345 125.254 3.43333 125.405 2.84121C127.906 2.59796 130.418 2.35151 133 2.09546Z" fill="#050038"/>
</g>
</svg>
