<svg width="121" height="29" viewBox="0 0 121 29" fill="none" xmlns="http://www.w3.org/2000/svg">
<g id="Stryker">
<path id="Path" d="M33.1422 19.7968V23.9975C33.0579 23.9975 32.9797 24.0096 32.9045 24.0096C31.3457 24.0126 29.79 24.0186 28.2313 24.0096C27.3647 24.0036 26.5583 23.7448 25.809 23.3175C25.3486 23.0557 24.9033 22.7638 24.5482 22.3546C23.8862 21.5963 23.4649 20.7206 23.2573 19.7397C23.1099 19.0506 23.0437 18.3495 23.0467 17.6423C23.0557 15.223 23.0497 12.8067 23.0497 10.3874V10.1196H10.243C9.62309 10.1196 9.00321 10.1196 8.38334 10.1226C8.22687 10.1226 8.06438 10.1346 7.91091 10.1647C7.33918 10.27 6.96907 10.6733 6.89986 11.248C6.8156 11.9581 7.26997 12.7947 8.24793 12.7856C9.83673 12.7706 11.4255 12.7766 13.0143 12.7676C13.911 12.7646 14.8108 12.7465 15.7075 12.7435C16.4658 12.7435 17.215 12.8398 17.9372 13.0715C18.6293 13.2912 19.2853 13.5951 19.848 14.0675C20.7537 14.8318 21.3104 15.8098 21.5692 16.9563C21.8521 18.2201 21.7798 19.4688 21.2713 20.6635C20.6755 22.0717 19.6494 23.0467 18.1779 23.5311C17.3474 23.8019 16.4989 23.9434 15.6262 23.9434H0V19.6915C0.0872638 19.6855 0.180546 19.6795 0.270819 19.6795H2.82253C7.20678 19.6795 11.594 19.6795 15.9813 19.6765C16.1619 19.6765 16.3454 19.6705 16.526 19.6464C17.0676 19.5712 17.3926 19.2432 17.543 18.7376C17.7567 18.0335 17.3866 17.3023 16.7125 17.0947C16.553 17.0465 16.3845 17.0225 16.219 17.0164C15.7346 17.0044 15.2501 17.0044 14.7656 17.0044C12.6984 17.0044 10.6341 17.0225 8.56689 17.0044C7.23687 16.9924 5.99713 16.6313 4.88978 15.87C4.44744 15.5661 4.08334 15.1839 3.77641 14.7416C3.2739 14.0104 2.93688 13.2159 2.82554 12.3343C2.79244 12.0755 2.78341 11.8137 2.7774 11.5519C2.77138 11.2691 2.75332 10.9802 2.78642 10.7003C3.06025 8.57592 4.1345 7.06536 6.18369 6.31308C7.02624 6.00315 7.89888 5.8557 8.7986 5.8557H23.0587V0.0481455C24.47 0.030091 25.8632 0.0150455 27.2835 0V5.8557H33.07C33.088 7.26998 33.1031 8.66018 33.1181 10.0714C31.1682 10.0865 29.2514 10.1015 27.3045 10.1166C27.2985 10.243 27.2895 10.3513 27.2895 10.4566C27.2865 12.7164 27.2865 14.9763 27.2895 17.2361C27.2895 17.6544 27.2865 18.0756 27.3045 18.4939C27.3106 18.6594 27.3437 18.8279 27.4008 18.9814C27.5814 19.4508 27.9364 19.7156 28.436 19.7788C28.5623 19.7938 28.6917 19.7938 28.8181 19.7938C30.2143 19.7908 31.6136 19.7878 33.0128 19.7848C33.0519 19.7848 33.088 19.7908 33.1422 19.7968Z" fill="black"/>
<path id="Shape" fill-rule="evenodd" clip-rule="evenodd" d="M99.2671 12.3883C99.5499 13.267 99.6913 14.1757 99.7034 15.0995C99.7124 15.6773 99.6432 16.249 99.5289 16.8358H85.2687C85.2726 16.8567 85.2759 16.8761 85.279 16.8945C85.2879 16.9475 85.2953 16.9911 85.3109 17.0314C85.5666 17.7505 85.9518 18.3915 86.4724 18.9512C87.1133 19.6373 87.8566 20.1578 88.7743 20.4076C89.1384 20.5069 89.5086 20.543 89.8817 20.543H96.0864V24.5992C96.0532 24.6005 96.0204 24.6027 95.9881 24.605C95.9417 24.6082 95.8962 24.6113 95.8517 24.6113C95.2474 24.6113 94.6431 24.6139 94.0387 24.6165C92.6962 24.6223 91.3537 24.6281 90.0111 24.6053C87.8415 24.5661 85.9067 23.838 84.2276 22.4658C82.9728 21.4427 82.034 20.1759 81.4442 18.6713C80.9266 17.3533 80.7009 15.9812 80.8032 14.5699C80.9687 12.2951 81.8624 10.3331 83.4422 8.68415C84.5195 7.55875 85.8014 6.73727 87.2878 6.25581C88.6991 5.79542 90.1435 5.65399 91.6149 5.88269C93.0623 6.11138 94.4104 6.60487 95.617 7.44742C97.3894 8.68114 98.6051 10.3331 99.2671 12.3883ZM86.6078 11.3863C86.0451 11.9069 85.6208 12.5237 85.3289 13.261H95.1536C94.7655 12.3101 94.1727 11.5669 93.3783 10.9771C92.3251 10.1947 91.1275 9.89381 89.8335 9.97506C88.5938 10.0533 87.5165 10.5408 86.6078 11.3863Z" fill="black"/>
<path id="Path_2" d="M81.9497 24.6355C81.8745 24.6415 81.8233 24.6475 81.7722 24.6475C80.3098 24.6505 78.8503 24.6475 77.3879 24.6565C77.1893 24.6565 77.075 24.6054 76.9727 24.4278C75.5764 21.9574 74.1712 19.4929 72.769 17.0255C72.6516 16.8178 72.5403 16.6102 72.4079 16.3635C72.3326 16.4507 72.2694 16.5169 72.2153 16.5861C71.6315 17.3294 71.0478 18.0726 70.464 18.8129C70.3527 18.9573 70.2353 19.0987 70.1179 19.2372C70.0337 19.3395 69.9916 19.4478 69.9916 19.5832C69.9976 21.16 70.0006 22.7397 70.0036 24.3165V24.5602H65.7969C65.7879 24.5181 65.7728 24.467 65.7698 24.4128C65.7668 24.3255 65.7698 24.2383 65.7698 24.151C65.7698 18.3886 65.7728 12.6292 65.7668 6.86671C65.7638 4.7483 65.7427 2.63291 65.7307 0.51752V0.21661C65.9082 0.159438 69.6545 0.168465 70.0006 0.225638V12.897C70.0006 12.897 70.0307 12.909 70.0457 12.912C70.1089 12.8458 70.1721 12.7826 70.2323 12.7134C71.776 10.8719 73.3196 9.03025 74.8633 7.18868C75.1792 6.80953 75.5012 6.43942 75.8172 6.06027C75.8894 5.97602 75.9616 5.93088 76.076 5.93088C77.8242 5.9369 79.5725 5.9369 81.3208 5.9369C81.3268 5.9369 81.3358 5.94292 81.402 5.96097C79.398 8.35621 77.418 10.7274 75.432 13.1076C77.6016 16.9442 79.7681 20.7778 81.9497 24.6355Z" fill="black"/>
<path id="Path_3" d="M64.3586 6.07248C64.2863 6.32223 64.2201 6.5419 64.1569 6.76156C62.52 12.3645 60.88 17.9644 59.2431 23.5673C58.9693 24.5062 58.6082 25.4059 58.0545 26.2244C57.6061 26.8834 57.0525 27.425 56.3784 27.8523C55.5028 28.406 54.5489 28.6979 53.5198 28.7189C52.584 28.737 51.6451 28.7189 50.7093 28.7189C49.8908 28.7189 49.0723 28.7189 48.2539 28.7189H47.98V24.458C48.0583 24.452 48.1275 24.443 48.1967 24.443C49.8637 24.446 51.5308 24.446 53.2008 24.452C53.6642 24.452 53.929 24.1752 53.8869 23.7148C53.8779 23.6034 53.8598 23.4951 53.8267 23.3868C53.4596 22.1531 53.0805 20.9163 52.7164 19.6796C51.4555 15.4187 50.2008 11.1578 48.946 6.89697C48.8677 6.63217 48.7865 6.36737 48.7052 6.10558C48.8828 6.0454 52.5388 6.03336 52.8367 6.09053C54.0644 10.3544 55.2921 14.6303 56.5229 18.9032H56.568C57.7837 14.6303 58.9993 10.3574 60.218 6.07248H64.3586Z" fill="black"/>
<path id="Path_4" d="M115.263 13.8418V14.0946C115.089 14.1548 111.4 14.1728 111.054 14.1157C111.048 14.0525 111.039 13.9863 111.039 13.9171C111.042 13.3092 111.051 12.6984 111.045 12.0875C111.045 11.8438 111.036 11.594 110.981 11.3563C110.834 10.7184 110.307 10.2971 109.651 10.252C109.558 10.246 109.462 10.246 109.366 10.246H106.007C105.938 10.246 105.866 10.252 105.77 10.261V24.0908H101.539C101.485 23.8922 101.416 6.65316 101.47 5.99417C101.554 5.98815 101.647 5.97912 101.738 5.97912H106.29C107.328 5.97912 108.37 5.97612 109.411 5.97912C110.41 5.98514 111.364 6.20782 112.275 6.60803C113.587 7.18276 114.436 8.18479 114.932 9.50578C115.17 10.1437 115.278 10.8027 115.266 11.4827C115.257 12.2681 115.263 13.0535 115.263 13.8388V13.8418Z" fill="black"/>
<path id="Path_5" d="M48.645 13.9503V14.1519H44.4173C44.4173 14.0736 44.4112 13.9894 44.4112 13.9051V11.7657C44.4112 10.9231 43.8275 10.2701 42.9879 10.2551C41.7241 10.231 40.4633 10.2491 39.1664 10.2491C39.1634 10.3363 39.1574 10.4176 39.1574 10.5018C39.1543 11.4286 39.1574 12.3554 39.1574 13.2853C39.1574 16.6855 39.1574 20.0858 39.1543 23.4861C39.1543 23.6967 39.1483 23.9074 39.1453 24.124H34.9236C34.8634 18.0908 34.8874 12.0726 34.8333 6.02433H35.0891C37.6799 6.02433 40.2707 6.0123 42.8616 6.02734C43.9539 6.03336 44.998 6.30418 45.973 6.8067C46.8727 7.2701 47.5287 7.96821 48.0011 8.85288C48.4314 9.66233 48.6511 10.5139 48.645 11.4286C48.639 12.2682 48.645 13.1107 48.645 13.9503Z" fill="black"/>
<path id="Shape_2" fill-rule="evenodd" clip-rule="evenodd" d="M114.788 4.58292C114.782 3.09342 116.07 1.93191 117.436 1.962C119.172 1.9951 120.132 3.40937 120.09 4.60097C120.087 6.06039 118.892 7.24296 117.43 7.24296C115.968 7.24597 114.794 6.05136 114.788 4.58292ZM115.113 4.61903C115.068 5.75948 116.091 6.96311 117.478 6.93001C118.655 6.90293 119.801 5.97011 119.78 4.49265C119.768 3.46354 118.829 2.21777 117.343 2.27193C116.1 2.32008 115.092 3.35521 115.113 4.61903Z" fill="black"/>
<path id="Shape_3" fill-rule="evenodd" clip-rule="evenodd" d="M118.334 5.13658C118.34 5.1688 118.345 5.201 118.351 5.23275C118.375 5.37076 118.396 5.50877 118.418 5.64962C118.434 5.75445 118.45 5.86084 118.468 5.96998H118.098C118.092 5.93647 118.086 5.90316 118.081 5.87001C118.048 5.67996 118.016 5.49548 117.99 5.31099C117.917 4.78741 117.821 4.70014 117.286 4.70014H116.879V5.96998H116.482V3.15648C116.589 3.15512 116.695 3.15176 116.801 3.14842C117.164 3.13697 117.52 3.12573 117.869 3.1956C118.426 3.30693 118.649 3.89672 118.297 4.29392C118.237 4.36218 118.158 4.41337 118.082 4.46314C118.047 4.48578 118.013 4.50812 117.981 4.53164C118.006 4.55765 118.035 4.5834 118.064 4.60984C118.133 4.67208 118.206 4.73814 118.248 4.82051C118.298 4.91385 118.316 5.02529 118.334 5.13658ZM117.136 4.36211C117.335 4.36456 117.53 4.36695 117.725 4.3541C117.803 4.34808 117.902 4.27586 117.951 4.20665C118.134 3.93583 117.969 3.53262 117.65 3.49049C117.48 3.46972 117.306 3.47475 117.13 3.47986C117.051 3.48216 116.971 3.48447 116.891 3.48447V4.36012C116.973 4.36012 117.055 4.36112 117.136 4.36211Z" fill="black"/>
</g>
</svg>
