<svg width="92" height="25" viewBox="0 0 92 25" fill="none" xmlns="http://www.w3.org/2000/svg">
<g id="TMI">
<path id="Path" d="M49.7856 23.556C49.5274 24.0018 49.1648 24.3761 48.6984 24.6364C48.2017 24.9131 47.6668 25.057 47.116 24.9788C46.5395 24.8967 46.009 24.6881 45.5686 24.2442C45.1443 23.8168 44.9232 23.3058 44.7861 22.7552C44.7398 22.5702 44.7673 22.3413 44.7461 22.1317C44.677 21.4546 44.6432 20.7731 44.5457 20.1004C44.4636 19.5343 44.4357 18.9639 44.3589 18.3979C44.242 17.5334 44.1909 16.6621 44.0808 15.7961C44.0171 15.2943 43.9833 14.7848 43.9244 14.2806C43.8448 13.5987 43.794 12.9143 43.6888 12.2347C43.6294 11.8493 43.6415 11.4523 43.5821 11.0669C43.5546 10.8858 43.5478 10.7057 43.4851 10.5154C43.3682 10.7815 43.2465 11.0452 43.1365 11.3137C42.7701 12.2096 42.408 13.107 42.044 14.0038C41.5752 15.1591 41.119 16.3202 40.631 17.4677C40.4349 17.929 40.2308 18.3911 40.043 18.8533C39.8107 19.4261 39.5684 19.9965 39.3488 20.5746C39.0528 21.3547 38.7303 22.1221 38.3895 22.8837C38.0959 23.5401 37.6624 24.0781 37.0913 24.4997C36.7804 24.7291 36.4188 24.8315 36.0278 24.9151C35.2578 25.0793 34.5882 24.9117 33.9731 24.4881C33.67 24.2799 33.4353 23.9776 33.2007 23.6835C32.7025 23.058 32.5214 22.2862 32.1869 21.586C31.8185 20.8156 31.5574 20.0023 31.2242 19.2185C30.7995 18.2177 30.4103 17.2025 29.9918 16.1994C29.5771 15.2065 29.1662 14.2116 28.7501 13.2195C28.4614 12.5308 28.1573 11.8483 27.8869 11.1529C27.8034 10.9375 27.689 10.7351 27.6291 10.4773C27.5021 10.6656 27.533 10.8675 27.5262 11.0302C27.5108 11.4079 27.4737 11.7914 27.4225 12.1555C27.351 12.6617 27.3394 13.1751 27.2351 13.6788C27.1593 14.042 27.1661 14.4216 27.126 14.7926C27.0691 15.32 26.9899 15.8454 26.9446 16.3738C26.916 16.7056 26.876 17.0354 26.8388 17.3663C26.7761 17.9236 26.7229 18.482 26.6558 19.0393C26.6124 19.4 26.5863 19.7647 26.5491 20.1274C26.5086 20.521 26.457 20.9142 26.4164 21.3068C26.3783 21.6773 26.3213 22.0472 26.3054 22.4196C26.258 23.5053 25.7236 24.2799 24.7798 24.774C24.6335 24.8508 24.4423 24.8827 24.2589 24.9044C24.0103 24.9334 23.765 24.9841 23.5121 24.9938C23.3924 24.9986 23.2977 24.9426 23.1896 24.9247C22.2641 24.7721 21.6669 24.2046 21.2488 23.4014C21.1364 23.1855 21.0915 22.9479 21.0128 22.7234C20.964 22.5828 21.0688 22.3921 21.092 22.222C21.1441 21.8395 21.1866 21.4555 21.2359 21.073C21.2971 20.5978 21.3754 20.125 21.4183 19.6483C21.4362 19.4517 21.4685 19.2508 21.4333 19.048C21.4053 18.8891 21.5134 18.7529 21.5376 18.5954C21.6341 17.9652 21.6612 17.3247 21.777 16.6997C21.862 16.2419 21.8702 15.7778 21.9445 15.319C22.0169 14.8727 22.0498 14.4124 22.1139 13.9623C22.2125 13.2702 22.282 12.5742 22.3775 11.8817C22.4452 11.3915 22.506 10.8964 22.5451 10.4004C22.5799 9.95416 22.6706 9.5132 22.7291 9.06886C22.7691 8.76464 22.7932 8.45887 22.8295 8.15418C22.8811 7.71607 22.9371 7.27853 22.9907 6.84048C23.0336 6.4884 23.0766 6.13632 23.1181 5.78422C23.1678 5.36067 23.1968 4.93372 23.2707 4.5145C23.3359 4.14793 23.3499 3.7775 23.4078 3.41141C23.5169 2.71835 23.5082 1.99969 23.8495 1.35686C24.0803 0.921711 24.4124 0.565282 24.8175 0.30448C25.0796 0.135924 25.4035 0.049473 25.7251 0.0272564C26.4 -0.0186255 27.0797 -0.0051024 27.716 0.233966C28.054 0.360987 28.3349 0.632897 28.5618 0.925095C28.8949 1.35252 29.0402 1.87606 29.2459 2.36772C29.5534 3.10134 29.8315 3.84704 30.1347 4.58261C30.628 5.78036 31.0857 6.99261 31.5661 8.19617C31.849 8.90375 32.1333 9.61125 32.4321 10.3125C32.6267 10.7689 32.7696 11.25 32.9627 11.7098C33.1269 12.1019 33.2905 12.4931 33.4667 12.88C33.6255 13.2287 33.7414 13.6112 33.8833 13.9754C34.4274 15.3668 34.9811 16.7543 35.5523 18.1975C35.7845 17.4378 36.1051 16.766 36.3604 16.0666C36.5641 15.5093 36.8127 14.964 37.0367 14.412C37.4104 13.4924 37.7575 12.5617 38.1307 11.6422C38.3827 11.021 38.6289 10.398 38.8645 9.77014C39.1523 9.00319 39.4854 8.25362 39.7875 7.492C40.0357 6.86559 40.267 6.23242 40.5088 5.6036C40.5368 5.53067 40.588 5.46692 40.6233 5.39641C40.881 4.88253 41.0191 4.32374 41.2257 3.79054C41.4603 3.18393 41.7061 2.58167 41.9547 1.98086C42.0797 1.67804 42.1758 1.34817 42.3679 1.09268C42.5557 0.84347 42.7508 0.582186 43.0322 0.403005C43.3692 0.189051 43.7371 0.128197 44.1189 0.0678257C44.6698 -0.0186255 45.223 -0.041325 45.7521 0.113708C46.6873 0.38755 47.1922 1.09027 47.4442 1.9939C47.5765 2.46914 47.6016 2.96225 47.6417 3.45198C47.6542 3.60025 47.6904 3.74659 47.7097 3.89486C47.7715 4.36479 47.8314 4.83472 47.8898 5.30464C47.9429 5.734 47.9907 6.16384 48.0453 6.5932C48.1018 7.04091 48.164 7.48765 48.222 7.9354C48.2862 8.42796 48.3504 8.92113 48.4098 9.41469C48.4474 9.72815 48.4716 10.0431 48.5102 10.3565C48.5705 10.8409 48.6628 11.3224 48.696 11.8087C48.7342 12.3608 48.8519 12.9008 48.9012 13.4513C48.9529 14.0328 49.0552 14.61 49.1276 15.19C49.1851 15.6464 49.2275 16.1043 49.2821 16.5612C49.3338 16.9924 49.3922 17.4232 49.4477 17.8546C49.4887 18.1767 49.5302 18.4988 49.5708 18.8215C49.6287 19.2764 49.6877 19.7314 49.7427 20.1868C49.7861 20.549 49.8238 20.9122 49.8643 21.2749C49.9117 21.6985 49.9816 22.1216 49.9981 22.5466C50.0116 22.8939 49.9551 23.2643 49.7856 23.556Z" fill="#073596"/>
<path id="Path_2" d="M91.8978 9.13469C91.8766 9.46026 91.7517 9.775 91.7835 10.102C91.8017 10.2836 91.6639 10.3719 91.6237 10.5159C91.5624 10.7344 91.4769 10.9456 91.3951 11.1567C91.3693 11.2208 91.3459 11.2997 91.2535 11.3012C91.1664 11.3022 91.1286 11.2459 91.1028 11.1719C90.9711 10.7956 90.7334 10.4794 90.5395 10.1395C90.4237 9.9368 90.2594 9.76211 90.1072 9.58405C89.1389 8.45644 87.8783 7.76279 86.5306 7.56604C85.1943 7.37069 83.9117 7.59612 82.7397 8.29809C81.0506 9.30929 80.0194 10.8163 79.7529 12.8353C79.4614 15.0483 80.1609 16.906 81.7358 18.4041C82.2726 18.9152 82.9002 19.3004 83.6005 19.5436C83.6861 19.5732 83.808 19.5781 83.8262 19.6951C83.8428 19.8076 83.7353 19.8569 83.6649 19.9195C83.0092 20.508 82.3551 21.098 81.6964 21.684C81.2633 22.0707 80.8348 22.4654 80.3851 22.8314C80.083 23.0766 79.7786 23.0474 79.4886 22.7889C79.1744 22.5078 78.8754 22.2094 78.5596 21.9292C78.1023 21.5237 77.6269 21.1394 77.1787 20.7236C76.9394 20.5011 76.6878 20.2954 76.4458 20.0769C75.9494 19.6289 75.4692 19.1613 74.9599 18.7301C74.5091 18.3479 74.0917 17.9296 73.6609 17.526C73.1568 17.054 72.6181 16.6159 72.1583 16.1019C71.7137 15.6052 71.2459 15.1316 70.8012 14.6349C70.1726 13.9305 69.622 13.1643 69.1346 12.3623C68.7885 11.793 68.5299 11.1507 68.3463 10.4887C68.1708 9.85441 68.0382 9.21457 68.0087 8.55407C67.9497 7.22122 68.1917 5.94654 68.7315 4.73995C69.1332 3.84068 69.7352 3.08594 70.4517 2.43874C71.039 1.90796 71.7218 1.53799 72.4664 1.29234C72.9158 1.14385 73.3746 1.08416 73.842 1.03286C74.2566 0.987481 74.6684 0.999813 75.0788 1.0077C75.3531 1.01313 75.6246 1.13152 75.899 1.19515C76.9182 1.43045 77.7139 2.04855 78.4529 2.77615C79.076 3.38981 79.5507 4.11445 79.9951 4.93726C80.2253 4.4267 80.5001 4.01431 80.7818 3.60784C81.2239 2.97051 81.7683 2.43628 82.3922 1.99675C83.1599 1.45561 84.0048 1.13695 84.9376 1.03532C85.7114 0.950973 86.4564 1.05752 87.2082 1.21489C87.8389 1.3461 88.4098 1.63467 88.9276 1.98491C89.7317 2.52902 90.3964 3.24675 90.9007 4.10804C91.3739 4.91507 91.6798 5.78868 91.8562 6.71114C91.9213 7.05643 91.9803 7.41161 91.997 7.75793C92.0174 8.2142 91.9281 8.67495 91.8978 9.13469Z" fill="#31B2E3"/>
<path id="Path_3" d="M17.2079 4.62164C17.0636 4.6577 16.9057 4.64698 16.754 4.64698C15.3012 4.64844 13.8485 4.65234 12.3957 4.64308C12.1928 4.64162 12.1453 4.69328 12.1458 4.89551C12.1516 10.6998 12.1511 16.5041 12.1497 22.3085C12.1497 22.9683 11.9957 23.5861 11.533 24.0754C11.1271 24.5048 10.6572 24.803 10.0468 24.936C9.34978 25.0876 8.74182 24.9667 8.16835 24.6076C7.5066 24.1934 7.02752 23.6246 6.89867 22.8201C6.87687 22.6861 6.90061 22.5447 6.90061 22.4069C6.90109 19.5332 6.90109 16.6596 6.90109 13.7859C6.90109 10.9123 6.8977 7.89193 6.90642 4.94521C6.9069 4.70156 6.81632 4.64503 6.60075 4.64552C5.05936 4.64795 3.51797 4.64503 1.97609 4.64016C1.50233 4.6387 1.15744 4.36044 0.822704 4.0705C0.188127 3.5213 -0.0579537 2.78937 0.011317 1.98921C0.040866 1.64517 0.212832 1.27872 0.423066 0.964889C0.743746 0.485867 1.17632 0.189098 1.74115 0.0599612C1.95041 0.0122048 2.15145 0.012692 2.35683 0.012692C7.15056 0.0112302 11.9447 0.0200021 16.739 2.25857e-05C17.3174 -0.00241462 17.7863 0.192509 18.2019 0.530212C18.6364 0.882532 18.8549 1.37423 18.961 1.93561C19.1979 3.18603 18.3235 4.34582 17.2079 4.62164Z" fill="#073596"/>
<path id="Path_4" d="M59.8992 23.1861C59.6375 23.9811 59.1442 24.5365 58.3955 24.8231C57.8131 25.0463 57.2237 25.0662 56.626 24.8372C56.17 24.6624 55.8243 24.3506 55.5155 23.9801C55.2745 23.692 55.1065 23.3652 55.0378 22.9793C55.0207 22.8854 55.0106 22.7943 55.0101 22.7014C55.0092 19.3134 55.0092 15.9249 55.0092 12.5369H55.0018C55.0018 9.11643 54.9948 5.69551 55.0082 2.27508C55.0106 1.64222 55.3359 1.14106 55.7694 0.718351C56.1515 0.34648 56.5941 0.128586 57.1148 0.0375555C57.7138 -0.0675175 58.2645 0.0515976 58.7795 0.348417C59.3597 0.683003 59.7539 1.18949 59.9113 1.87803C59.9555 2.07122 59.9939 2.26346 59.9939 2.46489C59.9916 5.82916 59.9925 9.19345 59.9925 12.5572V20.1554C59.9925 20.7123 60.0133 21.2701 59.9856 21.825C59.963 22.2782 60.0474 22.7357 59.8992 23.1861Z" fill="#073596"/>
<path id="Path_5" d="M89.1108 14.905C88.4681 14.9222 87.8255 14.9203 87.1829 14.9088C86.991 14.9056 86.9432 14.9636 86.9462 15.1468C86.9568 15.7251 86.9477 16.3038 86.9515 16.882C86.9538 17.5041 86.6822 17.8934 85.9811 17.9976C85.7793 18.0276 85.3628 17.7663 85.2399 17.5641C84.9759 17.1272 85.1018 16.6508 85.0836 16.1891C85.0995 16.182 85.1155 16.1744 85.1322 16.1672C85.1155 16.1596 85.0995 16.1525 85.0836 16.1448C85.0806 15.7965 85.0738 15.4481 85.076 15.0997C85.076 14.9793 85.0593 14.9056 84.9099 14.9117C84.2308 14.9403 83.5495 14.8679 82.8713 14.9498C82.6679 14.9741 82.212 14.5952 82.0815 14.3415C81.7818 13.7614 82.3629 13.0004 82.9464 13.0375C83.586 13.0784 84.2316 13.0365 84.8735 13.0465C85.0578 13.0494 85.098 12.9908 85.095 12.8176C85.0851 12.1917 85.0889 11.5654 85.0927 10.9396C85.095 10.4151 85.4705 10.0215 85.9402 10.001C86.5304 9.9753 86.9834 10.4513 86.9606 10.9472C86.9326 11.5545 86.9849 12.1632 86.9363 12.7714C86.925 12.9085 86.947 13.0403 87.1746 13.0318C87.7686 13.0104 88.3642 13.0199 88.959 13.0275C89.4772 13.0337 89.7966 13.2364 89.9461 13.6472C90.1335 14.1597 89.827 14.886 89.1108 14.905Z" fill="#073596"/>
<path id="Path_6" d="M85.5375 16.5003C85.5165 16.5098 85.4945 16.5199 85.4735 16.5294C85.4695 16.5161 85.4635 16.5035 85.4625 16.4902C85.4625 16.4838 85.4695 16.477 85.4735 16.4706C85.4945 16.4808 85.5165 16.4902 85.5375 16.5003Z" fill="#31B2E3"/>
</g>
</svg>
