<svg width="94" height="24" viewBox="0 0 94 24" fill="none" xmlns="http://www.w3.org/2000/svg">
<g id="Zoll">
<path id="Path" d="M1.24993 0H21.5262V4.59629L8.50948 18.0574H22V23H0V18.2306L12.8796 4.91013H1.24993V0Z" fill="#0091D2"/>
<path id="Shape" fill-rule="evenodd" clip-rule="evenodd" d="M26.1606 3.16672C24.0525 5.27734 23 8.22726 23 12.0164C23 14.7276 23.5325 16.9864 24.5959 18.7913C25.6593 20.5961 27.048 21.9159 28.7591 22.7489C30.4717 23.5835 32.6763 24 35.2452 24C37.8141 24 39.9612 23.5164 41.6831 22.5508C43.4051 21.5852 44.7222 20.2343 45.633 18.498C46.5438 16.7633 47 14.5388 47 11.8261C47 8.08999 45.9584 5.18531 43.8721 3.11056C41.7858 1.03738 38.7203 0 34.9603 0C31.2003 0 28.2655 1.05609 26.1606 3.16672ZM31.4603 17.0971C30.5915 16.0738 30.1572 14.3906 30.1572 12.0476L30.1588 12.046C30.1588 9.68112 30.5947 7.98697 31.4697 6.96367C32.3447 5.94033 33.4408 5.42867 34.9463 5.42867C36.4519 5.42867 37.6444 5.93253 38.5241 6.94027C39.4038 7.94802 39.8428 9.54537 39.8428 11.7294C39.8428 14.3267 39.4209 16.1253 38.5786 17.1283C37.7347 18.1314 36.5032 18.6322 35.007 18.6322C33.5108 18.6322 32.3291 18.1205 31.4603 17.0971Z" fill="#0091D2"/>
<path id="Path_2" d="M50 0H57.029V17.3358H68V23H50V0Z" fill="#0091D2"/>
<path id="Path_3" d="M71 0H78.0292V17.3358H89V23H71V0Z" fill="#0091D2"/>
<path id="Shape_2" fill-rule="evenodd" clip-rule="evenodd" d="M92.6044 22.1242C92.7796 22.0442 92.8911 21.8486 92.8911 21.5684C92.8911 21.225 92.7032 21 92.4057 21H92V23H92.211V22.1872H92.3928L92.4071 22.2105L92.6603 22.6547H92.6617L92.8332 22.9573L92.857 22.9981H93V22.7963L92.6044 22.1242ZM92.211 21.9447H92.4044H92.4057C92.5228 21.9447 92.6099 21.8749 92.6501 21.7604C92.6712 21.71 92.6807 21.6479 92.6807 21.5781C92.6807 21.4074 92.582 21.2542 92.4044 21.2542H92.211V21.9447Z" fill="#0091D2"/>
<path id="Shape_3" fill-rule="evenodd" clip-rule="evenodd" d="M91 21.5C91 22.3273 91.6726 23 92.5 23C93.3274 23 94 22.3273 94 21.5C94 20.6727 93.3274 20 92.5 20C91.6726 20 91 20.6727 91 21.5ZM91.1708 21.5C91.1708 20.7673 91.7673 20.1709 92.5 20.1709C93.2327 20.1709 93.8292 20.7673 93.8292 21.5C93.8292 22.2327 93.2327 22.829 92.5 22.829C91.7673 22.829 91.1708 22.2327 91.1708 21.5Z" fill="#0091D2"/>
</g>
</svg>
