<svg width="98" height="26" viewBox="0 0 98 26" fill="none" xmlns="http://www.w3.org/2000/svg">
<path fill-rule="evenodd" clip-rule="evenodd" d="M5.72545 17.3722H9.07224L14.9434 0H11.9189L7.53563 13.8032H7.48799L3.20143 0H0L5.72545 17.3722Z" fill="#050038"/>
<path fill-rule="evenodd" clip-rule="evenodd" d="M25.5959 11.7628C25.707 10.8124 25.646 9.89324 25.418 9.00004C25.1879 8.10715 24.8173 7.31768 24.3122 6.62793C23.8061 5.94107 23.1665 5.38915 22.3998 4.97078C21.6288 4.5524 20.7619 4.34322 19.7976 4.34322C18.8333 4.34322 18.0515 4.52506 17.3237 4.88377C16.5951 5.24497 15.9727 5.73153 15.4582 6.34488C14.9408 6.96141 14.5471 7.67388 14.2687 8.48221C13.9906 9.29377 13.854 10.1504 13.854 11.05C13.854 12.0334 13.9853 12.9352 14.2512 13.7556C14.5153 14.5753 14.9104 15.28 15.433 15.8677C15.9556 16.4559 16.5916 16.914 17.3486 17.2411C18.1044 17.5693 18.9721 17.733 19.9528 17.733C20.6284 17.733 21.2754 17.6375 21.8957 17.4503C22.5125 17.261 23.0719 16.9812 23.5693 16.6111C24.0667 16.2431 24.4926 15.7853 24.8488 15.2423C25.2019 14.6993 25.4516 14.0827 25.5959 13.3901H22.9276C22.6856 14.1147 22.3185 14.6577 21.8264 15.0189C21.3346 15.3811 20.6873 15.5616 19.8835 15.5616C19.3024 15.5616 18.8018 15.4604 18.3825 15.2512C17.9623 15.0445 17.6148 14.7678 17.3433 14.4201C17.0708 14.0721 16.8645 13.6679 16.7286 13.2044C16.5896 12.7409 16.5223 12.2597 16.5223 11.7628H25.5959ZM16.5223 9.9526C16.5398 9.46924 16.6309 9.01635 16.8004 8.598C16.9675 8.17965 17.1924 7.81843 17.4736 7.50698C17.7538 7.19655 18.0904 6.9529 18.4859 6.77782C18.8768 6.60273 19.3136 6.51468 19.7976 6.51468C20.2817 6.51468 20.6817 6.61054 21.0596 6.8034C21.4376 6.99626 21.7567 7.24734 22.0243 7.55878C22.288 7.86922 22.4964 8.23151 22.6499 8.65018C22.8029 9.0686 22.894 9.50009 22.9276 9.95292H16.5223V9.9526Z" fill="#050038"/>
<path fill-rule="evenodd" clip-rule="evenodd" d="M27.2515 17.3722H30.0977V9.86201C30.0977 9.40385 30.1675 8.96912 30.3086 8.55826C30.4511 8.14835 30.6484 7.79285 30.9005 7.48673C31.1514 7.18481 31.4596 6.94725 31.8214 6.77426C32.1818 6.60273 32.5934 6.5143 33.0494 6.5143C33.8498 6.5143 34.4418 6.74125 34.8207 7.19268C35.1987 7.6455 35.4018 8.36895 35.4344 9.36976V17.3722H38.1027V8.66053C38.1027 7.22461 37.7171 6.14458 36.944 5.4229C36.1721 4.70513 35.1174 4.34287 33.7804 4.34287C32.978 4.34287 32.2459 4.54424 31.5846 4.94521C30.9233 5.34725 30.3867 5.89775 29.9786 6.59918L29.9202 6.55195V3.75934H27.2515V17.3722Z" fill="#050038"/>
<path fill-rule="evenodd" clip-rule="evenodd" d="M39.2939 6.87691H41.3584V14.3263C41.3724 14.8495 41.4225 15.313 41.5094 15.7203C41.5952 16.1277 41.7592 16.4669 42.0012 16.7357C42.2422 17.0042 42.5788 17.2081 43.0068 17.3459C43.4348 17.4826 44.0079 17.553 44.7249 17.553C45.0278 17.553 45.322 17.5299 45.6124 17.4936C45.901 17.4507 46.1956 17.4123 46.5018 17.3725V15.282C46.3077 15.3325 46.1154 15.3613 45.9231 15.3702C45.7322 15.378 45.5399 15.3811 45.3476 15.3811C45.0425 15.3811 44.8036 15.345 44.6285 15.2711C44.4506 15.1972 44.3192 15.0871 44.2313 14.9397C44.1424 14.7934 44.0856 14.6151 44.0639 14.4034C44.039 14.191 44.0282 13.9364 44.0282 13.6423V6.87653H46.5021V4.70512H44.0282V0.0536194L41.3588 0.90493V4.70512H39.2943V6.87691H39.2939Z" fill="#050038"/>
<path d="M50.8414 4.70511H48.1731V17.3722H50.8414V4.70511Z" fill="#050038"/>
<path d="M48.1731 0V2.71412V2.80894H50.8417V0H48.1731Z" fill="#050038"/>
<path fill-rule="evenodd" clip-rule="evenodd" d="M63.9359 8.86653C63.8721 8.09223 63.683 7.4249 63.3656 6.85914C63.0494 6.2941 62.6437 5.82742 62.146 5.45735C61.6487 5.08763 61.0784 4.8099 60.4388 4.62272C59.7992 4.43662 59.1236 4.34322 58.4157 4.34322C57.4034 4.34322 56.5228 4.52151 55.7712 4.87169C55.0205 5.22508 54.3929 5.70844 53.8868 6.32287C53.3806 6.93621 53.0027 7.65966 52.7498 8.49643C52.4965 9.33351 52.3718 10.2242 52.3718 11.1736C52.3718 12.123 52.5 12.975 52.7606 13.778C53.0226 14.5806 53.4058 15.2735 53.912 15.8556C54.4178 16.4385 55.0381 16.8962 55.7712 17.2301C56.5054 17.5636 57.3558 17.7334 58.3211 17.7334C59.9001 17.7334 61.1674 17.3008 62.1232 16.4306C63.0801 15.5619 63.683 14.3064 63.9359 12.6671H61.2676C61.1393 13.583 60.8147 14.2955 60.2977 14.8022C59.7775 15.3112 59.118 15.5619 58.3211 15.5619C57.7312 15.5619 57.2286 15.4352 56.8136 15.1776C56.3967 14.9234 56.0577 14.5874 55.794 14.1747C55.5299 13.7616 55.3379 13.2925 55.2185 12.7629C55.099 12.2345 55.0402 11.706 55.0402 11.1739C55.0402 10.2015 55.1523 9.41312 55.3737 8.80756C55.5964 8.20625 55.8777 7.73603 56.2132 7.39684C56.5477 7.05771 56.9138 6.82651 57.3145 6.70215C57.7152 6.57753 58.0899 6.51468 58.4409 6.51468C59.2076 6.51468 59.842 6.71281 60.3446 7.1085C60.8476 7.50482 61.1558 8.09299 61.2679 8.86723H63.9359V8.86653Z" fill="#050038"/>
<path fill-rule="evenodd" clip-rule="evenodd" d="M73.4187 13.1106C73.4187 13.5634 73.3154 13.9421 73.1088 14.2503C72.904 14.559 72.6486 14.8133 72.3424 15.0136C72.0338 15.2149 71.7063 15.3559 71.3589 15.4376C71.0114 15.5225 70.6889 15.5619 70.389 15.5619C70.1486 15.5619 69.885 15.5399 69.5939 15.4891C69.3015 15.4376 69.0342 15.3503 68.79 15.2259C68.5459 15.1016 68.3342 14.9287 68.1614 14.7106C67.9899 14.4958 67.9035 14.2273 67.9035 13.9111C67.9035 13.5467 67.9623 13.2349 68.0813 12.975C68.1984 12.7172 68.3593 12.5083 68.5646 12.3506C68.7712 12.1922 69.0067 12.0675 69.2765 11.9773C69.5432 11.8871 69.8206 11.8133 70.1054 11.7625C70.7033 11.6492 71.3031 11.5643 71.9042 11.5071C72.5033 11.451 73.0073 11.2816 73.4193 11.0039V13.1106H73.4187ZM76.0871 8.04182C76.0871 7.36916 75.9431 6.79737 75.6594 6.3282C75.3727 5.85797 74.997 5.47689 74.53 5.18317C74.0629 4.8891 73.5351 4.67458 72.9522 4.54105C72.3643 4.41106 71.7727 4.34286 71.1723 4.34286C70.4892 4.34286 69.8243 4.40786 69.1776 4.53785C68.5271 4.6689 67.9454 4.89123 67.4314 5.21371C66.9136 5.53655 66.4917 5.96594 66.1605 6.4976C65.8268 7.02819 65.6377 7.69908 65.5914 8.50493H68.2597C68.3236 7.82554 68.6041 7.32231 69.1043 7.00089C69.6021 6.6784 70.2382 6.51392 71.0114 6.51392C71.2844 6.51392 71.5761 6.53741 71.8816 6.57892C72.1872 6.6219 72.4658 6.70678 72.7156 6.83108C72.9648 6.95754 73.1739 7.13935 73.3435 7.37627C73.5107 7.6142 73.5965 7.91683 73.5965 8.28725C73.5965 8.70884 73.4963 9.02492 73.3022 9.23448C73.1044 9.44683 72.8383 9.60204 72.4983 9.70362C72.159 9.80589 71.7671 9.87978 71.3288 9.91813C70.8868 9.9611 70.4216 10.0318 69.9351 10.1341C69.3679 10.199 68.8044 10.2914 68.2453 10.4135C67.6875 10.5379 67.1835 10.736 66.7333 11.0127C66.2825 11.2904 65.9207 11.6712 65.6464 12.1581C65.3716 12.6447 65.2351 13.2779 65.2351 14.0554C65.2351 14.6719 65.3491 15.2118 65.577 15.6753C65.8055 16.1387 66.1104 16.5212 66.4948 16.8202C66.878 17.12 67.3225 17.3487 67.8265 17.5022C68.3261 17.6542 68.8514 17.7334 69.4023 17.7334C70.1223 17.7334 70.8693 17.6123 71.6481 17.3725C72.427 17.1314 73.0825 16.7446 73.6159 16.213C73.7242 16.778 73.9615 17.1712 74.3221 17.3977C74.684 17.6215 75.1367 17.7334 75.687 17.7334C75.7953 17.7334 75.9293 17.7259 76.0877 17.7117C76.2461 17.6918 76.4045 17.6688 76.5654 17.6378C76.7275 17.6037 76.8822 17.5675 77.0356 17.5299C77.1852 17.488 77.3104 17.4507 77.4081 17.4198V15.5147C77.2635 15.5477 77.132 15.5619 77.0218 15.5619H76.7344C76.4796 15.5619 76.3068 15.4891 76.2179 15.3417C76.1284 15.1954 76.0877 14.9465 76.0877 14.6005V8.04182H76.0871Z" fill="#050038"/>
<path fill-rule="evenodd" clip-rule="evenodd" d="M78.6313 17.3722H81.4775V11.3718C81.4775 10.6771 81.5639 10.057 81.7417 9.51964C81.9164 8.98334 82.1556 8.53267 82.4617 8.16612C82.7666 7.80065 83.1229 7.52399 83.5317 7.33685C83.9374 7.15071 84.3744 7.05733 84.8409 7.05733C85.0325 7.05733 85.2297 7.07155 85.43 7.09358C85.6304 7.11986 85.8251 7.14754 86.016 7.17954V4.52471C85.8889 4.48493 85.7631 4.44551 85.6435 4.40573C85.5239 4.36595 85.3042 4.34286 84.9855 4.34286C84.5685 4.34286 84.1603 4.42527 83.7596 4.5897C83.3589 4.75378 82.9945 4.97079 82.6671 5.23929C82.339 5.51134 82.0592 5.80754 81.825 6.13571C81.5915 6.46389 81.4331 6.79737 81.3498 7.14011H81.2997V4.70513H78.6313V17.3722Z" fill="#050038"/>
<path fill-rule="evenodd" clip-rule="evenodd" d="M97.9461 11.7628C98.0569 10.8124 97.9962 9.89324 97.7683 9.00004C97.5379 8.10715 97.1679 7.31768 96.6626 6.62793C96.1561 5.94107 95.5169 5.38915 94.7499 4.97078C93.9805 4.5524 93.1127 4.34322 92.1479 4.34322C91.1831 4.34322 90.4018 4.52506 89.6743 4.88377C88.9449 5.24497 88.3232 5.73153 87.8079 6.34488C87.2914 6.96141 86.8969 7.67388 86.619 8.48221C86.3403 9.29377 86.2039 10.1504 86.2039 11.05C86.2039 12.0334 86.336 12.9352 86.6014 13.7556C86.865 14.5753 87.2607 15.28 87.7828 15.8677C88.3056 16.4559 88.943 16.914 89.6987 17.2411C90.455 17.5693 91.3221 17.733 92.3032 17.733C92.9787 17.733 93.6255 17.6375 94.2459 17.4503C94.8626 17.261 95.4217 16.9812 95.9195 16.6111C96.4166 16.2431 96.8423 15.7853 97.1986 15.2423C97.551 14.6993 97.8015 14.0827 97.9455 13.3901H95.2771C95.0354 14.1147 94.6679 14.6577 94.1764 15.0189C93.6843 15.3811 93.0376 15.5616 92.2337 15.5616C91.6521 15.5616 91.1518 15.4604 90.7323 15.2512C90.3122 15.0445 89.9641 14.7678 89.693 14.4201C89.4207 14.0721 89.2141 13.6679 89.0782 13.2044C88.9392 12.7409 88.8729 12.2597 88.8729 11.7628H97.9461ZM88.8735 9.9526C88.8898 9.46924 88.9812 9.01635 89.1508 8.598C89.318 8.17965 89.5428 7.81843 89.8239 7.50698C90.1044 7.19655 90.4412 6.9529 90.8363 6.77782C91.2288 6.60273 91.664 6.51468 92.1485 6.51468C92.6325 6.51468 93.0326 6.61054 93.4101 6.8034C93.7883 6.99626 94.1076 7.24734 94.3749 7.55878C94.6385 7.86922 94.847 8.23151 95.0004 8.65018C95.1531 9.0686 95.2445 9.50009 95.2783 9.95292H88.8735V9.9526Z" fill="#050038"/>
<path d="M43.5198 26H0.10083L1.00381 23.1645H22.2618H43.5198V26Z" fill="#050038"/>
<path d="M39.9793 23.1645H35.4136V26H39.9793V23.1645Z" fill="#42BFEA"/>
<path d="M52.4641 23.1645H38.1157V26H52.4641V23.1645Z" fill="#8FD2E9"/>
<path d="M96.97 26H52.4639V23.1645H97.839L96.97 26Z" fill="#050038"/>
</svg>
