<svg width="157" height="41" viewBox="0 0 157 41" fill="none" xmlns="http://www.w3.org/2000/svg">
<path fill-rule="evenodd" clip-rule="evenodd" d="M9.14483 27.3651H14.4904L23.868 0H19.0371L12.0361 21.7432H11.96L5.11341 0H0L9.14483 27.3651Z" fill="#050038"/>
<path fill-rule="evenodd" clip-rule="evenodd" d="M40.8834 18.5291C41.0608 17.032 40.9634 15.5841 40.5992 14.1771C40.2317 12.7706 39.6398 11.527 38.833 10.4405C38.0246 9.35854 37.003 8.48914 35.7784 7.83011C34.547 7.17107 33.1624 6.84155 31.6222 6.84155C30.082 6.84155 28.8333 7.12799 27.6708 7.69304C26.5071 8.26201 25.513 9.02846 24.6911 9.99463C23.8648 10.9658 23.236 12.0881 22.7912 13.3614C22.347 14.6398 22.1289 15.9892 22.1289 17.4063C22.1289 18.9554 22.3386 20.3759 22.7633 21.6682C23.1851 22.9594 23.8162 24.0694 24.6509 24.9953C25.4856 25.9217 26.5015 26.6434 27.7105 27.1587C28.9178 27.6756 30.3036 27.9335 31.8701 27.9335C32.9492 27.9335 33.9826 27.783 34.9733 27.4882C35.9585 27.19 36.852 26.7492 37.6464 26.1662C38.4408 25.5866 39.1211 24.8655 39.6901 24.0101C40.254 23.1547 40.6529 22.1835 40.8834 21.0925H36.6215C36.2349 22.2338 35.6486 23.0892 34.8626 23.6582C34.0771 24.2288 33.0432 24.513 31.7593 24.513C30.8312 24.513 30.0317 24.3536 29.362 24.0241C28.6907 23.6985 28.1357 23.2626 27.7021 22.7149C27.2669 22.1667 26.9374 21.53 26.7203 20.7999C26.4982 20.0698 26.3908 19.3118 26.3908 18.5291H40.8834ZM26.3908 15.6776C26.4187 14.9162 26.5642 14.2028 26.835 13.5438C27.1018 12.8848 27.461 12.3158 27.9102 11.8252C28.3578 11.3362 28.8954 10.9524 29.5271 10.6766C30.1514 10.4008 30.8491 10.2621 31.6222 10.2621C32.3954 10.2621 33.0343 10.4131 33.6379 10.7169C34.2416 11.0207 34.7512 11.4162 35.1787 11.9068C35.5999 12.3958 35.9328 12.9665 36.1779 13.626C36.4223 14.2851 36.5678 14.9648 36.6215 15.6781H26.3908V15.6776Z" fill="#050038"/>
<path fill-rule="evenodd" clip-rule="evenodd" d="M43.5273 27.3652H48.0734V15.535C48.0734 14.8133 48.1848 14.1285 48.4102 13.4813C48.6379 12.8356 48.9529 12.2756 49.3557 11.7934C49.7563 11.3178 50.2486 10.9436 50.8265 10.6711C51.4022 10.4009 52.0595 10.2616 52.7879 10.2616C54.0663 10.2616 55.0118 10.6191 55.6171 11.3302C56.2208 12.0435 56.5452 13.1831 56.5973 14.7596V27.3652H60.8592V13.6424C60.8592 11.3805 60.2432 9.67917 59.0085 8.54237C57.7755 7.41171 56.091 6.84106 53.9555 6.84106C52.6738 6.84106 51.5046 7.15828 50.4483 7.7899C49.3921 8.4232 48.535 9.29036 47.8832 10.3953L47.7898 10.3209V5.92188H43.5273V27.3652Z" fill="#050038"/>
<path fill-rule="evenodd" clip-rule="evenodd" d="M62.7617 10.8327H66.0591V22.5672C66.0815 23.3913 66.1615 24.1214 66.3003 24.7631C66.4373 25.4048 66.6992 25.9391 67.0858 26.3626C67.4707 26.7855 68.0083 27.1066 68.6919 27.3237C69.3756 27.5391 70.2909 27.6499 71.4361 27.6499C71.92 27.6499 72.3899 27.6135 72.8537 27.5564C73.3147 27.4888 73.7852 27.4283 74.2742 27.3657V24.0727C73.9642 24.1522 73.6571 24.1975 73.35 24.2115C73.045 24.2238 72.7379 24.2288 72.4308 24.2288C71.9435 24.2288 71.5619 24.1718 71.2822 24.0554C70.998 23.939 70.7882 23.7656 70.6478 23.5334C70.5057 23.3029 70.4151 23.0221 70.3804 22.6886C70.3406 22.3541 70.3233 21.953 70.3233 21.4897V10.8321H74.2747V7.41164H70.3233V0.0844727L66.0597 1.42548V7.41164H62.7623V10.8327H62.7617Z" fill="#050038"/>
<path d="M81.2053 7.41162H76.9434V27.3651H81.2053V7.41162Z" fill="#050038"/>
<path d="M76.9434 0V4.27535V4.42472H81.2058V0H76.9434Z" fill="#050038"/>
<path fill-rule="evenodd" clip-rule="evenodd" d="M102.121 13.9668C102.019 12.7471 101.717 11.6959 101.21 10.8047C100.705 9.91463 100.057 9.17951 99.262 8.59656C98.4676 8.01417 97.5568 7.57668 96.5352 7.28184C95.5136 6.98869 94.4345 6.84155 93.3038 6.84155C91.687 6.84155 90.2805 7.1224 89.0799 7.67402C87.881 8.23068 86.8785 8.99209 86.0701 9.95995C85.2617 10.9261 84.658 12.0657 84.2541 13.3838C83.8496 14.7024 83.6504 16.1055 83.6504 17.601C83.6504 19.0964 83.8552 20.4385 84.2714 21.7034C84.6899 22.9678 85.3019 24.0593 86.1104 24.9762C86.9182 25.8943 87.909 26.6154 89.0799 27.1413C90.2526 27.6667 91.6109 27.9341 93.1528 27.9341C95.6748 27.9341 97.6989 27.2527 99.2256 25.882C100.754 24.5136 101.717 22.5359 102.121 19.9535H97.8589C97.6541 21.3963 97.1355 22.5186 96.3098 23.3169C95.479 24.1186 94.4255 24.5136 93.1528 24.5136C92.2106 24.5136 91.4078 24.3139 90.7449 23.9082C90.0791 23.5077 89.5376 22.9784 89.1163 22.3284C88.6945 21.6777 88.3879 20.9387 88.1971 20.1045C88.0063 19.2721 87.9124 18.4396 87.9124 17.6015C87.9124 16.0697 88.0914 14.8278 88.445 13.8739C88.8008 12.9267 89.25 12.186 89.786 11.6517C90.3202 11.1175 90.9049 10.7533 91.5449 10.5574C92.1849 10.3611 92.7835 10.2621 93.3441 10.2621C94.5687 10.2621 95.5819 10.5742 96.3847 11.1975C97.1881 11.8218 97.6804 12.7483 97.8594 13.9679H102.121V13.9668Z" fill="#050038"/>
<path fill-rule="evenodd" clip-rule="evenodd" d="M117.266 20.6523C117.266 21.3656 117.101 21.962 116.771 22.4476C116.444 22.9338 116.036 23.3344 115.547 23.6499C115.054 23.9671 114.531 24.1892 113.976 24.3179C113.421 24.4516 112.906 24.5137 112.427 24.5137C112.043 24.5137 111.622 24.479 111.157 24.399C110.69 24.3179 110.263 24.1803 109.873 23.9844C109.483 23.7886 109.145 23.5162 108.869 23.1727C108.595 22.8342 108.457 22.4113 108.457 21.9133C108.457 21.3393 108.551 20.8481 108.741 20.4386C108.928 20.0325 109.185 19.7035 109.513 19.4551C109.843 19.2056 110.219 19.0092 110.65 18.8671C111.076 18.725 111.519 18.6087 111.974 18.5287C112.929 18.3502 113.887 18.2165 114.847 18.1264C115.804 18.038 116.609 17.7712 117.267 17.3337V20.6523H117.266ZM121.528 12.6678C121.528 11.6082 121.298 10.7075 120.845 9.96841C120.387 9.22769 119.787 8.6274 119.041 8.16473C118.295 7.7015 117.452 7.36359 116.521 7.15324C115.582 6.94848 114.637 6.84106 113.678 6.84106C112.587 6.84106 111.525 6.94344 110.492 7.1482C109.453 7.35464 108.524 7.70486 107.703 8.21284C106.876 8.72139 106.202 9.39777 105.673 10.2353C105.14 11.0711 104.838 12.1279 104.764 13.3973H109.026C109.128 12.3271 109.576 11.5344 110.375 11.0281C111.17 10.5201 112.186 10.261 113.421 10.261C113.857 10.261 114.323 10.298 114.811 10.3634C115.299 10.4311 115.744 10.5648 116.143 10.7606C116.541 10.9598 116.875 11.2462 117.146 11.6194C117.413 11.9942 117.55 12.4709 117.55 13.0544C117.55 13.7185 117.39 14.2164 117.08 14.5465C116.764 14.881 116.339 15.1255 115.796 15.2855C115.254 15.4466 114.628 15.563 113.928 15.6234C113.222 15.6911 112.479 15.8024 111.702 15.9636C110.796 16.0659 109.896 16.2114 109.003 16.4038C108.112 16.5997 107.307 16.9118 106.588 17.3476C105.868 17.7851 105.29 18.3849 104.852 19.1519C104.413 19.9183 104.195 20.9158 104.195 22.1405C104.195 23.1117 104.377 23.9621 104.741 24.6922C105.106 25.4222 105.593 26.0248 106.207 26.4958C106.819 26.968 107.529 27.3283 108.334 27.57C109.132 27.8094 109.971 27.9342 110.851 27.9342C112.001 27.9342 113.194 27.7434 114.438 27.3658C115.682 26.9859 116.729 26.3767 117.581 25.5392C117.754 26.4293 118.133 27.0486 118.709 27.4055C119.287 27.758 120.01 27.9342 120.889 27.9342C121.062 27.9342 121.276 27.9224 121.529 27.9001C121.782 27.8687 122.035 27.8324 122.292 27.7837C122.551 27.73 122.798 27.6729 123.043 27.6136C123.282 27.5476 123.482 27.4889 123.638 27.4402V24.4393C123.407 24.4913 123.197 24.5137 123.021 24.5137H122.562C122.155 24.5137 121.879 24.399 121.737 24.1668C121.594 23.9363 121.529 23.5442 121.529 22.9992V12.6678H121.528Z" fill="#050038"/>
<path fill-rule="evenodd" clip-rule="evenodd" d="M125.592 27.3652H130.138V17.9133C130.138 16.819 130.276 15.8422 130.56 14.9957C130.839 14.1509 131.221 13.441 131.71 12.8636C132.197 12.2879 132.766 11.8521 133.419 11.5573C134.067 11.2641 134.765 11.117 135.51 11.117C135.816 11.117 136.131 11.1394 136.451 11.1741C136.771 11.2155 137.082 11.2591 137.387 11.3095V7.1275C137.184 7.06485 136.983 7.00275 136.792 6.94009C136.601 6.87743 136.25 6.84106 135.741 6.84106C135.075 6.84106 134.423 6.97086 133.783 7.22988C133.143 7.48835 132.561 7.83018 132.038 8.25313C131.514 8.68167 131.067 9.14825 130.693 9.66519C130.32 10.1822 130.067 10.7075 129.934 11.2474H129.854V7.41171H125.592V27.3652Z" fill="#050038"/>
<path fill-rule="evenodd" clip-rule="evenodd" d="M156.442 18.5291C156.619 17.032 156.523 15.5841 156.159 14.1771C155.791 12.7706 155.199 11.527 154.392 10.4405C153.583 9.35854 152.562 8.48914 151.337 7.83011C150.108 7.17107 148.723 6.84155 147.182 6.84155C145.641 6.84155 144.392 7.12799 143.231 7.69304C142.066 8.26201 141.072 9.02846 140.25 9.99463C139.424 10.9658 138.794 12.0881 138.35 13.3614C137.905 14.6398 137.688 15.9892 137.688 17.4063C137.688 18.9554 137.898 20.3759 138.322 21.6682C138.743 22.9594 139.376 24.0694 140.21 24.9953C141.045 25.9217 142.062 26.6434 143.269 27.1587C144.477 27.6756 145.862 27.9335 147.429 27.9335C148.508 27.9335 149.542 27.783 150.533 27.4882C151.517 27.19 152.41 26.7492 153.205 26.1662C154 25.5866 154.68 24.8655 155.249 24.0101C155.812 23.1547 156.212 22.1835 156.441 21.0925H152.179C151.793 22.2338 151.207 23.0892 150.422 23.6582C149.635 24.2288 148.602 24.513 147.318 24.513C146.389 24.513 145.59 24.3536 144.92 24.0241C144.249 23.6985 143.694 23.2626 143.26 22.7149C142.826 22.1667 142.496 21.53 142.279 20.7999C142.056 20.0698 141.951 19.3118 141.951 18.5291H156.442ZM141.951 15.6776C141.977 14.9162 142.123 14.2028 142.394 13.5438C142.661 12.8848 143.021 12.3158 143.47 11.8252C143.918 11.3362 144.456 10.9524 145.087 10.6766C145.714 10.4008 146.408 10.2621 147.182 10.2621C147.955 10.2621 148.594 10.4131 149.198 10.7169C149.801 11.0207 150.311 11.4162 150.738 11.9068C151.16 12.3958 151.493 12.9665 151.738 13.626C151.982 14.2851 152.127 14.9648 152.181 15.6781H141.951V15.6776Z" fill="#050038"/>
<path d="M69.512 40.9559H0.162109L1.60438 36.4893H35.5582H69.512V40.9559Z" fill="#050038"/>
<path d="M63.857 36.4893H56.5645V40.9559H63.857V36.4893Z" fill="#42BFEA"/>
<path d="M83.7964 36.4893H60.8789V40.9559H83.7964V36.4893Z" fill="#8FD2E9"/>
<path d="M154.883 40.9559H83.7969V36.4893H156.271L154.883 40.9559Z" fill="#050038"/>
</svg>
