<?xml version="1.0" encoding="utf-8"?>
<svg width="142px" height="157px" viewBox="0 0 142 157" version="1.1" xmlns:xlink="http://www.w3.org/1999/xlink" xmlns="http://www.w3.org/2000/svg">
  <path d="M3221 -14216.4C3223.37 -14213.2 3225.89 -14210 3228.61 -14207L3390 -14368.4C3386.97 -14371.1 3383.83 -14373.6 3380.59 -14376L3221 -14216.4ZM3247.41 -14191L3407 -14350.6C3404.64 -14353.8 3402.12 -14357 3399.39 -14360L3238 -14198.6C3241.04 -14195.9 3244.17 -14193.4 3247.41 -14191M3268.37 -14177L3419 -14327.6C3417.33 -14331.5 3415.42 -14335.3 3413.3 -14339L3257 -14182.7C3260.71 -14180.6 3264.53 -14178.7 3268.37 -14177M3294.85 -14170L3427 -14302.1C3426.2 -14306.8 3425.14 -14311.4 3423.78 -14316L3281 -14173.2C3285.56 -14171.9 3290.18 -14170.8 3294.85 -14170M3328.89 -14168.9L3428.11 -14268.1C3428.83 -14274 3429.11 -14280 3428.96 -14286L3311 -14168C3316.97 -14167.9 3322.97 -14168.2 3328.89 -14168.9M3395.1 -14201.9C3408.22 -14215 3417.52 -14230.5 3423 -14247L3350 -14174C3366.5 -14179.5 3381.98 -14188.8 3395.1 -14201.9M3359.63 -14388L3209 -14237.4C3210.68 -14233.5 3212.59 -14229.7 3214.7 -14226L3371 -14382.3C3367.29 -14384.4 3363.47 -14386.3 3359.63 -14388M3333.15 -14396L3201 -14263.8C3201.8 -14259.2 3202.86 -14254.6 3204.22 -14250L3347 -14392.8C3342.44 -14394.1 3337.82 -14395.2 3333.15 -14396M3299.11 -14397.1L3199.89 -14297.9C3199.17 -14292 3198.89 -14286 3199.04 -14280L3317 -14398C3311.03 -14398.1 3305.03 -14397.8 3299.11 -14397.1M3279 -14392L3206 -14319C3211.48 -14335.5 3220.78 -14351 3233.9 -14364.1C3247.02 -14377.2 3262.5 -14386.5 3279 -14392" id="Fill-1" fill="#42BFEA" fill-opacity="0.5285296" fill-rule="evenodd" stroke="none" />
</svg>