<svg width="21" height="21" viewBox="0 0 21 21" fill="none" xmlns="http://www.w3.org/2000/svg">
<path fill-rule="evenodd" clip-rule="evenodd" d="M19.3662 15.0105C19.3599 16.1271 18.9884 17.1209 18.2126 17.9517C17.3363 18.8908 16.2294 19.3818 14.9311 19.3898C11.9756 19.4076 9.02019 19.4082 6.06536 19.3928C3.84213 19.3818 1.96512 17.7483 1.67956 15.6134C1.65365 15.421 1.64039 15.2274 1.64039 15.0326C1.64165 11.9839 1.63786 8.93571 1.64165 5.88756C1.64418 3.74893 3.37272 1.87456 5.55362 1.63551C5.99839 1.58696 6.44569 1.59863 6.89236 1.59863C9.56921 1.60048 12.2454 1.59925 14.9223 1.59986C17.16 1.60048 19.0914 3.28618 19.334 5.45246C19.3555 5.64543 19.3649 5.84024 19.3649 6.03443C19.3675 7.47678 19.3662 8.91912 19.3662 10.3615H19.3687C19.3687 11.9113 19.3757 13.4606 19.3662 15.0105ZM20.9892 10.5065C20.9892 9.02851 20.9823 7.55052 20.9918 6.07254C20.9987 4.98479 20.7624 3.95788 20.1938 3.01885C19.1691 1.32577 17.6528 0.331436 15.6463 0.0591917C14.993 -0.0293031 14.3341 0.00818429 13.6777 0.00634065C11.1638 0.00203882 8.6506 0.00818429 6.13739 0.0100279C5.60859 0.0100279 5.08926 0.076399 4.57816 0.206068C1.89942 0.885758 0.0242969 3.22472 0.00787063 5.92935C-0.00413316 7.98501 0.00218462 10.0413 0.00723885 12.0969C0.0103977 13.1865 -0.021823 14.2761 0.0287193 15.3645C0.0969514 16.8197 0.657339 18.0783 1.69282 19.1255C2.7978 20.244 4.14791 20.8788 5.7501 20.9679C6.50129 21.0103 7.25374 20.9851 8.00555 20.9851C10.3608 20.9858 12.7174 21.0294 15.0714 20.9642C17.354 20.9003 19.0806 19.8335 20.2267 17.9106C20.782 16.9777 21.0031 15.9538 21 14.879C20.9956 13.4219 20.9987 11.9642 20.9987 10.5065H20.9892Z" fill="#050038"/>
<path fill-rule="evenodd" clip-rule="evenodd" d="M10.46 14.0901C8.41873 14.087 6.7401 12.4253 6.7382 10.4206C6.73694 8.38404 8.45601 6.72046 10.587 6.75057C12.6131 6.77884 14.2867 8.4332 14.2842 10.452C14.2816 12.4609 12.5657 14.0932 10.46 14.0901ZM4.75379 10.412C4.75063 13.5204 7.34408 16.0456 10.5409 16.0456C13.7257 16.045 16.3147 13.5223 16.3166 10.417C16.3185 7.30428 13.7339 4.79078 10.5301 4.78955C7.34029 4.78894 4.75758 7.30305 4.75379 10.412Z" fill="#050038"/>
<path fill-rule="evenodd" clip-rule="evenodd" d="M17.7836 4.71912C17.7823 5.44736 17.1543 6.05085 16.4 6.04962C15.6418 6.04778 15.0259 5.44798 15.0265 4.71175C15.0271 3.96999 15.6362 3.37757 16.3993 3.37695C17.1695 3.37695 17.7855 3.97429 17.7836 4.71912Z" fill="#050038"/>
</svg>
