<svg width="27" height="27" viewBox="0 0 27 27" fill="none" xmlns="http://www.w3.org/2000/svg">
<path fill-rule="evenodd" clip-rule="evenodd" d="M13.8046 0C15.5926 0 17.0928 1.23239 17.502 2.89408L17.5528 3.14169L17.7186 3.2323C20.796 4.97447 22.827 8.13432 23.1249 11.7158L23.1508 12.1154L23.1433 16.1444C23.3149 17.5628 24.15 18.8154 25.3933 19.5194C26.2796 20.0213 25.9798 21.3346 25.0227 21.453L24.8815 21.4615H18.9969V21.8077C18.9969 24.6753 16.6723 27 13.8046 27C11.0295 27 8.76286 24.8229 8.61951 22.0835L8.61232 21.8077V21.4615H2.7277C1.66065 21.4615 1.28748 20.0452 2.216 19.5194C3.37637 18.8624 4.18115 17.7274 4.41677 16.5273L4.45847 16.2692L4.45961 12.0667C4.63326 8.36708 6.69928 5.03878 9.89067 3.23229L10.0551 3.14169L10.0583 3.12325C10.3673 1.42098 11.8079 0.112993 13.5727 0.0069491L13.8046 0ZM9.64877 19.3846C9.64944 19.3846 9.65011 19.3846 9.65078 19.3846C9.65145 19.3846 9.65212 19.3846 9.65279 19.3846H17.9565C17.9571 19.3846 17.9578 19.3846 17.9585 19.3846C17.9591 19.3846 17.9598 19.3846 17.9605 19.3846H22.2369L22.2281 19.371C21.674 18.57 21.2925 17.6353 21.1226 16.6131L21.0739 16.2692L21.075 12.1641C20.925 8.9674 19.023 6.11448 16.1299 4.74649C15.8123 4.59629 15.5953 4.29762 15.5461 3.95628L15.5354 3.80769C15.5354 2.85181 14.7605 2.07692 13.8046 2.07692C12.9085 2.07692 12.1714 2.75798 12.0828 3.63073L12.0701 3.89822L12.0644 3.94861L12.0368 4.08376L11.9922 4.21191L11.9321 4.33182L11.8925 4.39427L11.8098 4.49993L11.7697 4.542L11.713 4.59495L11.6026 4.67768L11.4793 4.74649C8.69339 6.06382 6.82654 8.75811 6.55911 11.7669L6.53539 12.1154L6.52787 16.394C6.4024 17.4305 6.03455 18.4065 5.47094 19.2519L5.37647 19.3846H9.64877ZM16.92 21.4615H10.6892V21.8077C10.6892 23.5283 12.084 24.9231 13.8046 24.9231C15.4535 24.9231 16.8032 23.6421 16.9128 22.021L16.92 21.8077V21.4615Z" fill="white"/>
</svg>
