<svg width="16" height="16" viewBox="0 0 16 16" fill="none" xmlns="http://www.w3.org/2000/svg">
<mask id="mask0_5_3053" style="mask-type:luminance" maskUnits="userSpaceOnUse" x="0" y="2" width="16" height="11">
<path fill-rule="evenodd" clip-rule="evenodd" d="M0 2H16V13H0V2Z" fill="white"/>
</mask>
<g mask="url(#mask0_5_3053)">
<path fill-rule="evenodd" clip-rule="evenodd" d="M3.89524 4.62561H2.25514C1.91564 4.62561 1.6401 4.32848 1.6401 3.96237C1.6401 3.59627 1.91564 3.29914 2.25514 3.29914H3.89524C4.23474 3.29914 4.51028 3.59627 4.51028 3.96237C4.51028 4.32848 4.23474 4.62561 3.89524 4.62561ZM3.89524 8.16287H0.615038C0.275537 8.16287 0 7.86574 0 7.49963C0 7.13353 0.275537 6.8364 0.615038 6.8364H3.89524C4.23474 6.8364 4.51028 7.13353 4.51028 7.49963C4.51028 7.86574 4.23474 8.16287 3.89524 8.16287ZM3.89524 11.7001H2.25514C1.91564 11.7001 1.6401 11.403 1.6401 11.0369C1.6401 10.6708 1.91564 10.3737 2.25514 10.3737H3.89524C4.23474 10.3737 4.51028 10.6708 4.51028 11.0369C4.51028 11.403 4.23474 11.7001 3.89524 11.7001ZM6.81954 8.16287L6.26354 10.2605C6.15202 10.6832 6.26846 11.1068 6.57434 11.3959C6.88186 11.6851 7.28615 11.7532 7.66009 11.5763L14.1549 8.51218C14.5395 8.33001 14.7699 7.9524 14.7699 7.49963C14.7699 7.04686 14.5395 6.66838 14.1549 6.48621L7.66009 3.42294C7.28615 3.24608 6.88104 3.31417 6.57516 3.60334C6.26846 3.89163 6.1512 4.31698 6.26354 4.7388L6.81954 6.8364H9.22556C9.56507 6.8364 9.8406 7.13353 9.8406 7.49963C9.8406 7.86574 9.56507 8.16287 9.22556 8.16287H6.81954ZM7.2435 13.0001C6.71047 13.0001 6.18728 12.7923 5.76495 12.3943C5.10071 11.7682 4.8383 10.8114 5.08103 9.89613L5.71575 7.49963L5.08103 5.10402C4.8383 4.18787 5.10071 3.23104 5.76495 2.60406C6.42919 1.97708 7.34355 1.82498 8.15294 2.20789L14.6477 5.27116C15.4817 5.66468 16 6.51893 16 7.49963C16 8.48034 15.4817 9.3337 14.6477 9.72811L8.15294 12.7923C7.85854 12.932 7.54938 13.0001 7.2435 13.0001Z" fill="#050038"/>
</g>
</svg>
