<svg width="25" height="25" viewBox="0 0 25 25" fill="none" xmlns="http://www.w3.org/2000/svg">
<path fill-rule="evenodd" clip-rule="evenodd" d="M1.13691 25C0.846004 25 0.555101 24.8886 0.332379 24.6682C-0.110793 24.2228 -0.110793 23.5046 0.332379 23.0592L21.1205 2.27365H10.2276C9.60035 2.27365 9.09127 1.76458 9.09127 1.13733C9.09127 0.51008 9.60035 0.00101006 10.2276 0.00101006H23.8591C23.8705 -0.00126258 23.8818 0.00101006 23.8932 0.00101006H23.8955H23.8978C24.0387 0.00555533 24.1727 0.0350996 24.2955 0.0873702C24.4205 0.137368 24.5364 0.210093 24.6409 0.307816C24.6409 0.307816 24.6409 0.307816 24.6432 0.310088V0.310088C24.6614 0.325997 24.675 0.341905 24.6886 0.357814C24.6909 0.357814 24.6909 0.357814 24.6909 0.360086H24.6932C24.7886 0.464628 24.8636 0.580532 24.9136 0.705527C24.9636 0.828249 24.9955 0.962335 25 1.10324V1.10551V1.10778V1.10778V1.1396V14.7731C25 15.4004 24.4909 15.9095 23.8637 15.9095C23.2364 15.9095 22.7273 15.4004 22.7273 14.7731V3.8804L1.94143 24.6682C1.71871 24.8886 1.42781 25 1.13691 25" fill="white"/>
</svg>
