<svg width="23" height="22" viewBox="0 0 23 22" fill="none" xmlns="http://www.w3.org/2000/svg">
<g id="shopping-cart-ecommerce">
<mask id="mask0_133_3069" style="mask-type:luminance" maskUnits="userSpaceOnUse" x="0" y="0" width="23" height="22">
<path id="Clip" d="M0 0V22H22.0485V0H0Z" fill="white"/>
</mask>
<g mask="url(#mask0_133_3069)">
<path id="Vector" fill-rule="evenodd" clip-rule="evenodd" d="M0.917969 1.83334V3.66668H2.75535L6.06263 10.6242L4.8224 12.87C4.67541 13.1267 4.59273 13.4292 4.59273 13.75C4.59273 14.7583 5.41955 15.5833 6.43011 15.5833H17.4544V13.75H6.81596C6.68734 13.75 6.58628 13.6492 6.58628 13.5208L6.61384 13.4108L7.44067 11.9167H14.2849C14.9739 11.9167 15.5803 11.5408 15.8926 10.9725L19.1815 5.02334C19.255 4.89501 19.2918 4.73918 19.2918 4.58334C19.2918 4.07918 18.8784 3.66668 18.3731 3.66668H4.78565L3.92208 1.83334H0.917969ZM6.43011 16.5C5.41955 16.5 4.60191 17.325 4.60191 18.3333C4.60191 19.3417 5.41955 20.1667 6.43011 20.1667C7.44066 20.1667 8.26749 19.3417 8.26749 18.3333C8.26749 17.325 7.44066 16.5 6.43011 16.5ZM13.7888 18.3333C13.7888 17.325 14.6064 16.5 15.617 16.5C16.6276 16.5 17.4544 17.325 17.4544 18.3333C17.4544 19.3417 16.6276 20.1667 15.617 20.1667C14.6064 20.1667 13.7888 19.3417 13.7888 18.3333Z" fill="white"/>
</g>
</g>
</svg>
