<svg width="11" height="11" viewBox="0 0 11 11" fill="none" xmlns="http://www.w3.org/2000/svg">
<g id="Group 3">
<mask id="mask0_0_2801" style="mask-type:luminance" maskUnits="userSpaceOnUse" x="0" y="0" width="11" height="11">
<path id="Clip 2" fill-rule="evenodd" clip-rule="evenodd" d="M0 0H11V11H0V0Z" fill="white"/>
</mask>
<g mask="url(#mask0_0_2801)">
<path id="Fill 1" fill-rule="evenodd" clip-rule="evenodd" d="M0.500239 11C0.372242 11 0.244244 10.951 0.146247 10.854C-0.0487489 10.658 -0.0487489 10.342 0.146247 10.146L9.29304 1.0004H4.50015C4.22415 1.0004 4.00016 0.776413 4.00016 0.500424C4.00016 0.224435 4.22415 0.000444426 4.50015 0.000444426H10.498C10.503 -0.000555533 10.508 0.000444426 10.513 0.000444426H10.514H10.515C10.577 0.00244435 10.636 0.0154438 10.69 0.0384429C10.745 0.060442 10.796 0.0924407 10.842 0.135439C10.842 0.135439 10.842 0.135439 10.843 0.136439V0.136439C10.851 0.143439 10.857 0.150438 10.863 0.157438C10.864 0.157438 10.864 0.157438 10.864 0.158438H10.865C10.907 0.204436 10.94 0.255434 10.962 0.310432C10.984 0.36443 10.998 0.423427 11 0.485425V0.486425V0.487425V0.487425V0.501424V6.50018C11 6.77617 10.776 7.00016 10.5 7.00016C10.224 7.00016 10 6.77617 10 6.50018V1.70738L0.854231 10.854C0.756233 10.951 0.628236 11 0.500239 11" fill="white"/>
</g>
</g>
</svg>
