<svg width="18" height="17" viewBox="0 0 18 17" fill="none" xmlns="http://www.w3.org/2000/svg">
<mask id="mask0_5_2977" style="mask-type:luminance" maskUnits="userSpaceOnUse" x="0" y="0" width="18" height="17">
<path fill-rule="evenodd" clip-rule="evenodd" d="M0 0H18V17H0V0Z" fill="white"/>
</mask>
<g mask="url(#mask0_5_2977)">
<path fill-rule="evenodd" clip-rule="evenodd" d="M15.6321 15.8617C14.9664 15.8625 14.3007 15.8567 13.635 15.8642C13.453 15.8667 13.3367 15.8001 13.2306 15.6593C11.9683 13.9906 10.7009 12.3259 9.43776 10.658C8.15692 8.96841 6.8803 7.27549 5.6003 5.58589C4.65568 4.33931 3.70769 3.09606 2.76139 1.85031C2.59454 1.63047 2.43191 1.40896 2.23894 1.15082C2.34006 1.13583 2.39652 1.12084 2.45298 1.12084C3.133 1.11834 3.81302 1.12417 4.49305 1.11585C4.66664 1.11335 4.77618 1.1758 4.87814 1.3107C6.55924 3.5349 8.24456 5.75577 9.92903 7.97664C11.354 9.85359 12.7797 11.7297 14.2047 13.6067C14.7296 14.2995 15.2529 14.9931 15.7754 15.6868C15.8024 15.7226 15.8192 15.7659 15.8563 15.8367C15.7636 15.8475 15.6979 15.8617 15.6321 15.8617ZM17.9149 16.7552C17.4211 16.099 16.9248 15.4461 16.4301 14.7916C15.5032 13.5667 14.5788 12.3393 13.6519 11.1143C12.7283 9.89523 11.8073 8.67446 10.8736 7.46285C10.7329 7.27882 10.7557 7.17306 10.9065 7.01401C12.8059 5.01548 14.7002 3.01195 16.5944 1.00843C16.8852 0.701151 17.1725 0.390546 17.4885 0.0516287C17.4169 0.0274798 17.3857 0.00749449 17.3545 0.00749449C16.9475 0.00582905 16.5405 0 16.1344 0.0133235C16.0568 0.0158217 15.965 0.0774431 15.9077 0.137399C15.0086 1.07921 14.1128 2.02435 13.2179 2.96948C12.2093 4.0362 11.1989 5.10292 10.1953 6.17463C10.0639 6.31536 9.98717 6.28954 9.88774 6.15048C9.72258 5.91815 9.54646 5.69415 9.37372 5.46682C8.04738 3.71644 6.71851 1.96606 5.39722 0.211511C5.28346 0.0616214 5.16633 0 4.97758 0C3.40096 0.00582905 1.82351 0.00249816 0.246056 0.00416361C0.17443 0.00416361 0.102804 0.020818 0 0.0341416C0.0480315 0.111585 0.0733112 0.158217 0.104489 0.199853C1.52689 2.07931 2.95099 3.95792 4.37255 5.83738C5.24049 6.98487 6.10505 8.13569 6.97467 9.28151C7.06062 9.39476 7.07832 9.46804 6.96962 9.58046C6.44127 10.1259 5.92135 10.678 5.39975 11.2292C3.64786 13.0796 1.89682 14.9307 0.14578 16.7827C0.101962 16.8293 0.0707832 16.8876 0.0101119 16.9725C0.113759 16.9842 0.173587 16.9975 0.233416 16.9975C0.569636 16.9975 0.907542 17.0083 1.24208 16.985C1.36679 16.9767 1.51763 16.9176 1.60273 16.8301C2.31562 16.0948 3.01587 15.3479 3.71865 14.6043C5.0155 13.2336 6.31487 11.8646 7.60582 10.4881C7.74908 10.3357 7.81986 10.3757 7.92351 10.5139C8.27742 10.9869 8.64061 11.4541 8.99621 11.9254C10.2282 13.5567 11.4593 15.188 12.6862 16.8226C12.7806 16.9484 12.8859 16.9942 13.041 16.9942C14.6252 16.9925 16.2094 16.9967 17.7935 16.995C17.8626 16.995 17.9317 16.9559 18 16.9351C17.9722 16.8743 17.9537 16.8068 17.9149 16.7552Z" fill="#050038"/>
</g>
</svg>
