<svg width="20" height="20" viewBox="0 0 20 20" fill="none" xmlns="http://www.w3.org/2000/svg">
<path d="M19.9999 19.999V12.664C19.9999 9.07569 19.2274 6.31152 15.0324 6.31152C13.0158 6.31152 11.6624 7.41819 11.1099 8.46736H11.0516V6.64652H7.0741V19.999H11.2158V13.3874C11.2158 11.6465 11.5458 9.96319 13.7016 9.96319C15.8258 9.96319 15.8574 11.9499 15.8574 13.499V19.9999H19.9949L19.9999 19.999Z" fill="#fff"/>
<path d="M4.4765 6.64746V20H0.329834V6.64746H4.4765Z" fill="#fff"/>
<path d="M-0.00012207 2.40167C-0.00012207 3.7275 1.07571 4.82583 2.40154 4.82583C3.72738 4.82583 4.80321 3.7275 4.80321 2.40167C4.80238 1.07583 3.72654 0 2.40154 0V0C1.07571 0 -0.00012207 1.07583 -0.00012207 2.40167Z" fill="#fff"/>
</svg>
