<svg width="100" height="100" viewBox="0 0 100 100" fill="none" xmlns="http://www.w3.org/2000/svg">
<circle opacity="0.349051" cx="50" cy="50" r="50" fill="white"/>
<path fill-rule="evenodd" clip-rule="evenodd" d="M40.7805 39.3913V60.2826L58.5366 49.8308L40.7805 39.3913ZM41.0651 65C40.2116 65 39.3556 64.7813 38.5705 64.3464C36.9598 63.4518 36 61.8366 36 60.02V38.9795C36 37.1654 36.9598 35.5477 38.5705 34.6531C40.1813 33.7585 42.0883 33.7858 43.6737 34.7177L61.5409 45.2392C63.0807 46.1462 64 47.7391 64 49.501C64 51.2604 63.0807 52.8533 61.5409 53.7628L43.6711 64.2818C42.8607 64.7614 41.9642 65 41.0651 65V65Z" fill="white"/>
</svg>
