<svg width="12" height="11" viewBox="0 0 12 11" fill="none" xmlns="http://www.w3.org/2000/svg">
<mask id="mask0_5_2856" style="mask-type:luminance" maskUnits="userSpaceOnUse" x="0" y="0" width="12" height="11">
<path fill-rule="evenodd" clip-rule="evenodd" d="M0.939209 0H12V11H0.939209V0Z" fill="#42BFEA"/>
</mask>
<g mask="url(#mask0_5_2856)">
<path fill-rule="evenodd" clip-rule="evenodd" d="M1.44221 11C1.31351 11 1.1848 10.951 1.08626 10.854C0.890191 10.658 0.890191 10.342 1.08626 10.146L10.2836 1.0004H5.46422C5.1867 1.0004 4.96147 0.776413 4.96147 0.500424C4.96147 0.224435 5.1867 0.000444426 5.46422 0.000444426H11.4952C11.5002 -0.000555533 11.5053 0.000444426 11.5103 0.000444426H11.5113H11.5123C11.5747 0.00244435 11.634 0.0154438 11.6883 0.0384429C11.7436 0.060442 11.7949 0.0924407 11.8411 0.135439C11.8411 0.135439 11.8411 0.135439 11.8421 0.136439C11.8502 0.143439 11.8562 0.150438 11.8622 0.157438C11.8632 0.157438 11.8632 0.157438 11.8632 0.158438H11.8642C11.9065 0.204436 11.9397 0.255434 11.9618 0.310432C11.9839 0.36443 11.998 0.423427 12 0.485425V0.486425V0.487425V0.501424V6.50018C12 6.77617 11.7747 7.00016 11.4972 7.00016C11.2197 7.00016 10.9945 6.77617 10.9945 6.50018V1.70738L1.79816 10.854C1.69962 10.951 1.57092 11 1.44221 11Z" fill="#42BFEA"/>
</g>
</svg>