<svg width="50" height="50" viewBox="0 0 50 50" fill="none" xmlns="http://www.w3.org/2000/svg">
<g id="Group 4">
<g id="Group 6">
<g id="social">
<g id="behance">
<rect id="Rectangle 731" opacity="0.1" width="50" height="50" rx="17" fill="white"/>
</g>
</g>
</g>
<g id="basic / phone" opacity="0.41">
<g id="basic / phone_2">
<mask id="mask0_0_884" style="mask-type:luminance" maskUnits="userSpaceOnUse" x="13" y="13" width="24" height="24">
<rect id="basic / phone (Background/Mask)" x="13" y="13" width="24" height="24" fill="white"/>
</mask>
<g mask="url(#mask0_0_884)">
<path id="basic / phone_3" fill-rule="evenodd" clip-rule="evenodd" d="M29.2933 25.293L27.6993 26.887C26.9603 26.667 25.5813 26.167 24.7073 25.293C23.8333 24.419 23.3333 23.04 23.1133 22.301L24.7073 20.707C25.0983 20.316 25.0983 19.684 24.7073 19.293L20.7073 15.293C20.3163 14.902 19.6843 14.902 19.2933 15.293L16.5813 18.005C16.2013 18.385 15.9873 18.907 15.9953 19.44C16.0183 20.864 16.3953 25.81 20.2933 29.708C24.1913 33.606 29.1373 33.982 30.5623 34.006C30.5673 34.006 30.5853 34.006 30.5903 34.006C31.1183 34.006 31.6173 33.798 31.9953 33.42L34.7073 30.708C35.0983 30.317 35.0983 29.685 34.7073 29.294L30.7073 25.293C30.3163 24.902 29.6843 24.902 29.2933 25.293ZM21.7073 28.293C18.3413 24.927 18.0153 20.642 17.9953 19.419L20.0003 17.414L22.5863 20L21.2933 21.293C21.0543 21.531 20.9523 21.875 21.0213 22.205C21.0453 22.32 21.6323 25.047 23.2923 26.707C24.9523 28.367 27.6793 28.954 27.7943 28.978C28.1273 29.049 28.4683 28.946 28.7063 28.707L30.0003 27.414L32.5863 30L30.5803 32.005C29.3323 31.984 25.0623 31.649 21.7073 28.293Z" fill="white"/>
</g>
</g>
</g>
</g>
</svg>
