<svg width="18" height="18" viewBox="0 0 18 18" fill="none" xmlns="http://www.w3.org/2000/svg">
<path fill-rule="evenodd" clip-rule="evenodd" d="M4.96154 9.6061H4.15385C3.81946 9.6061 3.54808 9.33473 3.54808 9.00036C3.54808 8.66599 3.81946 8.39462 4.15385 8.39462H4.96154C5.29592 8.39462 5.56731 8.66599 5.56731 9.00036C5.56731 9.33473 5.29592 9.6061 4.96154 9.6061ZM4.96154 12.0291H4.15385C3.81946 12.0291 3.54808 11.7577 3.54808 11.4233C3.54808 11.089 3.81946 10.8176 4.15385 10.8176H4.96154C5.29592 10.8176 5.56731 11.089 5.56731 11.4233C5.56731 11.7577 5.29592 12.0291 4.96154 12.0291ZM4.96154 14.452H4.15385C3.81946 14.452 3.54808 14.1807 3.54808 13.8463C3.54808 13.5119 3.81946 13.2406 4.15385 13.2406H4.96154C5.29592 13.2406 5.56731 13.5119 5.56731 13.8463C5.56731 14.1807 5.29592 14.452 4.96154 14.452ZM11.4675 3.28297L13.4181 3.80552L13.4698 3.61087C13.6143 3.07217 13.2937 2.5165 12.7558 2.37193C12.4949 2.30086 12.2227 2.33882 11.9901 2.47289C11.7567 2.60777 11.5895 2.82583 11.52 3.08671L11.4675 3.28297ZM9.50804 10.2587L10.0904 11.9798L11.4602 10.7748L12.6855 6.43444C12.6879 6.4199 12.692 6.40536 12.6968 6.39082L13.0966 4.9742L11.146 4.45084L10.5023 6.73408C10.5007 6.73973 10.4991 6.74538 10.4975 6.75023L9.50804 10.2587ZM2.33654 15.6635H15.6635V7.18313H13.7323L12.5781 11.2755C12.5466 11.3886 12.4828 11.4896 12.3947 11.5671L10.2075 13.4909C10.0557 13.6242 9.84646 13.6718 9.651 13.621C9.45473 13.5677 9.29885 13.4215 9.23423 13.2292L8.30054 10.4687C8.26177 10.3532 8.25854 10.2288 8.29165 10.1109L9.11712 7.18313H2.33654V15.6635ZM16.2692 16.875H1.73077C1.39638 16.875 1.125 16.6036 1.125 16.2693V6.57739C1.125 6.24302 1.39638 5.97165 1.73077 5.97165H9.45877L10.3497 2.77414C10.5023 2.20071 10.8698 1.72096 11.3835 1.42455C11.898 1.12653 12.4957 1.04818 13.07 1.20164C14.2532 1.51905 14.9575 2.74103 14.6401 3.92424L14.4325 4.70282C14.4317 4.70363 14.4317 4.70444 14.4317 4.70525C14.4309 4.70848 14.4301 4.71171 14.4285 4.71494L14.0739 5.97165H16.2692C16.6036 5.97165 16.875 6.24302 16.875 6.57739V16.2693C16.875 16.6036 16.6036 16.875 16.2692 16.875Z" fill="#050038"/>
</svg>
