<svg width="25" height="25" viewBox="0 0 25 25" fill="none" xmlns="http://www.w3.org/2000/svg">
<mask id="mask0_5_2961" style="mask-type:luminance" maskUnits="userSpaceOnUse" x="0" y="0" width="25" height="25">
<path fill-rule="evenodd" clip-rule="evenodd" d="M0 0H25V25H0V0Z" fill="white"/>
</mask>
<g mask="url(#mask0_5_2961)">
<path fill-rule="evenodd" clip-rule="evenodd" d="M14.4265 24.9912C14.2519 25.0199 14.2082 24.9841 14.209 24.8026C14.2168 23.3775 14.2133 21.952 14.2133 20.5268C14.2133 19.1017 14.2156 17.6761 14.2102 16.251C14.2094 16.099 14.2457 16.0522 14.4031 16.0538C15.2351 16.062 16.0676 16.0542 16.9001 16.0612C17.0477 16.0624 17.0945 16.0227 17.1137 15.8707C17.2437 14.8404 17.3897 13.8116 17.5233 12.7816C17.5643 12.467 17.576 12.5216 17.2929 12.5208C16.3304 12.5184 15.3679 12.5164 14.4058 12.5235C14.2531 12.5247 14.2051 12.4862 14.2102 12.3287C14.2336 11.5976 14.1653 10.865 14.25 10.1348C14.2742 9.9262 14.3156 9.72154 14.3808 9.52238C14.6108 8.81924 15.1418 8.39264 15.8786 8.34825C16.4296 8.31525 16.9825 8.30818 17.5346 8.3015C17.6541 8.30032 17.6908 8.27715 17.69 8.1542C17.6853 7.26485 17.6865 6.37551 17.6888 5.48656C17.6892 5.38993 17.6763 5.32944 17.5627 5.31137C16.6705 5.16956 15.7806 5.00261 14.8701 5.07175C14.1676 5.12478 13.4734 5.22141 12.8224 5.51485C11.6756 6.0318 11.0427 6.97653 10.6702 8.13652C10.5007 8.66407 10.4422 9.2097 10.4379 9.76004C10.4312 10.6168 10.432 11.4731 10.4402 12.3295C10.4414 12.4874 10.3953 12.5247 10.2438 12.5235C9.32699 12.5164 8.41017 12.5231 7.49296 12.5168C7.35044 12.5157 7.30515 12.5483 7.30632 12.6995C7.31296 13.7519 7.31257 14.8046 7.30632 15.8574C7.30554 16.0082 7.34029 16.0561 7.49843 16.0546C8.409 16.0467 9.31957 16.055 10.2297 16.0467C10.3922 16.0455 10.4336 16.0895 10.4332 16.2522C10.4277 18.5666 10.4297 20.8811 10.4293 23.1956C10.4289 23.7185 10.4207 24.2417 10.4254 24.7645C10.4269 24.9122 10.4105 24.966 10.2364 24.9331C7.81432 24.4731 5.69994 23.4026 3.91238 21.6986C1.84642 19.7294 0.555926 17.3253 0.150231 14.4935C-0.426099 10.4718 0.654714 6.92507 3.41141 3.94279C5.41763 1.77207 7.91701 0.477733 10.8416 0.112412C14.7689 -0.378218 18.2187 0.736994 21.1121 3.46198C23.1737 5.40407 24.4365 7.80852 24.8461 10.6183C25.4142 14.5159 24.4111 17.9868 21.8106 20.944C19.8446 23.1795 17.3573 24.5061 14.4265 24.9912Z" fill="#050038"/>
</g>
</svg>
