<svg width="50" height="50" viewBox="0 0 50 50" fill="none" xmlns="http://www.w3.org/2000/svg">
<g id="Group 4">
<g id="Group 6">
<g id="social">
<g id="behance">
<rect id="Rectangle 731" opacity="0.1" width="50" height="50" rx="17" fill="white"/>
</g>
</g>
</g>
<g id="basic / location_outline" opacity="0.41">
<g id="basic / location_outline_2">
<mask id="mask0_0_898" style="mask-type:luminance" maskUnits="userSpaceOnUse" x="13" y="13" width="24" height="24">
<rect id="basic / location_outline (Background/Mask)" x="13" y="13" width="24" height="24" fill="white"/>
</mask>
<g mask="url(#mask0_0_898)">
<path id="basic / location_outline_3" fill-rule="evenodd" clip-rule="evenodd" d="M25 26C23.3431 26 22 24.6569 22 23C22 21.3431 23.3431 20 25 20C26.6569 20 28 21.3431 28 23C28 24.6569 26.6569 26 25 26ZM18 23C18 28.25 25 34 25 34C25 34 32 28.25 32 23C32 19.13 28.87 16 25 16C21.13 16 18 19.13 18 23C18 28.25 18 23 18 23ZM20 23C20 20.2346 22.2346 18 25 18C27.7654 18 30 20.2346 30 23C30 24.8607 28.6843 27.1296 26.9654 29.1861C26.2714 30.0165 25.5732 30.7402 25 31.2974C24.4268 30.7402 23.7286 30.0165 23.0346 29.1861C21.3157 27.1296 20 24.8607 20 23C20 20.2346 20 23 20 23Z" fill="white"/>
</g>
</g>
</g>
</g>
</svg>
