<svg width="19" height="19" viewBox="0 0 19 19" fill="none" xmlns="http://www.w3.org/2000/svg">
<g id="Group 4">
<g id="Group 3">
<mask id="mask0_5_1305" style="mask-type:luminance" maskUnits="userSpaceOnUse" x="0" y="0" width="19" height="19">
<path id="Clip 2" fill-rule="evenodd" clip-rule="evenodd" d="M0 0H19V19H0V0Z" fill="white"/>
</mask>
<g mask="url(#mask0_5_1305)">
<path id="Fill 1" fill-rule="evenodd" clip-rule="evenodd" d="M9.50097 9.25641C7.4859 9.25641 5.84694 7.61754 5.84694 5.60256V4.62821C5.84694 4.22482 6.17434 3.89744 6.57775 3.89744C6.98115 3.89744 7.30855 4.22482 7.30855 4.62821V5.60256C7.30855 6.81174 8.29173 7.79487 9.50097 7.79487C10.7102 7.79487 11.6934 6.81174 11.6934 5.60256V4.62821C11.6934 4.22482 12.0198 3.89744 12.4242 3.89744C12.8276 3.89744 13.155 4.22482 13.155 4.62821V5.60256C13.155 7.61754 11.5161 9.25641 9.50097 9.25641ZM3.3242 1.46154L1.46795 16.1968C1.42994 16.5349 1.5381 16.871 1.77196 17.1331C2.00679 17.3952 2.32835 17.5385 2.68011 17.5385H16.3218C16.6726 17.5385 16.9952 17.3952 17.229 17.1331C17.4629 16.871 17.571 16.5349 17.533 16.1851L15.6885 1.46154H3.3242ZM16.3219 19H2.68013C1.91815 19 1.19124 18.6746 0.68357 18.1075C0.175903 17.5404 -0.0676995 16.7814 0.0160997 16.0243L1.9542 0.639179C2.00097 0.273795 2.31181 0 2.68013 0H16.3336C16.7019 0 17.0127 0.274769 17.0585 0.640154L18.9839 16.0155C19.0687 16.7824 18.8251 17.5414 18.3174 18.1085C17.8098 18.6746 17.0829 19 16.3219 19Z" fill="#050038"/>
</g>
</g>
</g>
</svg>
