<?xml version="1.0" encoding="utf-8"?>
<svg width="7.0909424px" height="13px" viewBox="0 0 7.0909424 13" version="1.1" xmlns:xlink="http://www.w3.org/1999/xlink" xmlns="http://www.w3.org/2000/svg">
  <defs>
    <path d="M1474.45 -9910.5L1469.76 -9905.58C1469.41 -9905.22 1469.41 -9904.63 1469.76 -9904.27C1470.11 -9903.91 1470.67 -9903.91 1471.01 -9904.27L1476.33 -9909.84C1476.68 -9910.21 1476.68 -9910.79 1476.33 -9911.16L1471.01 -9916.73C1470.67 -9917.09 1470.11 -9917.09 1469.76 -9916.73C1469.41 -9916.37 1469.41 -9915.78 1469.76 -9915.42L1474.45 -9910.5Z" id="path_1" />
    <clipPath id="clip_1">
      <use xlink:href="#path_1" clip-rule="evenodd" fill-rule="evenodd" />
    </clipPath>
  </defs>
  <path d="M1474.45 -9910.5L1469.76 -9905.58C1469.41 -9905.22 1469.41 -9904.63 1469.76 -9904.27C1470.11 -9903.91 1470.67 -9903.91 1471.01 -9904.27L1476.33 -9909.84C1476.68 -9910.21 1476.68 -9910.79 1476.33 -9911.16L1471.01 -9916.73C1470.67 -9917.09 1470.11 -9917.09 1469.76 -9916.73C1469.41 -9916.37 1469.41 -9915.78 1469.76 -9915.42L1474.45 -9910.5Z" id="Shape" fill="#050038" stroke="none" />
</svg>