<?xml version="1.0" encoding="utf-8"?>
<svg width="9px" height="9px" viewBox="0 0 9 9" version="1.1" xmlns:xlink="http://www.w3.org/1999/xlink" xmlns="http://www.w3.org/2000/svg">
  <defs>
    <path d="M0 0L9 0L9 9L0 9L0 0Z" id="path_1" />
    <clipPath id="clip_1">
      <use xlink:href="#path_1" clip-rule="evenodd" fill-rule="evenodd" />
    </clipPath>
  </defs>
  <g id="Group-3">
    <path d="M0 0L9 0L9 9L0 9L0 0Z" id="Clip-2" fill="none" fill-rule="evenodd" stroke="none" />
    <g clip-path="url(#clip_1)">
      <path d="M0.409286 9C0.304561 9 0.199836 8.95991 0.119656 8.88055C-0.0398855 8.72019 -0.0398855 8.46166 0.119656 8.3013L7.6034 0.818512L3.68194 0.818512C3.45613 0.818512 3.27286 0.635247 3.27286 0.409438C3.27286 0.183629 3.45613 0.000363622 3.68194 0.000363622L8.58928 0.000363622C8.59337 -0.000454527 8.59746 0.000363622 8.60155 0.000363622L8.60237 0.000363622L8.60319 0.000363622C8.65392 0.00199992 8.70219 0.0126359 8.74637 0.0314533C8.79137 0.0494525 8.83309 0.0756333 8.87073 0.110814C8.87073 0.110814 8.87073 0.110814 8.87155 0.111632L8.87155 0.111632C8.87809 0.117359 8.883 0.123086 8.88791 0.128813C8.88873 0.128813 8.88873 0.128813 8.88873 0.129631L8.88955 0.129631C8.92391 0.167266 8.95091 0.208992 8.96891 0.25399C8.98691 0.29817 8.99836 0.346441 9 0.397166L9 0.397984L9 0.398802L9 0.398802L9 0.410256L9 5.31833C9 5.54414 8.81673 5.72741 8.59092 5.72741C8.36511 5.72741 8.18184 5.54414 8.18184 5.31833L8.18184 1.39694L0.698916 8.88055C0.618736 8.95991 0.514011 9 0.409286 9" id="Fill-1" fill="#050038" fill-rule="evenodd" stroke="none" />
    </g>
  </g>
</svg>