<?xml version="1.0" encoding="utf-8"?>
<svg width="18px" height="18px" viewBox="0 0 18 18" version="1.1" xmlns:xlink="http://www.w3.org/1999/xlink" xmlns="http://www.w3.org/2000/svg">
  <g id="avatar-user-face" fill-opacity="1">
    <path d="M4608 -10246L4608 -10246L4608 -10228L4590 -10228L4590 -10246L4608 -10246Z" id="avatar-user-face" fill="none" stroke="none" />
    <path d="M0 9C0 4.02944 4.02944 0 9 0C11.3869 0 13.6761 0.948212 15.364 2.63604C17.0518 4.32387 18 6.61305 18 9C18 13.9706 13.9706 18 9 18C4.02944 18 0 13.9706 0 9ZM8.21352 11.8566L13.3732 6.53949C13.5423 6.35674 13.5423 6.06941 13.3732 5.88667L12.8866 5.38523C12.7081 5.20492 12.4225 5.20492 12.244 5.38523L7.89219 9.86981L6.51504 8.4601C6.43174 8.36863 6.31544 8.31674 6.19371 8.31674C6.07198 8.31674 5.95568 8.36863 5.87238 8.4601L5.38579 8.96154C5.29888 9.05036 5.25 9.17127 5.25 9.29741C5.25 9.42354 5.29888 9.54445 5.38579 9.63328L7.57085 11.8566C7.65415 11.9481 7.77046 12 7.89219 12C8.01391 12 8.13022 11.9481 8.21352 11.8566Z" id="Icon" fill="#42BFEA" fill-rule="evenodd" stroke="none" />
  </g>
</svg>