<?xml version="1.0" encoding="utf-8"?>
<svg width="64px" height="64px" viewBox="0 0 64 64" version="1.1" xmlns:xlink="http://www.w3.org/1999/xlink" xmlns="http://www.w3.org/2000/svg">
  <g id="Vector-2">
    <g id="Vector">
      <path d="M20.6667 40.4618C20.6667 40.4618 20.6667 21.5382 20.6667 21.5382C20.6667 18.1537 24.445 16.0903 27.3579 17.8841C27.3579 17.8841 33.0943 21.4168 35.9626 23.1831C38.2158 24.5707 42.7223 27.3459 42.7223 27.3459C45.4629 29.0336 45.4629 32.9664 42.7223 34.6541C42.7223 34.6541 27.3579 44.1159 27.3579 44.1159C24.445 45.9097 20.6667 43.8463 20.6667 40.4618Z" id="Vector" fill="#FFFFFF" stroke="#FFFFFF" stroke-width="2" />
      <path d="M62 31C62 48.1208 48.1208 62 31 62C13.8792 62 0 48.1208 0 31C0 13.8792 13.8792 0 31 0C48.1208 0 62 13.8792 62 31Z" id="Vector" fill="none" stroke="#FFFFFF" stroke-width="2" />
    </g>
  </g>
</svg>