<?xml version="1.0" encoding="utf-8"?>
<svg width="230px" height="230px" viewBox="0 0 230 230" version="1.1" xmlns:xlink="http://www.w3.org/1999/xlink" xmlns="http://www.w3.org/2000/svg">
  <path d="M22 181.588C24.3674 184.83 26.8868 187.966 29.6141 191L191 29.612C187.966 26.8869 184.828 24.3652 181.589 22L22 181.588ZM48.4116 207L208 47.4116C205.637 44.1723 203.115 41.0336 200.39 38L39 199.39C42.0359 202.115 45.1724 204.635 48.4116 207M69.3698 221L220 70.3675C218.326 66.5268 216.419 62.713 214.304 59L58 215.304C61.713 217.417 65.5269 219.324 69.3698 221M95.8494 228L228 95.8514C227.202 91.1834 226.144 86.5648 224.776 82L82 224.774C86.5649 226.144 91.1814 227.2 95.8494 228M129.885 229.109L229.11 129.883C229.831 123.966 230.115 117.971 229.958 112L112 229.959C117.971 230.113 123.966 229.832 129.885 229.109M196.099 196.1C209.218 182.979 218.519 167.497 224 151L151 224C167.496 218.517 182.98 209.219 196.099 196.1M160.633 10L10 160.632C11.676 164.473 13.5852 168.289 15.6982 172L172 15.6961C168.287 13.583 164.473 11.6761 160.633 10M134.153 2L2 134.151C2.80042 138.819 3.85645 143.435 5.22412 148L148 5.22186C143.435 3.85645 138.821 2.79819 134.153 2M100.115 0.891022L0.890015 100.115C0.169678 106.034 -0.112183 112.029 0.039917 118L118 0.0409241C112.031 -0.113403 106.034 0.168457 100.115 0.891022M80 6L7 79C12.4813 62.502 21.7838 47.0203 34.9009 33.9009C48.0203 20.7816 63.5043 11.4813 80 6" id="Fill-1" fill="#42BFEA" fill-opacity="0.5285296" fill-rule="evenodd" stroke="none" />
</svg>