<?xml version="1.0" encoding="utf-8"?>
<svg width="24px" height="24px" viewBox="0 0 24 24" version="1.1" xmlns:xlink="http://www.w3.org/1999/xlink" xmlns="http://www.w3.org/2000/svg">
  <g id="Icon--line--emergency" fill-opacity="1">
    <path d="M2816 -8570L2816 -8570L2816 -8546L2792 -8546L2792 -8570L2816 -8570Z" id="Icon--line--emergency" fill="none" stroke="none" />
    <g id="Vector" transform="translate(5 3)">
      <path d="M13.2222 18C13.2222 18 0.777778 18 0.777778 18C0.348223 18 0 17.6518 0 17.2222C0 17.2222 0 16.2778 0 16.2778C0 15.8482 0.348223 15.5 0.777778 15.5C0.777778 15.5 0.777778 10.7222 0.777778 10.7222C0.777778 7.28578 3.56356 4.5 7 4.5C10.4364 4.5 13.2222 7.28578 13.2222 10.7222C13.2222 10.7222 13.2222 15.5 13.2222 15.5C13.6518 15.5 14 15.8482 14 16.2778C14 16.2778 14 17.2222 14 17.2222C14 17.6518 13.6518 18 13.2222 18Z" id="Vector" fill="none" stroke="#000000" stroke-width="1.5" stroke-linecap="round" />
      <path d="M13.2222 15.5L0.777778 15.5M7 2L7 0M1.41421 3.41421L0 2M12.5858 3.41421L14 2M4.5 10.25L7 10.25L9.5 10.25M7 7.75L7 10.25L7 12.75" id="Vector" fill="none" stroke="#000000" stroke-width="1.5" stroke-linecap="round" />
    </g>
  </g>
</svg>