<?xml version="1.0" encoding="utf-8"?>
<svg width="17px" height="17px" viewBox="0 0 17 17" version="1.1" xmlns:xlink="http://www.w3.org/1999/xlink" xmlns="http://www.w3.org/2000/svg">
  <defs>
    <path d="M0 0L17 0L17 17L0 17L0 0Z" id="path_1" />
    <clipPath id="clip_1">
      <use xlink:href="#path_1" clip-rule="evenodd" fill-rule="evenodd" />
    </clipPath>
  </defs>
  <g id="attention--info_square">
    <g id="attention--info_square">
      <path d="M0 0L17 0L17 17L0 17L0 0Z" id="attention--info_square-(BackgroundMask)" fill="none" fill-rule="evenodd" stroke="none" />
      <g clip-path="url(#clip_1)">
        <path d="M2.83333 2.125L14.1667 2.125C14.5584 2.125 14.875 2.44233 14.875 2.83333L14.875 14.1667C14.875 14.5577 14.5584 14.875 14.1667 14.875L2.83333 14.875C2.44163 14.875 2.125 14.5577 2.125 14.1667L2.125 2.83333C2.125 2.44233 2.44163 2.125 2.83333 2.125C2.83333 2.125 2.83333 2.125 2.83333 2.125ZM9.20833 4.95833C9.20833 4.95833 7.79167 4.95833 7.79167 4.95833C7.79167 4.95833 7.79167 6.375 7.79167 6.375C7.79167 6.375 9.20833 6.375 9.20833 6.375C9.20833 6.375 9.20833 4.95833 9.20833 4.95833C9.20833 4.95833 9.20833 4.95833 9.20833 4.95833ZM9.20833 7.79167C9.20833 7.79167 7.08333 7.79167 7.08333 7.79167C7.08333 7.79167 7.08333 9.20833 7.08333 9.20833C7.08333 9.20833 7.79167 9.20833 7.79167 9.20833C7.79167 9.20833 7.79167 12.0417 7.79167 12.0417C7.79167 12.0417 9.91667 12.0417 9.91667 12.0417C9.91667 12.0417 9.91667 10.625 9.91667 10.625C9.91667 10.625 9.20833 10.625 9.20833 10.625C9.20833 10.625 9.20833 7.79167 9.20833 7.79167C9.20833 7.79167 9.20833 7.79167 9.20833 7.79167Z" id="attention--info_square" fill="#8FD2E9" fill-rule="evenodd" stroke="none" />
      </g>
    </g>
  </g>
</svg>