<?xml version="1.0" encoding="utf-8"?>
<svg width="8px" height="8px" viewBox="0 0 8 8" version="1.1" xmlns:xlink="http://www.w3.org/1999/xlink" xmlns="http://www.w3.org/2000/svg">
  <g id="readmore-pijl" fill-opacity="1">
    <path d="M1479.73 -10650L1479.73 -10650L1479.73 -10642L1471.73 -10642L1471.73 -10650L1479.73 -10650Z" id="readmore-pijl" fill="none" stroke="none" />
    <path d="M0.36381 8C0.270721 8 0.177632 7.96437 0.106361 7.89382C-0.0354537 7.75128 -0.0354537 7.52147 0.106361 7.37893L6.75857 0.727567L3.27283 0.727567C3.07211 0.727567 2.90921 0.564664 2.90921 0.363945C2.90921 0.163226 3.07211 0.000323219 3.27283 0.000323219L7.63492 0.000323219C7.63855 -0.000404024 7.64219 0.000323219 7.64583 0.000323219L7.64655 0.000323219L7.64728 0.000323219C7.69237 0.00177771 7.73528 0.0112319 7.77455 0.0279585C7.81455 0.0439578 7.85164 0.0672296 7.88509 0.0985011C7.88509 0.0985011 7.88509 0.0985011 7.88582 0.0992283L7.88582 0.0992283C7.89164 0.104319 7.896 0.10941 7.90037 0.1145C7.90109 0.1145 7.90109 0.1145 7.90109 0.115228L7.90182 0.115228C7.93236 0.148681 7.95636 0.18577 7.97236 0.225769C7.98836 0.26504 7.99855 0.307947 8 0.353036L8 0.353763L8 0.354491L8 0.354491L8 0.364672L8 4.72741C8 4.92812 7.83709 5.09103 7.63637 5.09103C7.43565 5.09103 7.27274 4.92812 7.27274 4.72741L7.27274 1.24173L0.621259 7.89382C0.549987 7.96437 0.456899 8 0.36381 8" id="Fill-1" fill="#050038" fill-rule="evenodd" stroke="none" />
  </g>
</svg>