<?xml version="1.0" encoding="utf-8"?>
<svg width="11px" height="11px" viewBox="0 0 11 11" version="1.1" xmlns:xlink="http://www.w3.org/1999/xlink" xmlns="http://www.w3.org/2000/svg">
  <g id="Group-19">
    <g id="Group-18">
      <path d="M4.02822 0.396631C4.56815 -0.13221 5.43185 -0.132211 5.97178 0.396631L6.23797 0.657349C6.49398 0.908099 6.83701 1.05019 7.19534 1.0539L7.56792 1.05777C8.32366 1.06561 8.93439 1.67634 8.94223 2.43208L8.9461 2.80466C8.94981 3.16299 9.0919 3.50602 9.34265 3.76203L9.60337 4.02822C10.1322 4.56815 10.1322 5.43185 9.60337 5.97178L9.34265 6.23797C9.0919 6.49398 8.94981 6.83701 8.9461 7.19534L8.94223 7.56792C8.93439 8.32366 8.32366 8.93439 7.56792 8.94223L7.19534 8.9461C6.83701 8.94981 6.49398 9.0919 6.23797 9.34265L5.97178 9.60337C5.43185 10.1322 4.56815 10.1322 4.02822 9.60337L3.76203 9.34265C3.50602 9.0919 3.16299 8.94981 2.80466 8.9461L2.43208 8.94223C1.67634 8.93439 1.06561 8.32366 1.05777 7.56792L1.0539 7.19534C1.05019 6.83701 0.908099 6.49398 0.657349 6.23797L0.396631 5.97178C-0.13221 5.43185 -0.13221 4.56815 0.396631 4.02822L0.657349 3.76203C0.908099 3.50602 1.05019 3.16299 1.0539 2.80466L1.05777 2.43208C1.06561 1.67634 1.67634 1.06561 2.43208 1.05777L2.80466 1.0539C3.16299 1.05019 3.50602 0.9081 3.76203 0.657349L4.02822 0.396631Z" id="Vector" fill="none" stroke="#050038" stroke-width="1" />
      <path d="M3.33345 4.98625C3.33345 4.98625 4.37883 6.0832 4.37883 6.0832C4.41387 6.11996 4.47563 6.12039 4.51125 6.08411L6.66657 3.88897" id="Vector" fill="none" stroke="#050038" stroke-width="1" stroke-linecap="round" />
    </g>
  </g>
</svg>